<?xml version="1.0" encoding="UTF-8"?>
<svg version="1.1" xmlns="http://www.w3.org/2000/svg" width="480" height="98">
<path d="M0 0 C158.4 0 316.8 0 480 0 C480 32.34 480 64.68 480 98 C321.6 98 163.2 98 0 98 C0 65.66 0 33.32 0 0 Z " fill="#FAFCFD" transform="translate(0,0)"/>
<path d="M0 0 C0.66386719 0.4021875 1.32773437 0.804375 2.01171875 1.21875 C2.66785156 1.4765625 3.32398438 1.734375 4 2 C5.84510185 0.99358081 7.69018572 -0.01287135 9.53515625 -1.01953125 C15.37899353 -3.34410044 21.88252825 -2.8894844 27.84765625 -1.1875 C34.32602563 1.62663331 37.83496427 5.76336134 41 12 C42.23808414 15.71425243 42.35580871 19.31290753 42.5625 23.1875 C42.7790625 27.0546875 42.7790625 27.0546875 43 31 C34.75 31 26.5 31 18 31 C18 25.39 18 19.78 18 14 C16.02 14 14.04 14 12 14 C12 19.61 12 25.22 12 31 C6.72 31 1.44 31 -4 31 C-4 25.06 -4 19.12 -4 13 C-6.31 13 -8.62 13 -11 13 C-11 18.94 -11 24.88 -11 31 C-19.25 31 -27.5 31 -36 31 C-36 19.83110518 -35.81766731 12.62234395 -29 4 C-19.93488655 -4.3494466 -10.92096675 -4.89560578 0 0 Z " fill="#4F9DD1" transform="translate(48,13)"/>
<path d="M0 0 C5.28 0 10.56 0 16 0 C16 6.6 16 13.2 16 20 C18.31 20 20.62 20 23 20 C23 13.73 23 7.46 23 1 C29.93 1 36.86 1 44 1 C38.76107658 16.06190483 28.89774248 28.03965774 14.87890625 35.70703125 C9.06835635 38.31665407 4.71259766 37.38657516 -1.3125 35.625 C-8.52752954 32.81355692 -15.99010898 27.32576545 -19.30859375 20.18359375 C-19.53675781 19.46300781 -19.76492187 18.74242188 -20 18 C-20.66 18 -21.32 18 -22 18 C-22 17.34 -22 16.68 -22 16 C-22.66 16 -23.32 16 -24 16 C-24.83986084 14.06532058 -25.67168027 12.12714871 -26.5 10.1875 C-26.9640625 9.10855469 -27.428125 8.02960937 -27.90625 6.91796875 C-29 4 -29 4 -29 1 C-21.74 1 -14.48 1 -7 1 C-7 7.27 -7 13.54 -7 20 C-4.69 20 -2.38 20 0 20 C0 13.4 0 6.8 0 0 Z " fill="#539ED3" transform="translate(44,50)"/>
<path d="M0 0 C18.09126394 0 18.09126394 0 24.85173035 5.50892639 C27.04067995 8.35136412 26.40178649 12.23414317 26.36328125 15.68359375 C26.36377975 16.53550797 26.36427826 17.38742218 26.36479187 18.26515198 C26.36245191 20.06652153 26.35272792 21.86789438 26.33618164 23.66918945 C26.31261858 26.42363818 26.31561754 29.17711692 26.32226562 31.93164062 C26.3166877 33.68229743 26.3095771 35.43295016 26.30078125 37.18359375 C26.30214836 38.41812538 26.30214836 38.41812538 26.30354309 39.67759705 C26.21419867 46.90260169 26.21419867 46.90260169 24 50 C16.049618 57.1349582 12.62813281 55 0 55 C0 36.85 0 18.7 0 0 Z " fill="#18587E" transform="translate(380,18)"/>
<path d="M0 0 C17 0 17 0 23 4 C25.57318472 8.91244356 25.64677064 14.561661 25 20 C24.0436126 21.69207001 23.05589069 23.36816893 22 25 C22.71458891 27.14376674 23.41224417 28.41224417 25 30 C25.18145851 32.57909066 25.27820018 35.10586653 25.3125 37.6875 C25.34150391 38.39583984 25.37050781 39.10417969 25.40039062 39.83398438 C25.46237063 44.99739561 24.5330316 47.99824115 21 52 C15 55 15 55 0 55 C0 36.85 0 18.7 0 0 Z " fill="#0F527A" transform="translate(299,18)"/>
<path d="M0 0 C16 0 16 0 23 3 C27.0121271 7.73414588 26.47877365 12.74311769 26.3671875 18.67578125 C25.88658818 23.02673891 24.82167704 24.75079613 22 28 C20.85969485 31.09126504 21.01203753 32.85111919 22.1796875 35.8984375 C22.44910156 36.62546875 22.71851563 37.3525 22.99609375 38.1015625 C23.28613281 38.85179687 23.57617188 39.60203125 23.875 40.375 C25.72833509 45.24952516 27.3543658 49.78526221 28 55 C26.72125 55.061875 25.4425 55.12375 24.125 55.1875 C23.04605469 55.23970703 23.04605469 55.23970703 21.9453125 55.29296875 C21.30335938 55.19628906 20.66140625 55.09960938 20 55 C18.23212691 52.34819037 17.53701448 50.81927622 16.74609375 47.83984375 C16.53146484 47.04642578 16.31683594 46.25300781 16.09570312 45.43554688 C15.87849609 44.61119141 15.66128906 43.78683594 15.4375 42.9375 C15.00048919 41.30030206 14.56176704 39.66355968 14.12109375 38.02734375 C13.9295874 37.30281006 13.73808105 36.57827637 13.54077148 35.83178711 C13.03684045 33.92728929 13.03684045 33.92728929 12 32 C10.68 31.67 9.36 31.34 8 31 C8 38.92 8 46.84 8 55 C5.36 55 2.72 55 0 55 C0 36.85 0 18.7 0 0 Z " fill="#0F517D" transform="translate(332,18)"/>
<path d="M0 0 C2.97 0 5.94 0 9 0 C9 18.48 9 36.96 9 56 C6.03 56 3.06 56 0 56 C0 47.75 0 39.5 0 31 C-2.97 31 -5.94 31 -9 31 C-8.99476318 31.72179443 -8.98952637 32.44358887 -8.98413086 33.18725586 C-8.96342642 36.43732849 -8.95036082 39.68738728 -8.9375 42.9375 C-8.92912109 44.07380859 -8.92074219 45.21011719 -8.91210938 46.38085938 C-8.90888672 47.46044922 -8.90566406 48.54003906 -8.90234375 49.65234375 C-8.89710693 50.65257568 -8.89187012 51.65280762 -8.88647461 52.68334961 C-9 55 -9 55 -10 56 C-12.31 56 -14.62 56 -17 56 C-17 37.85 -17 19.7 -17 1 C-14.36 1 -11.72 1 -9 1 C-9 8.59 -9 16.18 -9 24 C-6.03 24 -3.06 24 0 24 C0 16.08 0 8.16 0 0 Z " fill="#519DD1" transform="translate(142,17)"/>
<path d="M0 0 C2.64 0 5.28 0 8 0 C8 7.59 8 15.18 8 23 C10.97 23 13.94 23 17 23 C17 15.41 17 7.82 17 0 C19.97 0 22.94 0 26 0 C26 18.15 26 36.3 26 55 C23.36 55 20.72 55 18 55 C17 54 17 54 16.88647461 51.68334961 C16.89171143 50.68311768 16.89694824 49.68288574 16.90234375 48.65234375 C16.90556641 47.57275391 16.90878906 46.49316406 16.91210938 45.38085938 C16.92048828 44.24455078 16.92886719 43.10824219 16.9375 41.9375 C16.94201172 40.79732422 16.94652344 39.65714844 16.95117188 38.48242188 C16.96300253 35.65489649 16.9794859 32.8274736 17 30 C14.03 30 11.06 30 8 30 C8 38.25 8 46.5 8 55 C5.36 55 2.72 55 0 55 C0 36.85 0 18.7 0 0 Z " fill="#539FD0" transform="translate(266,18)"/>
<path d="M0 0 C3.72806761 1.66056533 7.01088457 3.42756009 9.21875 6.9375 C10.36517248 9.96405536 10.1230642 12.80033088 10 16 C7.36 16 4.72 16 2 16 C1.690625 15.030625 1.38125 14.06125 1.0625 13.0625 C0.30476658 10.15934208 0.30476658 10.15934208 -1 9 C-3.45809998 8.7499227 -3.45809998 8.7499227 -6 9 C-8.48850674 11.48850674 -8.2461233 12.9621006 -8.27789307 16.35913086 C-8.2738446 17.08624268 -8.26979614 17.81335449 -8.265625 18.5625 C-8.26849518 19.68313843 -8.26849518 19.68313843 -8.27142334 20.82641602 C-8.27278498 22.40674171 -8.26909 23.98707858 -8.26074219 25.56738281 C-8.250042 27.99048922 -8.26063779 30.41285423 -8.2734375 32.8359375 C-8.2721159 34.36979331 -8.2695535 35.90364865 -8.265625 37.4375 C-8.26967346 38.16461182 -8.27372192 38.89172363 -8.27789307 39.64086914 C-8.36731502 43.77469633 -8.36731502 43.77469633 -6 47 C-3.69 47 -1.38 47 1 47 C1.33 42.05 1.66 37.1 2 32 C0.02 32 -1.96 32 -4 32 C-4 29.69 -4 27.38 -4 25 C0.62 25 5.24 25 10 25 C10.08122832 28.37548805 10.14061118 31.74900518 10.1875 35.125 C10.21263672 36.07632813 10.23777344 37.02765625 10.26367188 38.0078125 C10.32029609 43.44373736 10.11882402 47.32915455 7 52 C2.8074235 55.88580261 -0.95739812 56.79103828 -6.5234375 56.59765625 C-10.90033095 55.54140278 -13.39405168 52.52241332 -16 49 C-17.58573616 45.82852767 -17.1841475 42.40573057 -17.203125 38.921875 C-17.20882507 38.11768127 -17.21452515 37.31348755 -17.22039795 36.48492432 C-17.22985301 34.78016476 -17.23638394 33.07538689 -17.24023438 31.37060547 C-17.24991025 28.77408456 -17.28091563 26.1783653 -17.3125 23.58203125 C-17.31903319 21.92448386 -17.32428242 20.26693081 -17.328125 18.609375 C-17.3404718 17.83728699 -17.3528186 17.06519897 -17.36553955 16.26971436 C-17.34581388 11.44619114 -16.64307361 8.18786945 -14 4 C-9.70484649 0.20428294 -5.64575895 -1.23237649 0 0 Z " fill="#0F517A" transform="translate(429,17)"/>
<path d="M0 0 C2.31 0 4.62 0 7 0 C9.28863258 8.73630304 11.34850935 17.4439776 12.9206543 26.33886719 C13.62095999 30.2214655 14.50217932 33.96929462 15.625 37.75 C17.2784089 43.43738035 17.70158146 49.10366135 18 55 C15.69 55 13.38 55 11 55 C10.34 51.04 9.68 47.08 9 43 C5.37 43 1.74 43 -2 43 C-2.66 46.96 -3.32 50.92 -4 55 C-6.64 55 -9.28 55 -12 55 C-11.41809645 49.08615997 -10.56729577 43.39036664 -9.2578125 37.59765625 C-9.08877411 36.8350499 -8.91973572 36.07244354 -8.74557495 35.28672791 C-8.38981952 33.68713768 -8.03173108 32.08806466 -7.67138672 30.48950195 C-7.12739845 28.07315369 -6.5924593 25.65493063 -6.05859375 23.23632812 C-4.3147229 15.39979714 -2.51387153 7.63405399 0 0 Z " fill="#589ED1" transform="translate(195,18)"/>
<path d="M0 0 C7.59 0 15.18 0 23 0 C23 2.31 23 4.62 23 7 C18.05 7 13.1 7 8 7 C8 12.28 8 17.56 8 23 C12.29 23 16.58 23 21 23 C21 25.64 21 28.28 21 31 C16.71 31 12.42 31 8 31 C8 36.28 8 41.56 8 47 C12.95 47 17.9 47 23 47 C23 49.64 23 52.28 23 55 C15.41 55 7.82 55 0 55 C0 36.85 0 18.7 0 0 Z " fill="#539DD1" transform="translate(158,18)"/>
<path d="M0 0 C7.59 0 15.18 0 23 0 C23 2.31 23 4.62 23 7 C18.05 7 13.1 7 8 7 C8 12.28 8 17.56 8 23 C12.29 23 16.58 23 21 23 C21 25.64 21 28.28 21 31 C16.71 31 12.42 31 8 31 C8 36.28 8 41.56 8 47 C12.95 47 17.9 47 23 47 C23 49.31 23 51.62 23 54 C15.41 54 7.82 54 0 54 C0 36.18 0 18.36 0 0 Z " fill="#0B5178" transform="translate(446,18)"/>
<path d="M0 0 C8.91 0 17.82 0 27 0 C27 2.97 27 5.94 27 9 C24.03 9 21.06 9 18 9 C18.00785522 11.08235962 18.00785522 11.08235962 18.01586914 13.20678711 C18.03391346 18.33731445 18.04542992 23.46783897 18.05493164 28.59838867 C18.05997317 30.82267732 18.06680623 33.04696263 18.07543945 35.27124023 C18.08751298 38.46078309 18.09322996 41.65028229 18.09765625 44.83984375 C18.10281754 45.84087631 18.10797882 46.84190887 18.11329651 47.87327576 C18.11340981 49.25459435 18.11340981 49.25459435 18.11352539 50.66381836 C18.115746 51.47878281 18.11796661 52.29374725 18.12025452 53.13340759 C18 55 18 55 17 56 C14.36 56 11.72 56 9 56 C9 40.49 9 24.98 9 9 C6.03 9 3.06 9 0 9 C0 6.03 0 3.06 0 0 Z " fill="#519DD0" transform="translate(236,17)"/>
<path d="M0 0 C2.64 0 5.28 0 8 0 C8 15.84 8 31.68 8 48 C13.28 48 18.56 48 24 48 C24 50.64 24 53.28 24 56 C16.08 56 8.16 56 0 56 C0 37.52 0 19.04 0 0 Z " fill="#5EA2D2" transform="translate(217,17)"/>
<path d="M0 0 C2.97 0 5.94 0 9 0 C9 18.81 9 37.62 9 57 C6.03 57 3.06 57 0 57 C0 38.19 0 19.38 0 0 Z " fill="#074D78" transform="translate(364,17)"/>
<path d="M0 0 C7 0 7 0 8.91259766 1.03930664 C10.57720547 4.04075823 10.42770276 7.02755 10.3984375 10.37109375 C10.40274277 11.44920067 10.40274277 11.44920067 10.40713501 12.54908752 C10.40917476 14.06797067 10.40365101 15.58688013 10.39111328 17.10571289 C10.3750802 19.42589388 10.39095113 21.74432686 10.41015625 24.06445312 C10.40817334 25.5416705 10.40432867 27.01888679 10.3984375 28.49609375 C10.40754654 29.53376137 10.40754654 29.53376137 10.4168396 30.59239197 C10.37447511 33.50748818 10.09195264 35.79121755 8.91259766 38.46899414 C7 40 7 40 0 40 C0 26.8 0 13.6 0 0 Z " fill="#EAF3F7" transform="translate(388,25)"/>
<path d="M0 0 C4.62719438 1.46121928 4.62719438 1.46121928 6.140625 3.6484375 C8.15514069 9.16088499 8.15701859 16.71703098 6.20703125 22.25 C5.1875 23.875 5.1875 23.875 3 26 C2.01 26 1.02 26 0 26 C0.33 25.01 0.66 24.02 1 23 C-1.0745356 22.8509288 -1.0745356 22.8509288 -3 24 C-10.32976445 23.67023555 -10.32976445 23.67023555 -12 22 C-12.07325168 19.13732433 -12.09238205 16.299281 -12.0625 13.4375 C-12.05798828 12.63119141 -12.05347656 11.82488281 -12.04882812 10.99414062 C-12.03700518 8.99606244 -12.01906914 6.99802217 -12 5 C-10.39592672 4.97291433 -8.7917215 4.95356517 -7.1875 4.9375 C-6.29417969 4.92589844 -5.40085937 4.91429687 -4.48046875 4.90234375 C-2 5 -2 5 1 6 C0.67 4.02 0.34 2.04 0 0 Z " fill="#226085" transform="translate(351,20)"/>
<path d="M0 0 C2.97 0 5.94 0 9 0 C9 18.48 9 36.96 9 56 C6.03 56 3.06 56 0 56 C0 47.75 0 39.5 0 31 C0.33 31 0.66 31 1 31 C1 38.59 1 46.18 1 54 C2.98 54 4.96 54 7 54 C7 36.84 7 19.68 7 2 C5.35 2.66 3.7 3.32 2 4 C2 10.93 2 17.86 2 25 C-2.82343326 26.60781109 -5.19588189 27.33517103 -10 27 C-11 26 -11 26 -11.11352539 23.68334961 C-11.10828857 22.68311768 -11.10305176 21.68288574 -11.09765625 20.65234375 C-11.09443359 19.57275391 -11.09121094 18.49316406 -11.08789062 17.38085938 C-11.07951172 16.24455078 -11.07113281 15.10824219 -11.0625 13.9375 C-11.05798828 12.79732422 -11.05347656 11.65714844 -11.04882812 10.48242188 C-11.03699747 7.65489649 -11.0205141 4.8274736 -11 2 C-12.65 2 -14.3 2 -16 2 C-16 19.49 -16 36.98 -16 55 C-14.02 55 -12.04 55 -10 55 C-10 55.33 -10 55.66 -10 56 C-12.31 56 -14.62 56 -17 56 C-17 37.85 -17 19.7 -17 1 C-14.36 1 -11.72 1 -9 1 C-9 8.59 -9 16.18 -9 24 C-6.03 24 -3.06 24 0 24 C0 16.08 0 8.16 0 0 Z " fill="#78ACD0" transform="translate(142,17)"/>
<path d="M0 0 C0.33 0 0.66 0 1 0 C1.33 2.31 1.66 4.62 2 7 C2.33 6.01 2.66 5.02 3 4 C3.66 4 4.32 4 5 4 C5 15.55 5 27.1 5 39 C9.455 38.505 9.455 38.505 14 38 C12.88671875 40.44921875 12.88671875 40.44921875 11 43 C8.08203125 43.70703125 8.08203125 43.70703125 4.8125 43.8125 C3.72582031 43.86019531 2.63914062 43.90789062 1.51953125 43.95703125 C0.27236328 43.97830078 0.27236328 43.97830078 -1 44 C-1.02464513 37.8944529 -1.04283371 31.78893449 -1.05493164 25.68334961 C-1.05997288 23.60456844 -1.06680574 21.52579084 -1.07543945 19.44702148 C-1.08751422 16.46597414 -1.09323024 13.48497351 -1.09765625 10.50390625 C-1.10539818 9.10078941 -1.10539818 9.10078941 -1.11329651 7.66932678 C-1.11337204 6.80850998 -1.11344757 5.94769318 -1.11352539 5.06079102 C-1.115746 4.29912125 -1.11796661 3.53745148 -1.12025452 2.75270081 C-1 1 -1 1 0 0 Z " fill="#034E7B" transform="translate(382,28)"/>
<path d="M0 0 C0.33 0 0.66 0 1 0 C1 7.59 1 15.18 1 23 C3.97 23 6.94 23 10 23 C10 15.41 10 7.82 10 0 C12.97 0 15.94 0 19 0 C19 18.15 19 36.3 19 55 C16.36 55 13.72 55 11 55 C10 54 10 54 9.88647461 51.68334961 C9.89171143 50.68311768 9.89694824 49.68288574 9.90234375 48.65234375 C9.90556641 47.57275391 9.90878906 46.49316406 9.91210938 45.38085938 C9.92048828 44.24455078 9.92886719 43.10824219 9.9375 41.9375 C9.94201172 40.79732422 9.94652344 39.65714844 9.95117188 38.48242188 C9.96300253 35.65489649 9.9794859 32.8274736 10 30 C10.66 30.33 11.32 30.66 12 31 C12 38.26 12 45.52 12 53 C13.65 53 15.3 53 17 53 C16.99214478 52.18269409 16.99214478 52.18269409 16.98413086 51.34887695 C16.84680994 34.5418395 17.32897973 17.7915683 18 1 C16.02 1 14.04 1 12 1 C12 8.92 12 16.84 12 25 C7 26 7 26 -1 25 C-0.67 16.75 -0.34 8.5 0 0 Z " fill="#73ABD2" transform="translate(273,18)"/>
<path d="M0 0 C0.33 0 0.66 0 1 0 C1 4.95 1 9.9 1 15 C1.99 15 2.98 15 4 15 C4 17.31 4 19.62 4 22 C5.98 22 7.96 22 10 22 C10.0810206 24.10353495 10.13919907 26.20795952 10.1875 28.3125 C10.22230469 29.48425781 10.25710938 30.65601563 10.29296875 31.86328125 C10 35 10 35 8.64453125 36.89453125 C6.28900824 38.47793508 4.77585184 38.41637778 2 38 C0.36425781 36.95751953 0.36425781 36.95751953 -1 35 C-1.27375438 32.35358266 -1.37313153 29.94777493 -1.328125 27.3046875 C-1.32625183 26.55663849 -1.32437866 25.80858948 -1.32244873 25.03787231 C-1.31573335 23.45928479 -1.30182892 21.88071376 -1.28125 20.30224609 C-1.25002733 17.87712264 -1.2402724 15.45264849 -1.234375 13.02734375 C-1.2252077 11.49478368 -1.2148328 9.96223026 -1.203125 8.4296875 C-1.19887512 7.70055145 -1.19462524 6.97141541 -1.19024658 6.22018433 C-1.11717465 1.11717465 -1.11717465 1.11717465 0 0 Z " fill="#BBD4DE" transform="translate(421,27)"/>
<path d="M0 0 C8.91 0 17.82 0 27 0 C27 2.97 27 5.94 27 9 C24.03 9 21.06 9 18 9 C18.00785522 11.08235962 18.00785522 11.08235962 18.01586914 13.20678711 C18.03391346 18.33731445 18.04542992 23.46783897 18.05493164 28.59838867 C18.05997317 30.82267732 18.06680623 33.04696263 18.07543945 35.27124023 C18.08751298 38.46078309 18.09322996 41.65028229 18.09765625 44.83984375 C18.10281754 45.84087631 18.10797882 46.84190887 18.11329651 47.87327576 C18.11340981 49.25459435 18.11340981 49.25459435 18.11352539 50.66381836 C18.115746 51.47878281 18.11796661 52.29374725 18.12025452 53.13340759 C18 55 18 55 17 56 C14.36 56 11.72 56 9 56 C9 40.49 9 24.98 9 9 C6.03 9 3.06 9 0 9 C0 6.03 0 3.06 0 0 Z M1 2 C1 3.98 1 5.96 1 8 C3.97 8 6.94 8 10 8 C10 23.51 10 39.02 10 55 C12.31 55 14.62 55 17 55 C17 39.16 17 23.32 17 7 C17.99 6.67 18.98 6.34 20 6 C20 4.68 20 3.36 20 2 C13.73 2 7.46 2 1 2 Z " fill="#90BDDD" transform="translate(236,17)"/>
<path d="M0 0 C2.4103619 3.61554284 3.63760594 7.23196396 5.0625 11.3125 C5.33126953 12.05951172 5.60003906 12.80652344 5.87695312 13.57617188 C7.33057917 17.70504984 8.43804842 21.63620318 9 26 C7.72125 26.061875 6.4425 26.12375 5.125 26.1875 C4.04605469 26.23970703 4.04605469 26.23970703 2.9453125 26.29296875 C2.30335938 26.19628906 1.66140625 26.09960938 1 26 C-0.82560937 23.26158594 -1.49824222 21.65162919 -2.2890625 18.55078125 C-2.50820313 17.70322266 -2.72734375 16.85566406 -2.953125 15.98242188 C-3.17484375 15.10134766 -3.3965625 14.22027344 -3.625 13.3125 C-3.85445313 12.41982422 -4.08390625 11.52714844 -4.3203125 10.60742188 C-4.88533134 8.40620264 -5.44501493 6.20376643 -6 4 C-4.02 3.34 -2.04 2.68 0 2 C0 1.34 0 0.68 0 0 Z " fill="#266086" transform="translate(351,47)"/>
<path d="M0 0 C2.97 0 5.94 0 9 0 C9 0.33 9 0.66 9 1 C6.36 1 3.72 1 1 1 C1.21221191 1.64179199 1.42442383 2.28358398 1.64306641 2.94482422 C3.92936556 10.44661774 4.46878979 17.3108593 4.375 25.125 C4.36919922 26.29973877 4.36339844 27.47447754 4.35742188 28.68481445 C4.21898418 38.03384541 3.15326699 46.91270063 1 56 C3.64 56 6.28 56 9 56 C9 56.33 9 56.66 9 57 C6.03 57 3.06 57 0 57 C0 38.19 0 19.38 0 0 Z " fill="#356D94" transform="translate(364,17)"/>
<path d="M0 0 C1.65 0.33 3.3 0.66 5 1 C5.20413361 6.73842251 5.27141454 11.60539047 3 17 C2.34 17 1.68 17 1 17 C1.020625 18.2375 1.04125 19.475 1.0625 20.75 C1.06766681 23.6640825 0.93015558 26.20953327 0 29 C-0.66 29 -1.32 29 -2 29 C-2 30.65 -2 32.3 -2 34 C-4.66389689 31.33610311 -4.98142077 29.59676491 -5.09765625 25.86328125 C-5.08605469 24.69152344 -5.07445312 23.51976562 -5.0625 22.3125 C-5.05347656 21.13300781 -5.04445312 19.95351563 -5.03515625 18.73828125 C-5.02355469 17.83464844 -5.01195312 16.93101563 -5 16 C-4.34 16 -3.68 16 -3 16 C-2.855625 15.278125 -2.71125 14.55625 -2.5625 13.8125 C-2.21233883 12.06169413 -1.85878148 10.31155971 -1.5 8.5625 C-0.94467179 5.7164429 -0.46589573 2.8619309 0 0 Z " fill="#4E9CD6" transform="translate(196,19)"/>
<path d="M0 0 C2.64 0 5.28 0 8 0 C10 2 10 2 10.1953125 4.8203125 C10.16050781 6.45613281 10.16050781 6.45613281 10.125 8.125 C10.10695313 9.22070312 10.08890625 10.31640625 10.0703125 11.4453125 C10.04710937 12.28835937 10.02390625 13.13140625 10 14 C6.22639456 16.32221873 4.98800589 16 0 16 C0 10.72 0 5.44 0 0 Z " fill="#F3F9FB" transform="translate(340,26)"/>
<path d="M0 0 C6 0 6 0 7.84765625 1.125 C9.4877668 3.79365446 9.43368535 5.88724909 9.4375 9 C9.45683594 10.051875 9.47617187 11.10375 9.49609375 12.1875 C9 15 9 15 7.28515625 16.875 C5 18 5 18 0 18 C0 12.06 0 6.12 0 0 Z " fill="#EAF6F8" transform="translate(307,47)"/>
<path d="M0 0 C1.32 0.33 2.64 0.66 4 1 C4 6.28 4 11.56 4 17 C3.01 17 2.02 17 1 17 C0.67 17.99 0.34 18.98 0 20 C-1.98 20 -3.96 20 -6 20 C-6 19.34 -6 18.68 -6 18 C-6.66 17.67 -7.32 17.34 -8 17 C-7.01 16.34 -6.02 15.68 -5 15 C-4.63469768 11.87442041 -4.63469768 11.87442041 -4.8125 8.375 C-4.85310547 6.59222656 -4.85310547 6.59222656 -4.89453125 4.7734375 C-4.92933594 3.85820313 -4.96414063 2.94296875 -5 2 C-4.34 2 -3.68 2 -3 2 C-3 2.66 -3 3.32 -3 4 C-2.01 4 -1.02 4 0 4 C0 2.68 0 1.36 0 0 Z " fill="#1A5983" transform="translate(320,47)"/>
<path d="M0 0 C0.33 0 0.66 0 1 0 C1 4.62 1 9.24 1 14 C-7.25 14 -15.5 14 -24 14 C-20.74675348 12.37337674 -17.56336027 11.01790963 -14.1875 9.6875 C-5.84428074 6.40134732 -5.84428074 6.40134732 0 0 Z " fill="#165B89" transform="translate(36,30)"/>
<path d="M0 0 C2.31 0 4.62 0 7 0 C9.52017426 2.52017426 9.29730377 3.51499849 9.3125 7 C9.32925781 7.886875 9.34601563 8.77375 9.36328125 9.6875 C9.24339844 10.450625 9.12351562 11.21375 9 12 C6 14 6 14 0 14 C0 9.38 0 4.76 0 0 Z " fill="#F1FAFC" transform="translate(307,26)"/>
<path d="M0 0 C2.97 0 5.94 0 9 0 C9.02578125 0.96421875 9.0515625 1.9284375 9.078125 2.921875 C9.13484375 4.18515625 9.1915625 5.4484375 9.25 6.75 C9.29640625 8.00296875 9.3428125 9.2559375 9.390625 10.546875 C10.07150347 14.40518636 10.98126522 15.60916205 14 18 C12.02 18 10.04 18 8 18 C8 12.39 8 6.78 8 1 C6.02 1 4.04 1 2 1 C2 6.61 2 12.22 2 18 C-3.28 18 -8.56 18 -14 18 C-14 12.39 -14 6.78 -14 1 C-13.67 1 -13.34 1 -13 1 C-13 6.28 -13 11.56 -13 17 C-9.04 17 -5.08 17 -1 17 C-1.01740234 15.41058594 -1.01740234 15.41058594 -1.03515625 13.7890625 C-1.04453476 12.40104342 -1.05363489 11.01302245 -1.0625 9.625 C-1.07087891 8.92632812 -1.07925781 8.22765625 -1.08789062 7.5078125 C-1.11328125 2.2265625 -1.11328125 2.2265625 0 0 Z " fill="#64A3D0" transform="translate(58,26)"/>
<path d="M0 0 C1.3921875 0.8353125 1.3921875 0.8353125 2.8125 1.6875 C9.50378976 5.50915127 16.60688618 8.80204724 24 11 C24 11.33 24 11.66 24 12 C20.93654856 12.10822792 17.8769399 12.18741479 14.8125 12.25 C13.94818359 12.28351562 13.08386719 12.31703125 12.19335938 12.3515625 C8.01872292 12.4155416 5.60491216 12.34217254 1.90625 10.25 C0 8 0 8 -0.48828125 5.859375 C-0.32552083 3.90625 -0.16276042 1.953125 0 0 Z " fill="#0D537E" transform="translate(67,32)"/>
<path d="M0 0 C2.64 0 5.28 0 8 0 C8.3690205 10.55808656 8.3690205 10.55808656 6 15 C4.33388095 15.042721 2.66617115 15.04063832 1 15 C0 14 0 14 -0.09765625 10.83984375 C-0.08025391 8.90818359 -0.08025391 8.90818359 -0.0625 6.9375 C-0.05347656 5.64714844 -0.04445313 4.35679688 -0.03515625 3.02734375 C-0.02355469 2.02832031 -0.01195312 1.02929688 0 0 Z " fill="#F4FBFD" transform="translate(422,50)"/>
<path d="M0 0 C1.32 0.66 2.64 1.32 4 2 C3.96744792 4.01822917 3.93489583 6.03645833 3.90234375 8.0546875 C3.87350758 10.08185404 3.87350758 10.08185404 5 12 C4.66015625 14.1640625 4.66015625 14.1640625 4.0625 16.625 C3.86785156 17.44226563 3.67320312 18.25953125 3.47265625 19.1015625 C3.23869141 20.04128906 3.23869141 20.04128906 3 21 C1.02 21.33 -0.96 21.66 -3 22 C-3.45755719 14.37404682 -1.74536299 7.3970146 0 0 Z " fill="#569CCD" transform="translate(187,50)"/>
<path d="M0 0 C0.66 0 1.32 0 2 0 C2.33 1.32 2.66 2.64 3 4 C2.01 4.495 2.01 4.495 1 5 C1 4.34 1 3.68 1 3 C0.34 3 -0.32 3 -1 3 C-2.13347307 12.37530544 -2.31922545 21.74974718 -2.51757812 31.18359375 C-2.55173828 32.38886719 -2.58589844 33.59414063 -2.62109375 34.8359375 C-2.6461499 35.92438965 -2.67120605 37.0128418 -2.69702148 38.13427734 C-2.99221899 40.92640335 -3.56069044 42.61950653 -5 45 C-5.07440448 39.84052654 -5.12872191 34.68136849 -5.16479492 29.52148438 C-5.17983995 27.76784827 -5.20028104 26.01424953 -5.22631836 24.26074219 C-5.26289121 21.73362991 -5.2797692 19.20701704 -5.29296875 16.6796875 C-5.30845261 15.90132538 -5.32393646 15.12296326 -5.33988953 14.3210144 C-5.34137577 9.46521734 -4.63310301 6.23232999 -2 2 C-1.34 1.34 -0.68 0.68 0 0 Z " fill="#3E7493" transform="translate(417,19)"/>
<path d="M0 0 C2.78388975 1.70625501 3.85384206 2.47626739 4.75 5.6875 C4.87375 6.8321875 4.87375 6.8321875 5 8 C5.66 8 6.32 8 7 8 C7.33 9.98 7.66 11.96 8 14 C6.72125 14.061875 5.4425 14.12375 4.125 14.1875 C3.40570313 14.22230469 2.68640625 14.25710937 1.9453125 14.29296875 C1.30335938 14.19628906 0.66140625 14.09960938 0 14 C-1.90318884 11.14521674 -2.4619099 9.58058692 -3.125 6.3125 C-3.29257812 5.50425781 -3.46015625 4.69601563 -3.6328125 3.86328125 C-3.75398438 3.24839844 -3.87515625 2.63351563 -4 2 C-2.68 2 -1.36 2 0 2 C0 1.34 0 0.68 0 0 Z " fill="#1D5980" transform="translate(352,59)"/>
<path d="M0 0 C1.36948916 3.95630201 0.77791742 5.33249547 0 10 C-5.28 10 -10.56 10 -16 10 C-16 14.95 -16 19.9 -16 25 C-16.33 25 -16.66 25 -17 25 C-17 19.72 -17 14.44 -17 9 C-12.05 9 -7.1 9 -2 9 C-2 6.69 -2 4.38 -2 2 C-9.59 2 -17.18 2 -25 2 C-25 1.67 -25 1.34 -25 1 C-21.77093849 0.83125405 -18.54173589 0.66537263 -15.3125 0.5 C-14.40048828 0.45230469 -13.48847656 0.40460937 -12.54882812 0.35546875 C-11.66259766 0.31035156 -10.77636719 0.26523437 -9.86328125 0.21875 C-9.05157471 0.17685547 -8.23986816 0.13496094 -7.40356445 0.09179688 C-4.93328996 -0.00254779 -2.47182511 -0.01538879 0 0 Z " fill="#CFE8F9" transform="translate(183,16)"/>
<path d="M0 0 C0.66 0 1.32 0 2 0 C2.50377768 2.26999825 3.00290019 4.54103003 3.5 6.8125 C3.7784375 8.07707031 4.056875 9.34164062 4.34375 10.64453125 C5 14 5 14 5 17 C2.69 17 0.38 17 -2 17 C-1.38273804 11.32644329 -0.72054048 5.66138945 0 0 Z " fill="#DFF6FD" transform="translate(197,36)"/>
<path d="M0 0 C5.94 0 11.88 0 18 0 C17.67 2.97 17.34 5.94 17 9 C19.64 9 22.28 9 25 9 C25 9.33 25 9.66 25 10 C14.11 10 3.22 10 -8 10 C-8 9.67 -8 9.34 -8 9 C-0.41 9 7.18 9 15 9 C15 6.36 15 3.72 15 1 C10.05 1 5.1 1 0 1 C0 0.67 0 0.34 0 0 Z " fill="#D4F1FE" transform="translate(166,64)"/>
<path d="M0 0 C0.99 0.495 0.99 0.495 2 1 C2 6.28 2 11.56 2 17 C3.32 17 4.64 17 6 17 C6 16.34 6 15.68 6 15 C5.01 15 4.02 15 3 15 C3 14.34 3 13.68 3 13 C3.99 13 4.98 13 6 13 C6 8.71 6 4.42 6 0 C6.33 0 6.66 0 7 0 C7 6.27 7 12.54 7 19 C4.69 19 2.38 19 0 19 C0 12.73 0 6.46 0 0 Z " fill="#DBF5FD" transform="translate(37,51)"/>
<path d="M0 0 C0.33 0 0.66 0 1 0 C1 5.61 1 11.22 1 17 C8.92 17 16.84 17 25 17 C25 17.33 25 17.66 25 18 C13.45 18 1.9 18 -10 18 C-10 17.67 -10 17.34 -10 17 C-7.69 17 -5.38 17 -3 17 C-3.33 14.03 -3.66 11.06 -4 8 C-3.34 8 -2.68 8 -2 8 C-1.01879536 11.05263664 -1.01879536 12.94736336 -2 16 C-1.34 16 -0.68 16 0 16 C0 10.72 0 5.44 0 0 Z " fill="#DFF5FC" transform="translate(216,56)"/>
<path d="M0 0 C0.33 0 0.66 0 1 0 C1.68053855 3.33063575 2.34251139 6.66473959 3 10 C3.12842285 10.64791504 3.2568457 11.29583008 3.38916016 11.96337891 C3.80630125 14.07877415 4.21629112 16.19546079 4.625 18.3125 C4.76010986 18.99376953 4.89521973 19.67503906 5.03442383 20.37695312 C5.72067627 23.96753184 6.15559476 27.34352314 6 31 C3.69 31 1.38 31 -1 31 C-1.625 28.625 -1.625 28.625 -2 26 C-1.34 25.34 -0.68 24.68 0 24 C0 25.65 0 27.3 0 29 C1.32 29 2.64 29 4 29 C3.81535634 24.65815798 3.81535634 24.65815798 2 21 C1.79231771 19.52603261 1.63283983 18.0450874 1.5 16.5625 C1.20853056 13.15502495 1.20853056 13.15502495 0 10 C-0.06996014 8.29297265 -0.08440154 6.58331997 -0.0625 4.875 C-0.05347656 3.96492188 -0.04445312 3.05484375 -0.03515625 2.1171875 C-0.02355469 1.41851562 -0.01195312 0.71984375 0 0 Z " fill="#76ACD1" transform="translate(207,42)"/>
<path d="M0 0 C2.31 0 4.62 0 7 0 C7 2.31 7 4.62 7 7 C2.71 7 -1.58 7 -6 7 C-6 12.28 -6 17.56 -6 23 C-6.33 23 -6.66 23 -7 23 C-7 17.06 -7 11.12 -7 5 C-3.37 5 0.26 5 4 5 C4 3.68 4 2.36 4 1 C2.68 0.67 1.36 0.34 0 0 Z " fill="#2F6985" transform="translate(460,42)"/>
<path d="M0 0 C8.25 0 16.5 0 25 0 C26 7 26 7 26 9 C19.96496237 10.50875941 14.10261631 9.64186094 8 9 C8 8.67 8 8.34 8 8 C12.95 8 17.9 8 23 8 C23 5.69 23 3.38 23 1 C15.41 1 7.82 1 0 1 C0 0.67 0 0.34 0 0 Z " fill="#B8D0E1" transform="translate(446,17)"/>
<path d="M0 0 C6.93 0 13.86 0 21 0 C17.25 9.75 17.25 9.75 15 12 C15 10.68 15 9.36 15 8 C15.66 8 16.32 8 17 8 C17.33 5.69 17.66 3.38 18 1 C12.72 1 7.44 1 2 1 C1.67 6.28 1.34 11.56 1 17 C0.67 17 0.34 17 0 17 C0 11.39 0 5.78 0 0 Z " fill="#609CC4" transform="translate(67,51)"/>
<path d="M0 0 C1.32 0.66 2.64 1.32 4 2 C4 2.66 4 3.32 4 4 C3.34 4 2.68 4 2 4 C2 4.66 2 5.32 2 6 C1.34 6 0.68 6 0 6 C0 9.96 0 13.92 0 18 C-0.66 18 -1.32 18 -2 18 C-2.06058594 17.28972656 -2.12117188 16.57945313 -2.18359375 15.84765625 C-2.26738281 14.92855469 -2.35117187 14.00945313 -2.4375 13.0625 C-2.51871094 12.14597656 -2.59992188 11.22945312 -2.68359375 10.28515625 C-2.76044976 8.03840268 -2.76044976 8.03840268 -4 7 C-6.32817964 6.63239269 -8.6618385 6.29758419 -11 6 C-11 5.67 -11 5.34 -11 5 C-9.1128125 4.87625 -9.1128125 4.87625 -7.1875 4.75 C-3.66188788 4.33442857 -3.66188788 4.33442857 -1 1.9375 C-0.67 1.298125 -0.34 0.65875 0 0 Z " fill="#3A6E8E" transform="translate(318,20)"/>
<path d="M0 0 C2.31 0 4.62 0 7 0 C7 0.66 7 1.32 7 2 C5.35 2 3.7 2 2 2 C1.67 7.61 1.34 13.22 1 19 C-7.58 19 -16.16 19 -25 19 C-25 18.67 -25 18.34 -25 18 C-16.75 18 -8.5 18 0 18 C0 12.06 0 6.12 0 0 Z " fill="#DAF0FC" transform="translate(37,26)"/>
<path d="M0 0 C7.59 0 15.18 0 23 0 C23 2.31 23 4.62 23 7 C18.05 7 13.1 7 8 7 C8 6.67 8 6.34 8 6 C8.60328125 5.96261719 9.2065625 5.92523437 9.828125 5.88671875 C10.62734375 5.82097656 11.4265625 5.75523438 12.25 5.6875 C13.43335938 5.60048828 13.43335938 5.60048828 14.640625 5.51171875 C17.49250139 5.06479016 17.49250139 5.06479016 21 2 C14.4 1.67 7.8 1.34 1 1 C1 2.65 1 4.3 1 6 C0.67 6 0.34 6 0 6 C0 4.02 0 2.04 0 0 Z " fill="#639CC5" transform="translate(158,18)"/>
<path d="M0 0 C2.31 0 4.62 0 7 0 C9.27678571 8.03571429 9.27678571 8.03571429 8 12 C7.82984375 11.28972656 7.6596875 10.57945313 7.484375 9.84765625 C7.24203125 8.92855469 6.9996875 8.00945313 6.75 7.0625 C6.51796875 6.14597656 6.2859375 5.22945312 6.046875 4.28515625 C5.23367434 1.80848559 5.23367434 1.80848559 2.890625 1.18359375 C2.26671875 1.12300781 1.6428125 1.06242187 1 1 C1.02320313 1.69867187 1.04640625 2.39734375 1.0703125 3.1171875 C1.08835938 4.02726562 1.10640625 4.93734375 1.125 5.875 C1.14820313 6.77992187 1.17140625 7.68484375 1.1953125 8.6171875 C1 11 1 11 -1 13 C-1.6425235 15.06874034 -1.6425235 15.06874034 -2 17 C-2.66 17 -3.32 17 -4 17 C-2.91103333 11.24237834 -1.70663707 5.60752181 0 0 Z " fill="#69A2CC" transform="translate(195,18)"/>
<path d="M0 0 C0.33 0 0.66 0 1 0 C1.06058594 0.83144531 1.12117187 1.66289063 1.18359375 2.51953125 C1.26738281 3.60621094 1.35117188 4.69289063 1.4375 5.8125 C1.55931641 7.43091797 1.55931641 7.43091797 1.68359375 9.08203125 C1.90212461 12.05989905 1.90212461 12.05989905 3 15 C3.66 14.01 4.32 13.02 5 12 C5 13.65 5 15.3 5 17 C7.31 17 9.62 17 12 17 C12 17.33 12 17.66 12 18 C4.25 19.125 4.25 19.125 2 18 C2 17.34 2 16.68 2 16 C0.68 15.34 -0.64 14.68 -2 14 C-1.03644647 4.58997722 -1.03644647 4.58997722 0 0 Z " fill="#6CA6D2" transform="translate(190,36)"/>
<path d="M0 0 C3.96 0 7.92 0 12 0 C12 2.64 12 5.28 12 8 C7.71 8 3.42 8 -1 8 C-1 7.34 -1 6.68 -1 6 C2.96 6 6.92 6 11 6 C10.34 4.35 9.68 2.7 9 1 C6.03 1 3.06 1 0 1 C0 0.67 0 0.34 0 0 Z " fill="#6DA1C6" transform="translate(167,41)"/>
<path d="M0 0 C0.99 0 1.98 0 3 0 C3 2.31 3 4.62 3 7 C4.98 7 6.96 7 9 7 C9.05386629 9.12472576 9.09273071 11.24983652 9.125 13.375 C9.14820313 14.55835938 9.17140625 15.74171875 9.1953125 16.9609375 C9 20 9 20 7 22 C6.67 21.01 6.34 20.02 6 19 C6.33 18.67 6.66 18.34 7 18 C7.23287008 16.31816052 7.41264166 14.6287584 7.5625 12.9375 C7.64628906 12.01839844 7.73007812 11.09929688 7.81640625 10.15234375 C7.87699219 9.44207031 7.93757813 8.73179688 8 8 C5.36 8 2.72 8 0 8 C0 5.36 0 2.72 0 0 Z " fill="#D9EAF3" transform="translate(422,42)"/>
<path d="M0 0 C0.33 1.32 0.66 2.64 1 4 C-0.21478851 5.18163051 -1.44752408 6.34482835 -2.6875 7.5 C-3.37199219 8.1496875 -4.05648437 8.799375 -4.76171875 9.46875 C-7.40656372 11.27813784 -8.86162389 11.3077917 -12 11 C-9.72403696 8.66678003 -7.33714502 6.5100704 -4.875 4.375 C-2.38509932 2.24398756 -2.38509932 2.24398756 0 0 Z " fill="#E1F5FB" transform="translate(75,72)"/>
<path d="M0 0 C4.29 0 8.58 0 13 0 C12.67 0.66 12.34 1.32 12 2 C9.03 2 6.06 2 3 2 C2.34 6.29 1.68 10.58 1 15 C0.67 15 0.34 15 0 15 C0 10.05 0 5.1 0 0 Z " fill="#E9FBFE" transform="translate(166,49)"/>
<path d="M0 0 C2.475 0.495 2.475 0.495 5 1 C5.33 2.98 5.66 4.96 6 7 C4.35 5.35 2.7 3.7 1 2 C1 8.93 1 15.86 1 23 C0.67 23 0.34 23 0 23 C0 15.41 0 7.82 0 0 Z " fill="#F1FFFF" transform="translate(340,49)"/>
<path d="M0 0 C0.66 0 1.32 0 2 0 C2.14285714 8.57142857 2.14285714 8.57142857 1 12 C0.34 12 -0.32 12 -1 12 C-1 13.65 -1 15.3 -1 17 C-1.66 16.34 -2.32 15.68 -3 15 C-2.625 11.375 -2.625 11.375 -2 8 C-1.34 8 -0.68 8 0 8 C0 5.36 0 2.72 0 0 Z " fill="#5E9ECC" transform="translate(195,36)"/>
<path d="M0 0 C0.66 0 1.32 0 2 0 C0.6118265 3.12857014 -1.01101878 5.28189174 -3.4375 7.6875 C-4.03433594 8.28949219 -4.63117188 8.89148438 -5.24609375 9.51171875 C-7 11 -7 11 -10 12 C-9.49396008 9.83125748 -9.00016187 8.00032373 -8 6 C-6.68 6 -5.36 6 -4 6 C-4 5.01 -4 4.02 -4 3 C-2.68 2.67 -1.36 2.34 0 2 C0 1.34 0 0.68 0 0 Z " fill="#64A2CD" transform="translate(75,69)"/>
<path d="M0 0 C2.31 0 4.62 0 7 0 C7.02578125 0.96421875 7.0515625 1.9284375 7.078125 2.921875 C7.13484375 4.18515625 7.1915625 5.4484375 7.25 6.75 C7.29640625 8.00296875 7.3428125 9.2559375 7.390625 10.546875 C8.07150347 14.40518636 8.98126522 15.60916205 12 18 C10.02 18 8.04 18 6 18 C6 12.39 6 6.78 6 1 C4.02 1 2.04 1 0 1 C0 0.67 0 0.34 0 0 Z " fill="#85B7D7" transform="translate(60,26)"/>
<path d="M0 0 C4.95 0 9.9 0 15 0 C15 2.31 15 4.62 15 7 C14.67 7 14.34 7 14 7 C14 5.35 14 3.7 14 2 C12.73542969 2.12568359 12.73542969 2.12568359 11.4453125 2.25390625 C10.34960938 2.35574219 9.25390625 2.45757812 8.125 2.5625 C7.03445312 2.66691406 5.94390625 2.77132812 4.8203125 2.87890625 C2 3 2 3 0 2 C0 1.34 0 0.68 0 0 Z " fill="#5A9DC6" transform="translate(226,65)"/>
<path d="M0 0 C1.4540625 0.0309375 1.4540625 0.0309375 2.9375 0.0625 C2.6075 1.7125 2.2775 3.3625 1.9375 5.0625 C-0.0425 5.3925 -2.0225 5.7225 -4.0625 6.0625 C-4.105221 4.39638095 -4.10313832 2.72867115 -4.0625 1.0625 C-3.0625 0.0625 -3.0625 0.0625 0 0 Z " fill="#054F70" transform="translate(430.0625,42.9375)"/>
<path d="M0 0 C0.33 0 0.66 0 1 0 C1.36368892 1.60203467 1.71561952 3.20674203 2.0625 4.8125 C2.25972656 5.70582031 2.45695313 6.59914063 2.66015625 7.51953125 C3 10 3 10 2 13 C1.34 13 0.68 13 0 13 C-0.33 13.99 -0.66 14.98 -1 16 C-1.02725341 14.2709226 -1.04650987 12.54171824 -1.0625 10.8125 C-1.07410156 9.84957031 -1.08570313 8.88664062 -1.09765625 7.89453125 C-1.00486622 5.14423487 -0.62111685 2.67520409 0 0 Z " fill="#6CA9DC" transform="translate(13,27)"/>
<path d="M0 0 C3.63 0 7.26 0 11 0 C11.66 3.63 12.32 7.26 13 11 C12.01 10.67 11.02 10.34 10 10 C9.67 7.69 9.34 5.38 9 3 C4.545 2.01 4.545 2.01 0 1 C0 0.67 0 0.34 0 0 Z " fill="#D2EFFB" transform="translate(193,61)"/>
<path d="M0 0 C2.31 1.98 4.62 3.96 7 6 C3 7 3 7 0.75 6.0625 C0.1725 5.711875 -0.405 5.36125 -1 5 C-1 1 -1 1 0 0 Z " fill="#E9F9FC" transform="translate(26,73)"/>
<path d="M0 0 C2.1519437 3.22791555 2.20086443 4.28400809 2 8 C-0.31 8 -2.62 8 -5 8 C-5.625 5.625 -5.625 5.625 -6 3 C-5.34 2.34 -4.68 1.68 -4 1 C-4 2.65 -4 4.3 -4 6 C-2.68 6 -1.36 6 0 6 C0 4.02 0 2.04 0 0 Z " fill="#6EA5CB" transform="translate(211,65)"/>
<path d="M0 0 C0.33 0 0.66 0 1 0 C1.08117951 2.41734542 1.14056926 4.83194949 1.1875 7.25 C1.22520508 8.27287109 1.22520508 8.27287109 1.26367188 9.31640625 C1.31137459 12.59199289 1.21085076 14.65348556 -0.51171875 17.484375 C-1.00285156 17.98453125 -1.49398438 18.4846875 -2 19 C-2.99 18.67 -3.98 18.34 -5 18 C-4.360625 17.2575 -3.72125 16.515 -3.0625 15.75 C0.12829467 11.08219437 -0.17712346 5.47311493 0 0 Z " fill="#C3D9E3" transform="translate(358,28)"/>
<path d="M0 0 C2.31 0 4.62 0 7 0 C7 0.66 7 1.32 7 2 C5.35 2 3.7 2 2 2 C1.67 5.63 1.34 9.26 1 13 C0.67 13 0.34 13 0 13 C0 8.71 0 4.42 0 0 Z " fill="#C6E7F7" transform="translate(37,26)"/>
<path d="M0 0 C0.33 0 0.66 0 1 0 C0.40984815 5.50808397 -0.56663769 10.64878069 -2 16 C-2.33 16 -2.66 16 -3 16 C-2.88590318 13.89521396 -2.75834639 11.79115423 -2.625 9.6875 C-2.55539063 8.51574219 -2.48578125 7.34398437 -2.4140625 6.13671875 C-2 3 -2 3 0 0 Z " fill="#E0F8FE" transform="translate(193,20)"/>
<path d="M0 0 C4.29 0 8.58 0 13 0 C12.67 1.32 12.34 2.64 12 4 C10.68 3.67 9.36 3.34 8 3 C8 2.34 8 1.68 8 1 C5.36 1 2.72 1 0 1 C0 0.67 0 0.34 0 0 Z " fill="#5795BF" transform="translate(168,65)"/>
<path d="M0 0 C1.98 0 3.96 0 6 0 C6.05386629 2.12472576 6.09273071 4.24983652 6.125 6.375 C6.14820313 7.55835938 6.17140625 8.74171875 6.1953125 9.9609375 C6 13 6 13 4 15 C3.67 14.01 3.34 13.02 3 12 C3.33 11.67 3.66 11.34 4 11 C4.23287008 9.31816052 4.41264166 7.6287584 4.5625 5.9375 C4.64628906 5.01839844 4.73007812 4.09929688 4.81640625 3.15234375 C4.87699219 2.44207031 4.93757813 1.73179688 5 1 C3.35 1 1.7 1 0 1 C0 0.67 0 0.34 0 0 Z " fill="#C6E4EC" transform="translate(425,49)"/>
<path d="M0 0 C0.99 0 1.98 0 3 0 C3.33 1.98 3.66 3.96 4 6 C2.02 6.99 2.02 6.99 0 8 C-0.98120464 4.94736336 -0.98120464 3.05263664 0 0 Z " fill="#5DA3D2" transform="translate(185,60)"/>
<path d="M0 0 C2 2 2 2 2.1953125 3.9453125 C2.13020833 5.96354167 2.06510417 7.98177083 2 10 C1.34 9.67 0.68 9.34 0 9 C-0.44921875 7.1875 -0.44921875 7.1875 -0.6875 5 C-0.77386719 4.278125 -0.86023438 3.55625 -0.94921875 2.8125 C-0.96597656 2.214375 -0.98273438 1.61625 -1 1 C-0.67 0.67 -0.34 0.34 0 0 Z " fill="#E9FBFE" transform="translate(206,29)"/>
<path d="M0 0 C-1.5 1.5625 -1.5 1.5625 -4 3 C-6.77437543 2.96823234 -9.25286467 2.50364148 -12 2 C-12 1.67 -12 1.34 -12 1 C-3.96428571 -1.27678571 -3.96428571 -1.27678571 0 0 Z " fill="#2B6689" transform="translate(352,41)"/>
<path d="M0 0 C2.64 0 5.28 0 8 0 C8 0.99 8 1.98 8 3 C5.03 2.67 2.06 2.34 -1 2 C-0.67 1.34 -0.34 0.68 0 0 Z " fill="#42718D" transform="translate(421,17)"/>
<path d="M0 0 C0.33 1.32 0.66 2.64 1 4 C-3.625 7 -3.625 7 -7 7 C-4.69 4.69 -2.38 2.38 0 0 Z " fill="#CCEDFB" transform="translate(75,72)"/>
<path d="M0 0 C2.475 0.495 2.475 0.495 5 1 C5.33 2.98 5.66 4.96 6 7 C5.566875 6.34 5.13375 5.68 4.6875 5 C3.8521875 4.01 3.8521875 4.01 3 3 C2.01 3 1.02 3 0 3 C0 2.01 0 1.02 0 0 Z " fill="#BDDEEC" transform="translate(340,49)"/>
<path d="M0 0 C1.32 0 2.64 0 4 0 C4 1.65 4 3.3 4 5 C3.01 5 2.02 5 1 5 C0.67 3.35 0.34 1.7 0 0 Z " fill="#034E7F" transform="translate(433,43)"/>
<path d="M0 0 C0.33 0.99 0.66 1.98 1 3 C1.66 3 2.32 3 3 3 C3 3.99 3 4.98 3 6 C1.68 6 0.36 6 -1 6 C-1.042721 4.33388095 -1.04063832 2.66617115 -1 1 C-0.67 0.67 -0.34 0.34 0 0 Z " fill="#124B6E" transform="translate(427,43)"/>
<path d="M0 0 C0.66 1.32 1.32 2.64 2 4 C-1.57644848 5.2380014 -4.33694766 4.74926071 -8 4 C-8 3.67 -8 3.34 -8 3 C-5.36 3 -2.72 3 0 3 C0 2.01 0 1.02 0 0 Z " fill="#B9D0E2" transform="translate(439,30)"/>
</svg>
