<?xml version="1.0" encoding="UTF-8"?>
<svg version="1.1" xmlns="http://www.w3.org/2000/svg" width="1920" height="1920">
<path d="M0 0 C633.6 0 1267.2 0 1920 0 C1920 633.6 1920 1267.2 1920 1920 C1286.4 1920 652.8 1920 0 1920 C0 1286.4 0 652.8 0 0 Z " fill="#FEFEFE" transform="translate(0,0)"/>
<path d="M0 0 C0.82918945 0.01184326 1.65837891 0.02368652 2.51269531 0.03588867 C11.14175367 0.34923896 19.01337367 2.6449958 27.0625 5.625 C27.69220703 5.85493652 28.32191406 6.08487305 28.97070312 6.32177734 C32.60810924 7.66623401 36.20239508 9.09216722 39.7890625 10.56640625 C46.5946976 13.30348342 53.60226589 15.38406292 60.609375 17.53710938 C66.92384459 19.51330449 72.99637082 21.77776847 79.07958984 24.37768555 C84.04913118 26.45571687 89.11493191 28.2541036 94.1875 30.0625 C95.66863281 30.59713867 95.66863281 30.59713867 97.1796875 31.14257812 C102.50176698 33.05055713 107.84097792 34.88871809 113.21308899 36.64979553 C125.92878987 40.82504161 138.43768403 45.5325364 150.96459961 50.23876953 C162.55696122 54.58841897 174.15839049 58.70560257 185.99047852 62.35546875 C190.90614721 63.87410889 195.74150169 65.57985279 200.5625 67.375 C201.90562256 67.86806641 201.90562256 67.86806641 203.27587891 68.37109375 C208.39673076 70.25454499 213.50744417 72.16477839 218.6171875 74.078125 C229.15186725 78.01581191 239.67974883 81.89360369 250.375 85.375 C261.88101801 89.12178609 273.20278485 93.32903896 284.54177856 97.54733276 C297.35463825 102.31013347 310.21288553 106.8353661 323.23535156 110.99926758 C325.0625 111.625 325.0625 111.625 327.0625 112.625 C327.0625 113.285 327.0625 113.945 327.0625 114.625 C315.07129706 119.22702923 302.94507042 123.35424447 290.75 127.375 C275.56045616 132.38780791 260.54074871 137.75206351 245.54931641 143.33007812 C239.89511528 145.42991588 234.23151663 147.5030374 228.5625 149.5625 C227.60255127 149.91594482 226.64260254 150.26938965 225.65356445 150.63354492 C220.78537748 152.3986804 215.92858183 153.95988945 210.9296875 155.3125 C199.64368738 158.47094169 188.69447376 162.68431666 177.6875 166.6875 C175.41030764 167.51148621 173.13296492 168.33505701 170.85546875 169.15820312 C159.68108657 173.19213048 159.68108657 173.19213048 148.54052734 177.31811523 C143.8061134 179.09709304 139.03753496 180.63558423 134.1875 182.0625 C130.49630528 183.1649222 126.88536432 184.36220791 123.296875 185.76171875 C121.60832795 186.41411193 119.908178 187.03658202 118.203125 187.64453125 C89.81799517 197.99471884 69.21830499 216.07835524 56.125 243.4375 C49.78290982 258.48879853 48.75162695 274.50149157 48.82299805 290.65332031 C48.82188084 292.0746165 48.81981632 293.49591219 48.81689453 294.91720581 C48.81222769 297.94099793 48.81323323 300.96471196 48.81867027 303.9885025 C48.82637673 308.78183942 48.81551945 313.57503097 48.8014679 318.36834717 C48.76399356 331.98580617 48.74554715 345.60319465 48.75708008 359.22070312 C48.76331539 366.76985222 48.75163117 374.31876173 48.72063476 381.86785197 C48.70210776 386.62156871 48.70517289 391.37459972 48.72480237 396.128304 C48.73173384 399.09427744 48.71763261 402.05988693 48.69785309 405.02579117 C48.69048761 407.03198297 48.7076427 409.0382193 48.72584534 411.04434204 C48.61408681 422.05904864 45.83247748 431.75635548 38.0859375 439.875 C31.0343508 445.97366958 23.16437555 449.92097986 13.75 449.875 C12.70199219 449.88015625 11.65398437 449.8853125 10.57421875 449.890625 C2.18174177 449.2558214 -4.33586865 446.76495447 -11.6875 442.75 C-12.58927979 442.26821289 -13.49105957 441.78642578 -14.42016602 441.29003906 C-21.8748546 437.27821151 -29.21629617 433.07097758 -36.54296875 428.83105469 C-42.43301069 425.43585355 -48.39024085 422.36073973 -54.50390625 419.38671875 C-58.47788651 417.34773684 -62.29420955 415.10598272 -66.125 412.8125 C-72.71349318 408.87381572 -79.39845867 405.20514523 -86.20654297 401.66137695 C-100.19120975 394.38197654 -114.17387866 387.03791803 -127.8125 379.125 C-131.61400911 376.92169521 -135.42209452 374.85491219 -139.375 372.9375 C-145.15611265 370.10391916 -150.72328 366.94336245 -156.3125 363.75 C-165.58193261 358.45836438 -174.94533144 353.37280789 -184.375 348.375 C-192.79110739 343.91408533 -201.18240734 339.42951649 -209.45458984 334.70507812 C-214.24536915 331.98083319 -219.11113765 329.41831268 -224 326.875 C-231.04403145 323.20617394 -237.97703801 319.37367223 -244.875 315.4375 C-254.03009227 310.21586729 -263.28007912 305.19260338 -272.5854187 300.24481201 C-282.27465125 295.09019437 -291.87734802 289.79403656 -301.41748047 284.36743164 C-306.27183965 281.61911115 -311.15000133 278.98993027 -316.15234375 276.51953125 C-320.90972395 274.17009838 -325.47113837 271.63363933 -330 268.875 C-337.41210941 264.44362043 -344.9745344 260.38474846 -352.6328125 256.3984375 C-366.90331123 248.96463068 -381.11428283 241.37875013 -395.02734375 233.29296875 C-397.96573868 231.60881488 -400.94348968 230.02021917 -403.9375 228.4375 C-412.50153732 223.74677177 -416.83354573 218.93686282 -419.9375 209.625 C-420.03092596 207.10361121 -420.06786125 204.61033729 -420.05775452 202.08906555 C-420.05860894 201.31471088 -420.05946337 200.54035621 -420.06034368 199.74253625 C-420.06199478 197.13993901 -420.05648314 194.53740579 -420.05102539 191.93481445 C-420.05074341 190.07232668 -420.05090146 188.20983879 -420.0514679 186.34735107 C-420.05175546 181.28363094 -420.04586534 176.21993437 -420.03889394 171.15621972 C-420.03265358 165.8671024 -420.03205606 160.57798457 -420.03086853 155.28886414 C-420.02775723 145.26978167 -420.01954655 135.25071008 -420.00951904 125.23163241 C-419.99835166 113.8267027 -419.99284587 102.42177248 -419.98782361 91.01683867 C-419.97736378 67.55288641 -419.95976822 44.08894381 -419.9375 20.625 C-418.81844224 21.57784794 -417.7002841 22.53175249 -416.58250427 23.48609924 C-415.95973319 24.01719079 -415.33696211 24.54828234 -414.69531918 25.09546757 C-412.56909948 26.94555661 -410.5730836 28.89253207 -408.59765625 30.90234375 C-407.84419922 31.66353516 -407.09074219 32.42472656 -406.31445312 33.20898438 C-404.77535767 34.77405613 -403.236295 36.33916013 -401.69726562 37.90429688 C-397.53141367 42.11283903 -393.29782205 46.15059949 -388.80639648 50.01000977 C-385.41117044 52.94396408 -382.15217292 56.02577887 -378.87109375 59.0859375 C-375.96145868 61.78825213 -373.01774318 64.43901822 -370.01953125 67.04296875 C-365.96071453 70.57781678 -362.03510249 74.2396933 -358.125 77.9375 C-351.7891737 83.90201741 -345.41624434 89.81537188 -338.9375 95.625 C-338.23367188 96.25792969 -337.52984375 96.89085937 -336.8046875 97.54296875 C-334.86916396 99.26216907 -332.90918321 100.9474792 -330.9375 102.625 C-329.9475 103.50285156 -329.9475 103.50285156 -328.9375 104.3984375 C-314.83422677 116.27214915 -297.78867603 118.98842316 -279.9375 117.625 C-271.90416477 116.49216007 -264.48485315 113.78485625 -257.390625 109.90209961 C-255.17147522 108.74680776 -253.00020491 107.8161678 -250.6640625 106.9296875 C-243.19195655 103.98798948 -235.92514846 100.58964774 -228.625 97.25 C-227.19084821 96.59615015 -225.75660388 95.94250321 -224.32226562 95.2890625 C-216.76257121 91.8424275 -209.21422369 88.372937 -201.68286133 84.86474609 C-199.1248485 83.70960255 -196.5429407 82.66717628 -193.9375 81.625 C-192.00237281 80.75153604 -190.07314411 79.86494249 -188.1484375 78.96875 C-187.00342773 78.43765625 -185.85841797 77.9065625 -184.67871094 77.359375 C-184.07039429 77.07707031 -183.46207764 76.79476562 -182.83532715 76.50390625 C-177.45964903 74.01436599 -172.07107525 71.55284442 -166.68164062 69.09326172 C-165.27184185 68.44910712 -163.86265825 67.8036044 -162.45410156 67.15673828 C-153.77692802 63.17281536 -145.06647631 59.39396859 -136.1652832 55.9362793 C-132.20832766 54.32877546 -128.45702679 52.42851925 -124.66015625 50.48046875 C-119.31239482 47.77918369 -113.87129923 45.27216068 -108.4375 42.75 C-107.37345947 42.24895752 -106.30941895 41.74791504 -105.21313477 41.23168945 C-104.20436279 40.76593506 -103.19559082 40.30018066 -102.15625 39.8203125 C-100.7940332 39.18633545 -100.7940332 39.18633545 -99.40429688 38.53955078 C-96.9375 37.625 -96.9375 37.625 -92.9375 37.625 C-92.9375 36.965 -92.9375 36.305 -92.9375 35.625 C-92.35121826 35.3986084 -91.76493652 35.1722168 -91.16088867 34.93896484 C-84.40182338 32.28723479 -77.8259143 29.3241146 -71.25 26.25 C-68.95737635 25.18805673 -66.6643913 24.12689342 -64.37109375 23.06640625 C-63.1560497 22.50415013 -61.94104387 21.94181141 -60.72607422 21.37939453 C-59.79852325 20.95004608 -59.79852325 20.95004608 -58.85223389 20.51202393 C-56.88941218 19.60272273 -54.9273781 18.69173517 -52.96533203 17.78076172 C-49.58080117 16.21078639 -46.19122343 14.65211789 -42.79867554 13.09954834 C-41.50068142 12.50351171 -40.20423799 11.90408336 -38.90957642 11.30084229 C-26.7772052 5.65165286 -13.64141492 -0.41297822 0 0 Z " fill="#231F20" transform="translate(990.9375,816.375)"/>
<path d="M0 0 C9.64616416 6.27354442 17.67271914 14.70698433 21.14501953 25.89550781 C22.15662576 33.87880351 22.29058696 41.88552848 22.2787323 49.92134094 C22.28099786 51.07004974 22.28326341 52.21875854 22.28559762 53.40227669 C22.29188416 57.21814611 22.29111174 61.03397952 22.2902832 64.84985352 C22.29273693 67.59885287 22.29665316 70.34784977 22.30046082 73.09684753 C22.30872955 79.76714427 22.31151385 86.43743215 22.31207319 93.10773358 C22.31254974 98.52929932 22.31461137 103.95086217 22.31777382 109.37242699 C22.32656669 124.76057898 22.33119483 140.14872404 22.33044335 155.53687856 C22.33038341 156.77848085 22.33038341 156.77848085 22.33032227 158.04516602 C22.33028138 158.87391596 22.3302405 159.70266591 22.33019838 160.55652948 C22.32979133 174.00789118 22.33937934 187.45922497 22.35346063 200.91057859 C22.36782205 214.73895603 22.37473108 228.56731984 22.37386686 242.39570493 C22.37353502 250.15292269 22.37627699 257.91011112 22.38704491 265.66732216 C22.39614635 272.26579384 22.39832774 278.86422284 22.39153548 285.46269808 C22.38826971 288.82766498 22.38930203 292.19248311 22.39688873 295.55745316 C22.40458418 299.20657327 22.39998003 302.85547757 22.39225769 306.5045929 C22.39740125 307.56548309 22.40254482 308.62637329 22.40784425 309.71941167 C22.3630954 319.27372655 20.52537651 326.51659903 14.14501953 333.89550781 C5.7707076 340.89550781 5.7707076 340.89550781 2.14501953 340.89550781 C1.81501953 341.88550781 1.48501953 342.87550781 1.14501953 343.89550781 C-3.74573569 346.34088542 -11.16330723 345.64319482 -16.31591797 344.21191406 C-21.84194239 341.66062693 -25.520666 337.96697625 -27.96850586 332.33227539 C-29.14490316 327.77150842 -29.15272195 323.47354701 -29.16357422 318.78222656 C-29.18873725 316.7919893 -29.21413523 314.80175499 -29.23974609 312.81152344 C-29.26843194 309.69800608 -29.29247121 306.58454011 -29.3112793 303.47094727 C-29.33306499 300.44943892 -29.37251379 297.42852579 -29.41357422 294.40722656 C-29.41374794 293.0286573 -29.41374794 293.0286573 -29.41392517 291.62223816 C-29.57778129 280.80123967 -33.32406979 270.83349475 -40.85498047 262.89550781 C-43.71942024 260.63689411 -46.70148 258.72544052 -49.85498047 256.89550781 C-50.93199219 256.26708984 -50.93199219 256.26708984 -52.03076172 255.62597656 C-66.15222025 248.72377835 -81.6896342 253.40450458 -95.67529297 258.07128906 C-98.70074961 259.11953895 -101.70488482 260.20737222 -104.69482422 261.35253906 C-110.48265502 263.55305942 -116.39707874 265.38295896 -122.29248047 267.27050781 C-123.44941406 267.64433594 -124.60634766 268.01816406 -125.79833984 268.40332031 C-132.24931279 270.47444082 -138.71520361 272.4511487 -145.22216797 274.33691406 C-153.00160302 276.59850681 -160.67887708 279.11277138 -168.35015869 281.7149353 C-181.20634565 286.07245216 -194.10449246 290.27376994 -207.06015015 294.32559204 C-218.97721251 298.0556763 -230.89076447 301.79925538 -242.72998047 305.77050781 C-244.27032959 306.26973755 -244.27032959 306.26973755 -245.84179688 306.77905273 C-256.14760118 310.29847006 -264.6822573 316.56163072 -270.14404297 326.16113281 C-273.47595465 333.20848558 -274.00131444 340.15244946 -274.01269531 347.89111328 C-274.01777603 348.65796448 -274.02285675 349.42481567 -274.02809143 350.21490479 C-274.03873286 351.8686601 -274.04737706 353.52242925 -274.05421066 355.17620468 C-274.06608907 357.80049681 -274.08556314 360.42463089 -274.10733032 363.04885864 C-274.16865355 370.50631403 -274.22294514 377.96374958 -274.25634766 385.42138672 C-274.27737331 389.99428671 -274.31273304 394.56689133 -274.35710526 399.13962173 C-274.3711955 400.87378576 -274.37997181 402.60800197 -274.38315964 404.34222031 C-274.40773461 416.42865116 -274.54374485 426.66909199 -283.39013672 435.89941406 C-287.4587325 439.19426738 -291.87948583 440.73362807 -296.84326172 442.265625 C-299.12244857 442.97925389 -301.37750027 443.75244112 -303.63623047 444.52832031 C-305.3125975 445.09035715 -306.98968033 445.65026365 -308.66748047 446.20800781 C-309.45550049 446.47508545 -310.24352051 446.74216309 -311.05541992 447.01733398 C-319.80941614 449.81614297 -327.31713738 449.40330381 -335.85498047 445.89550781 C-345.18263231 441.07396797 -350.28194198 434.28309611 -354.02555668 424.62429655 C-355.37845118 420.17329896 -355.40375138 415.92515828 -355.35618591 411.30293274 C-355.36172031 410.28408389 -355.36725471 409.26523504 -355.37295681 408.21551198 C-355.38649012 404.82644507 -355.37163322 401.438124 -355.35668945 398.04907227 C-355.36047539 395.60890898 -355.36597769 393.16874785 -355.37306213 390.72859192 C-355.38555571 384.8025698 -355.37946941 378.87674267 -355.36438655 372.95074282 C-355.34746153 366.03546539 -355.35074515 359.12024032 -355.35448063 352.20494857 C-355.36035187 339.85444419 -355.34621965 327.50404192 -355.3215332 315.15356445 C-355.29764068 303.19877286 -355.29051976 291.24411781 -355.30102539 279.28930664 C-355.3124675 266.24564006 -355.31432214 253.20203654 -355.29992729 240.15837067 C-355.29840162 238.76384144 -355.29688126 237.36931219 -355.29536629 235.97478294 C-355.29460847 235.28881594 -355.29385066 234.60284893 -355.29306988 233.89609504 C-355.28835038 229.08898267 -355.29016201 224.28189867 -355.29443169 219.47478676 C-355.29990981 212.98631502 -355.28898777 206.49798918 -355.26747704 200.00955009 C-355.26194467 197.63732663 -355.26141092 195.26508502 -355.2664299 192.89286041 C-355.29563528 177.10001405 -354.68637363 162.51313858 -348.60498047 147.70800781 C-348.30269531 146.95463135 -348.00041016 146.20125488 -347.68896484 145.42504883 C-336.855703 119.15775323 -316.94628542 100.87196652 -291.15576172 89.85058594 C-282.78471946 86.3756796 -274.32530106 83.11922026 -265.85498047 79.89550781 C-264.69470337 79.45174805 -264.69470337 79.45174805 -263.51098633 78.99902344 C-260.45460906 77.8387028 -257.44263553 76.77976186 -254.29248047 75.89550781 C-251.3128765 75.02871393 -248.59593783 73.93859821 -245.75756836 72.70263672 C-242.66375088 71.39015621 -239.50823625 70.24287122 -236.35498047 69.08300781 C-230.90219309 67.06208918 -225.49128697 64.96216291 -220.10498047 62.77050781 C-214.708729 60.57917939 -209.26261839 58.67281372 -203.72216797 56.87988281 C-200.85106954 55.89416509 -198.08422747 54.77394698 -195.29248047 53.58300781 C-190.42416151 51.51085154 -185.51379879 49.63765349 -180.54248047 47.83300781 C-171.72114908 44.62790885 -162.97454838 41.24019681 -154.22998047 37.83300781 C-137.99513727 31.51051416 -137.99513727 31.51051416 -130.35498047 28.89550781 C-122.40021368 26.16756423 -114.56835849 23.12530919 -106.72998047 20.08300781 C-106.05655609 19.82170074 -105.38313171 19.56039368 -104.68930054 19.29116821 C-97.93366628 16.66772805 -91.18404309 14.02961834 -84.44482422 11.36425781 C-73.07601362 6.87121187 -61.66916296 2.60093089 -50.09179688 -1.32568359 C-47.97908128 -2.06128311 -45.89170954 -2.8435397 -43.80419922 -3.64746094 C-28.39640254 -9.46555537 -14.09326 -8.39140672 0 0 Z " fill="#231F20" transform="translate(1431.85498046875,942.1044921875)"/>
<path d="M0 0 C6.92682643 4.82498406 12.14851803 11.50029505 14.671875 19.61328125 C15.07330462 22.82218904 15.05238497 25.99007203 15.01245117 29.22045898 C15.01288925 30.15782394 15.01332733 31.0951889 15.01377869 32.06095886 C15.01169919 35.13981412 14.9884076 38.21811561 14.96484375 41.296875 C14.95924482 43.43921105 14.95497612 45.58155094 14.95198059 47.72389221 C14.94055527 53.34799909 14.91110786 58.97187161 14.87786865 64.59588623 C14.84711795 70.34058462 14.83346457 76.08532106 14.81835938 81.83007812 C14.78623606 93.09124851 14.7350676 104.35224535 14.671875 115.61328125 C14.03310928 115.61914749 13.39434357 115.62501373 12.73622131 115.63105774 C6.00201719 115.69570018 -0.73173979 115.7802881 -7.46557617 115.87573242 C-9.96844534 115.90869665 -12.47138377 115.93681413 -14.97436523 115.9597168 C-29.06626156 116.09210119 -42.55609514 116.51604964 -56.328125 119.61328125 C-57.97628695 119.92463926 -59.62467853 120.23478785 -61.2734375 120.54296875 C-78.6851989 124.30927044 -95.92661726 131.72978576 -111.7578125 139.828125 C-115.50732182 141.70287966 -119.26597598 143.19434833 -123.203125 144.61328125 C-133.83958838 148.49271278 -144.28368427 152.8166017 -154.72290039 157.19458008 C-156.75787875 158.04753443 -158.79395004 158.8978414 -160.83007812 159.74804688 C-167.63466518 162.59690286 -174.39561542 165.50325491 -181.06005859 168.67089844 C-184.18098932 169.96764683 -186.96900218 170.38933973 -190.328125 170.61328125 C-190.328125 171.27328125 -190.328125 171.93328125 -190.328125 172.61328125 C-191.17415283 172.90460938 -192.02018066 173.1959375 -192.8918457 173.49609375 C-201.58807343 176.53938467 -210.06247078 179.93921311 -218.515625 183.61328125 C-219.69576172 184.12117187 -220.87589844 184.6290625 -222.09179688 185.15234375 C-228.38958937 187.87081533 -234.65441072 190.6473338 -240.87646484 193.53515625 C-244.36900622 195.07101193 -247.94638726 196.32326965 -251.54150391 197.59594727 C-254.3478917 198.62049764 -257.09718431 199.7338625 -259.8515625 200.890625 C-260.89916748 201.33003418 -261.94677246 201.76944336 -263.02612305 202.22216797 C-264.11578369 202.68123535 -265.20544434 203.14030273 -266.328125 203.61328125 C-267.40425049 204.06590332 -268.48037598 204.51852539 -269.58911133 204.98486328 C-272.89915189 206.37900519 -276.20758578 207.7768978 -279.515625 209.17578125 C-280.62615234 209.64435547 -281.73667969 210.11292969 -282.88085938 210.59570312 C-287.71167354 212.63830048 -292.5330865 214.69199809 -297.31640625 216.84375 C-300.28120204 218.17384328 -303.25034158 219.31597995 -306.328125 220.36328125 C-311.32565594 222.29982449 -314.71393105 225.28367717 -318.515625 229.00390625 C-320.328125 230.61328125 -320.328125 230.61328125 -322.328125 230.61328125 C-322.59882812 231.17917969 -322.86953125 231.74507812 -323.1484375 232.328125 C-324.79275939 235.51331806 -326.75504527 238.48020198 -328.6953125 241.4921875 C-333.30711037 250.30756191 -334.91451357 258.08961039 -334.82019043 267.99220276 C-334.82486942 269.19102662 -334.82954841 270.38985047 -334.83436918 271.62500232 C-334.84335296 274.92172452 -334.83466087 278.2178332 -334.81829429 281.51450861 C-334.80504156 285.08169984 -334.81510492 288.64883617 -334.82240295 292.21603394 C-334.83205486 298.38842787 -334.82765301 304.56068028 -334.8139801 310.73306465 C-334.79456001 319.66801868 -334.80108283 328.60281473 -334.81455392 337.53777301 C-334.83610682 352.05082458 -334.84285534 366.56383875 -334.83740234 381.0769043 C-334.83708171 381.9443108 -334.83676108 382.81171731 -334.83643073 383.70540886 C-334.8340576 389.86219986 -334.83115293 396.01899055 -334.828125 402.17578125 C-334.82466555 409.21053047 -334.82144711 416.2452797 -334.81884766 423.2800293 C-334.81852215 424.14667501 -334.81819663 425.01332073 -334.81786126 425.90622843 C-334.81291519 440.36854636 -334.82361047 454.83081241 -334.84541941 469.29311413 C-334.85809886 478.20347443 -334.85669847 487.11362053 -334.83696854 496.02396917 C-334.82434119 502.12956946 -334.82584117 508.23506128 -334.83834207 514.34066147 C-334.84503966 517.85998053 -334.84521598 521.37898251 -334.8277607 524.89827156 C-334.81214228 528.71956812 -334.82112574 532.54006158 -334.83605957 536.36134338 C-334.82557067 537.4647595 -334.81508178 538.56817562 -334.80427504 539.70502859 C-334.8897646 549.54556632 -337.44960556 557.58725295 -344.26171875 564.85546875 C-353.58098459 572.78301058 -364.41087735 573.40500635 -376.1015625 572.82666016 C-387.05631758 571.77682946 -395.38256215 564.60338108 -402.140625 556.41796875 C-409.79782247 545.73617828 -410.91425922 534.97064953 -410.83605957 522.1856842 C-410.84067484 520.53481718 -410.84703194 518.88395427 -410.85496855 517.23309988 C-410.87159931 512.72037749 -410.86344408 508.20799537 -410.85102367 503.69527209 C-410.84194973 498.81923012 -410.85595457 493.94324545 -410.86694336 489.06721497 C-410.88470856 479.5241589 -410.88089737 469.98122884 -410.8692928 460.43816788 C-410.86025036 452.68013179 -410.85903799 444.92213096 -410.86338806 437.16409111 C-410.86400099 436.05890168 -410.86461393 434.95371225 -410.86524543 433.81503223 C-410.86652437 431.56967786 -410.86782122 429.32432351 -410.8691358 427.07896917 C-410.88053588 406.0351492 -410.86743712 384.99139899 -410.84593433 363.94759046 C-410.82806637 345.90260675 -410.83116611 327.85772599 -410.84960938 309.81274414 C-410.87103044 288.84452938 -410.87943469 267.87637574 -410.86716032 246.90815157 C-410.86588616 244.67086344 -410.86462868 242.4335753 -410.86338806 240.19628716 C-410.86277096 239.09557646 -410.86215386 237.99486576 -410.86151806 236.8608002 C-410.85806869 229.11524957 -410.86388465 221.3697378 -410.87330627 213.62419319 C-410.88454147 204.1803248 -410.88145431 194.73658934 -410.8601833 185.29273612 C-410.84969301 180.47704001 -410.84551651 175.66156529 -410.85877991 170.84587097 C-410.87075172 166.43226875 -410.86406278 162.01909189 -410.8428697 157.60552793 C-410.83842382 156.01413714 -410.8406243 154.42270997 -410.85037285 152.83134282 C-410.91823205 140.82740048 -410.06760328 129.38871044 -401.32421875 120.36328125 C-393.66949942 113.65229444 -386.80580149 110.22073729 -376.640625 110.23828125 C-375.81353027 110.23771729 -374.98643555 110.23715332 -374.13427734 110.23657227 C-365.21246881 110.3913297 -356.92376111 112.38842325 -348.328125 114.61328125 C-346.678125 114.94328125 -345.028125 115.27328125 -343.328125 115.61328125 C-343.328125 127.82328125 -343.328125 140.03328125 -343.328125 152.61328125 C-337.718125 150.63328125 -332.108125 148.65328125 -326.328125 146.61328125 C-321.5234375 144.953125 -321.5234375 144.953125 -319.50439453 144.25854492 C-312.40934765 141.81049197 -305.35535483 139.26464171 -298.328125 136.62890625 C-297.61406998 136.36114883 -296.90001495 136.09339142 -296.1643219 135.81752014 C-295.43664108 135.54459641 -294.70896027 135.27167267 -293.95922852 134.99047852 C-278.74324613 129.28357915 -263.47708767 123.87277211 -248.02734375 118.83203125 C-239.16821716 115.92789128 -230.31383591 112.97246104 -221.765625 109.23828125 C-215.33044377 106.4927194 -208.71782386 104.34555785 -202.06420898 102.19970703 C-196.84311125 100.50416798 -191.76352877 98.60781628 -186.68115234 96.53491211 C-182.0974207 94.73956173 -177.36810755 93.4453911 -172.6484375 92.0546875 C-168.16287042 90.64216775 -163.88977099 88.77770343 -159.56298828 86.94458008 C-154.01338507 84.66065658 -148.36014388 82.67525156 -142.703125 80.67578125 C-141.46675293 80.23613037 -140.23038086 79.79647949 -138.95654297 79.34350586 C-131.8036227 76.80984899 -124.63026429 74.36241457 -117.41552734 72.01196289 C-109.32331888 69.34007687 -101.3479874 66.34076826 -93.35681152 63.3838501 C-84.80540762 60.22118124 -76.23956038 57.14244057 -67.5546875 54.36328125 C-64.9615595 53.52829403 -62.48832597 52.69448277 -60.0546875 51.4609375 C-58.328125 50.61328125 -58.328125 50.61328125 -55.328125 50.61328125 C-55.328125 35.10328125 -55.328125 19.59328125 -55.328125 3.61328125 C-52.358125 2.62328125 -49.388125 1.63328125 -46.328125 0.61328125 C-44.76930557 0.09051622 -43.2106519 -0.4327441 -41.65234375 -0.95703125 C-40.10677083 -1.47526042 -38.56119792 -1.99348958 -37.015625 -2.51171875 C-36.23123047 -2.77597656 -35.44683594 -3.04023437 -34.63867188 -3.3125 C-33.50075195 -3.69341797 -33.50075195 -3.69341797 -32.33984375 -4.08203125 C-31.66397217 -4.30906738 -30.98810059 -4.53610352 -30.29174805 -4.77001953 C-19.0558937 -8.29877349 -10.030116 -5.97431406 0 0 Z " fill="#231F20" transform="translate(876.328125,535.38671875)"/>
<path d="M0 0 C1.71101068 1.62111012 3.37034365 3.29712721 5 5 C6.13517832 6.08781579 7.27763658 7.16806609 8.42578125 8.2421875 C9.04984863 8.82629395 9.67391602 9.41040039 10.31689453 10.01220703 C10.97544434 10.62692871 11.63399414 11.24165039 12.3125 11.875 C13.73315383 13.20303845 15.15372423 14.53116616 16.57421875 15.859375 C17.3017334 16.53935547 18.02924805 17.21933594 18.77880859 17.91992188 C20.98828846 19.9890325 23.19225958 22.0638459 25.39453125 24.140625 C26.45837036 25.14246826 26.45837036 25.14246826 27.54370117 26.16455078 C28.89532408 27.43769236 30.24581404 28.71203819 31.5949707 29.98779297 C34.47886506 32.70068179 37.37002986 35.32870589 40.4609375 37.8046875 C41.29882812 38.52914062 42.13671875 39.25359375 43 40 C43 40.66 43 41.32 43 42 C43.59296875 42.26425781 44.1859375 42.52851562 44.796875 42.80078125 C47.08029054 44.04370425 48.47426723 45.30401646 50.25 47.1875 C52.7202041 49.73670849 55.24154523 52.12819493 57.9375 54.4375 C61.46714284 57.47748141 64.73244848 60.7101237 67.99609375 64.03125 C69.95056452 65.95143181 71.97313939 67.72867309 74.0625 69.5 C80.13130312 74.73090131 86.51929178 80.32448001 87.37109375 88.609375 C87.77266627 102.0442428 87.77266627 102.0442428 83.60546875 107.33203125 C83.07566406 107.88246094 82.54585937 108.43289063 82 109 C81.12794922 109.93392578 81.12794922 109.93392578 80.23828125 110.88671875 C76.19334634 114.80037788 72.35965158 116.78299647 67.14770508 118.78564453 C63.39308369 120.23414269 59.67233746 121.75792419 55.94921875 123.28515625 C40.32210469 129.66774614 24.67916189 135.94437533 8.86450195 141.85009766 C-2.33366891 146.0620311 -13.38182071 150.61982016 -24.4206543 155.23071289 C-25.45428856 155.66119431 -25.45428856 155.66119431 -26.50880432 156.10037231 C-28.37031565 156.87628267 -30.23038282 157.65565522 -32.09033203 158.43530273 C-35.12827539 159.67839414 -38.19854068 160.80738003 -41.28710938 161.91845703 C-46.88139523 163.93533186 -52.39211066 166.12674575 -57.8984375 168.37109375 C-58.89525543 168.77530045 -59.89207336 169.17950714 -60.9190979 169.59596252 C-64.07182401 170.87461523 -67.22349547 172.15583975 -70.375 173.4375 C-100.03169759 185.48896165 -100.03169759 185.48896165 -111.125 189.5 C-114.1589901 190.62673076 -117.06818118 191.94228794 -120 193.3125 C-125.26690378 195.748443 -130.63519184 197.76586806 -136.078125 199.76220703 C-140.12799014 201.26061849 -144.07765087 202.87341353 -148 204.6875 C-148.86625 205.08710937 -149.7325 205.48671875 -150.625 205.8984375 C-152.10671412 206.58567991 -153.58628072 207.27759504 -155.0625 207.9765625 C-161.38196881 210.70310751 -167.71230702 211.06843164 -174.3984375 209.40234375 C-182.89129788 205.9177316 -189.0346219 198.40985444 -195.21411133 191.86523438 C-199.27170137 187.62736863 -203.47665383 183.53161504 -207.64477539 179.40283203 C-213.13898814 173.957603 -218.62559124 168.50477332 -224.10788822 163.04754829 C-227.4170205 159.75409323 -230.72891191 156.46351292 -234.04711914 153.17919922 C-237.26903948 149.98996443 -240.48349392 146.79337516 -243.69299126 143.59164047 C-244.91231399 142.37783598 -246.13426247 141.16666296 -247.3589344 139.95825577 C-249.0746165 138.26447689 -250.78055173 136.56141008 -252.48461914 134.85595703 C-252.98602417 134.36533783 -253.4874292 133.87471863 -254.00402832 133.36923218 C-257.49014661 129.85249028 -259.69905294 126.33285244 -262 122 C-262.4021875 121.33226562 -262.804375 120.66453125 -263.21875 119.9765625 C-265.49048685 114.22906827 -265.01054498 106.78642918 -262.9375 101.0703125 C-256.57191695 89.68837324 -245.45321456 85.72170885 -233.9375 81.0625 C-232.34606676 80.40894873 -230.75484384 79.75488511 -229.16381836 79.1003418 C-215.90401319 73.67126057 -202.53294327 68.53316778 -189.14111328 63.44042969 C-177.79700162 59.11998758 -166.55371214 54.60120706 -155.38110352 49.85473633 C-150.26350245 47.69412584 -145.17648934 45.68199605 -139.88671875 43.98046875 C-135.01487536 42.40565503 -130.45664139 40.46575046 -125.82421875 38.29492188 C-120.63192923 35.91422481 -115.30888173 33.8542835 -110 31.75 C-108.7203879 31.24057566 -107.44084941 30.73096638 -106.16137695 30.22119141 C-92.65474479 24.84494602 -79.13253609 19.50745177 -65.60864258 14.17480469 C-57.696286 11.05352966 -49.78648664 7.92821621 -41.90625 4.7265625 C-40.74714111 4.25686035 -39.58803223 3.7871582 -38.39379883 3.30322266 C-36.33675682 2.4671235 -34.28171228 1.62608317 -32.22924805 0.77880859 C-22.03261998 -3.36360052 -10.17770719 -5.53259408 0 0 Z " fill="#231F20" transform="translate(857,684)"/>
<path d="M0 0 C7.92433785 5.40295762 7.92433785 5.40295762 9.40234375 9.828125 C10.4966123 16.27078475 10.02992874 21.16157575 6.75 26.875 C0.64922337 33.46277622 -6.75388745 35.33399572 -15.125 37.75 C-16.55413806 38.17723094 -17.9826819 38.60645431 -19.41064453 39.03759766 C-22.29906967 39.90838455 -25.1895794 40.77159376 -28.08203125 41.62890625 C-34.12072669 43.42562342 -40.12414881 45.33123542 -46.125 47.25 C-47.10839355 47.55921387 -48.09178711 47.86842773 -49.10498047 48.18701172 C-54.49870121 49.90349225 -59.74157875 51.83193417 -64.98046875 53.97314453 C-68.04516361 55.19097831 -71.15642834 56.17141803 -74.3125 57.125 C-75.6904344 57.54579514 -77.06801345 57.96775494 -78.4453125 58.390625 C-79.19973633 58.62201172 -79.95416016 58.85339844 -80.73144531 59.09179688 C-86.72998633 60.95718264 -92.70246705 62.90703928 -98.67797852 64.84472656 C-104.5641686 66.74001188 -110.4710489 68.53023707 -116.41015625 70.25 C-125.44251689 72.87554519 -134.34400667 75.85270807 -143.25 78.875 C-153.67329289 82.41219488 -164.10929867 85.79427811 -174.68798828 88.83959961 C-179.83185879 90.33481241 -184.91581133 91.92467653 -189.87890625 93.9453125 C-196.70910877 96.66219417 -203.4483706 98.94100721 -210.546875 95.88671875 C-214.68745598 93.44619383 -218.26140321 90.86787522 -219.8203125 86.1484375 C-220.37424569 83.21762738 -220.32406665 80.54245432 -220.1875 77.5625 C-220.15527344 76.47324219 -220.12304688 75.38398437 -220.08984375 74.26171875 C-218.88958975 69.42162472 -217.32107483 66.82363037 -213.25 63.875 C-207.74342862 61.38613482 -202.06806272 59.56968138 -196.3125 57.75 C-194.77991813 57.24816824 -193.24800949 56.74427556 -191.71679688 56.23828125 C-188.69641187 55.24368448 -185.67231645 54.26205441 -182.64404297 53.29174805 C-177.27911622 51.56992002 -171.94183607 49.76810559 -166.60424805 47.96362305 C-163.09118398 46.82345617 -159.55803427 45.80259488 -156 44.8125 C-150.9027719 43.3905511 -145.98071978 41.72353071 -141.03125 39.85888672 C-138.52961801 38.97391683 -136.06479076 38.25925194 -133.49609375 37.6015625 C-125.56840094 35.47374611 -117.79805674 32.86650288 -110 30.3125 C-108.35939481 29.77744027 -106.71868685 29.24269559 -105.07788086 28.70825195 C-101.74353609 27.62210973 -98.40950874 26.53500165 -95.07568359 25.44726562 C-87.99264439 23.13782052 -80.90304997 20.84876025 -73.8125 18.5625 C-72.85384537 18.25314011 -72.85384537 18.25314011 -71.87582397 17.93753052 C-65.68174523 15.9388016 -59.48605538 13.94567316 -53.28125 11.98046875 C-52.36303467 11.68962402 -51.44481934 11.3987793 -50.4987793 11.09912109 C-48.73518701 10.54165731 -46.97104276 9.98593614 -45.20629883 9.43212891 C-40.415101 7.91911907 -35.65904658 6.33189439 -30.91796875 4.66796875 C-29.84796631 4.29687988 -28.77796387 3.92579102 -27.67553711 3.54345703 C-25.62615393 2.82971014 -23.5809863 2.10368547 -21.54125977 1.36279297 C-14.29005094 -1.15095942 -7.42246622 -2.56931523 0 0 Z " fill="#FBFBFB" transform="translate(1380.25,1075.125)"/>
<path d="M0 0 C0 4.88795913 -3.40453402 7.36200074 -6.625 10.8125 C-9 13 -9 13 -11 13 C-9.46356148 9.31930113 -7.21849055 7.01224796 -4.375 4.25 C-3.55773438 3.45078125 -2.74046875 2.6515625 -1.8984375 1.828125 C-0.95871094 0.92320313 -0.95871094 0.92320313 0 0 Z " fill="#383536" transform="translate(1109,1052)"/>
<path d="M0 0 C-0.7109375 1.953125 -0.7109375 1.953125 -2 4 C-4.1640625 4.609375 -4.1640625 4.609375 -6.625 4.75 C-7.44226563 4.80671875 -8.25953125 4.8634375 -9.1015625 4.921875 C-9.72804688 4.94765625 -10.35453125 4.9734375 -11 5 C-7.72709962 2.33319229 -4.35126896 0 0 0 Z " fill="#4F4C4D" transform="translate(841,879)"/>
<path d="M0 0 C0.66 0.33 1.32 0.66 2 1 C1.01 2.32 0.02 3.64 -1 5 C-3.31 4.67 -5.62 4.34 -8 4 C-5.31143836 2.20762558 -3.0466145 1.01553817 0 0 Z " fill="#555253" transform="translate(1293,974)"/>
<path d="M0 0 C0.66 0.33 1.32 0.66 2 1 C-0.97 2.65 -3.94 4.3 -7 6 C-7.66 5.34 -8.32 4.68 -9 4 C-7.54618103 3.30300448 -6.08677047 2.61766134 -4.625 1.9375 C-3.40683594 1.36322266 -3.40683594 1.36322266 -2.1640625 0.77734375 C-1.44992187 0.52082031 -0.73578125 0.26429688 0 0 Z " fill="#5E5B5C" transform="translate(952,828)"/>
<path d="M0 0 C-1.0625 1.5625 -1.0625 1.5625 -3 3 C-6.6875 2.6875 -6.6875 2.6875 -10 2 C-6.16991045 -0.55339303 -4.41711378 -1.47237126 0 0 Z " fill="#484445" transform="translate(629,656)"/>
</svg>
