<?xml version="1.0" encoding="UTF-8"?>
<svg version="1.1" xmlns="http://www.w3.org/2000/svg" width="980" height="980">
<path d="M0 0 C323.4 0 646.8 0 980 0 C980 323.4 980 646.8 980 980 C656.6 980 333.2 980 0 980 C0 656.6 0 333.2 0 0 Z " fill="#FEFEFE" transform="translate(0,0)"/>
<path d="M0 0 C200.64 0 401.28 0 608 0 C608.08075728 166.59330572 608.08075728 166.59330572 608.09632993 230.38400722 C608.10041235 247.0647868 608.10458819 263.74556635 608.10905199 280.42634584 C608.10959167 282.44401583 608.11012841 284.46168581 608.11066218 286.4793558 C608.11919586 318.64508431 608.13420342 350.81080578 608.15259444 382.97653004 C608.17146167 416.03519519 608.18377137 449.09385644 608.18782998 482.15252688 C608.18840629 486.82183077 608.18905756 491.49113466 608.18975449 496.16043854 C608.18988933 497.07942453 608.19002418 497.99841052 608.19016311 498.94524458 C608.19252654 513.73838508 608.20180267 528.53151355 608.21366407 543.32464915 C608.22544123 558.19673345 608.22993528 573.06880583 608.22700275 587.94089463 C608.22548162 596.77664916 608.22953698 605.61236006 608.24159509 614.44810672 C608.24910297 620.35308641 608.24932159 626.25803759 608.24366363 632.16301926 C608.24064862 635.52587635 608.24186601 638.8885842 608.24976636 642.25144324 C608.25779623 645.88032577 608.25346343 649.50899529 608.24609566 653.1378746 C608.25134968 654.17324016 608.25660371 655.20860571 608.26201695 656.27534598 C608.16237246 678.00604974 600.29279282 696.45232238 584.84741211 711.7644043 C576.40051875 719.67277701 566.01337335 724.65458433 555 728 C553.96545541 728.34091063 552.93091082 728.68182126 551.8650164 729.03306252 C547.69190131 730.07707915 543.82948947 730.28153964 539.56208134 730.26006222 C538.73487161 730.26386789 537.90766189 730.26767356 537.0553852 730.27159455 C534.28336544 730.28190135 531.5115508 730.27800582 528.73951721 730.27415466 C526.7319743 730.27860758 524.72443314 730.2839218 522.71689457 730.29002339 C517.19961828 730.30420778 511.68239832 730.30586659 506.16510642 730.30542648 C500.21461739 730.30707433 494.2641516 730.32014039 488.31367493 730.33161926 C475.97815214 730.35328319 463.64264051 730.36187595 451.30710212 730.36665427 C450.63675605 730.36691544 449.96640998 730.36717662 449.2757504 730.36744571 C448.60403016 730.36770598 447.93230991 730.36796626 447.24023451 730.36823442 C439.79150645 730.37131853 432.34278193 730.37782403 424.89405632 730.3844471 C402.38676534 730.40409511 379.87947819 730.42049882 357.37217808 730.42332363 C356.29252278 730.42346472 356.29252278 730.42346472 355.19105626 730.42360866 C352.27424226 730.42398714 349.35742826 730.42435113 346.44061426 730.42471164 C344.24532162 730.42498336 342.05002897 730.42526004 339.85473633 730.42553711 C339.12932544 730.42562513 338.40391456 730.42571315 337.65652152 730.42580384 C314.87717731 730.42870759 292.09791806 730.45078836 269.31860352 730.48706055 C243.71532969 730.52782854 218.11211374 730.55148252 192.50880569 730.55178314 C189.77596564 730.55187996 187.04312561 730.55204668 184.31028557 730.55226326 C183.6374124 730.55230737 182.96453924 730.55235149 182.27127598 730.55239694 C171.46361317 730.55351474 160.65603574 730.57089379 149.84840038 730.59408258 C138.97508903 730.61697851 128.10189793 730.62069367 117.22857154 730.60653328 C111.34303212 730.59937233 105.45778715 730.60018712 99.57228088 730.62294388 C94.17633164 730.64360718 88.78090185 730.64086466 83.38495778 730.62006903 C81.44074593 730.61658818 79.49649603 730.62142403 77.55233402 730.63577347 C54.29319267 730.79627568 36.29193599 723.95035891 19.25 707.75 C4.83634859 692.78276597 -0.17386759 673.86256279 -0.12304783 653.63006592 C-0.12420167 652.49806666 -0.12535552 651.36606741 -0.12654433 650.19976515 C-0.12919644 646.3971594 -0.12470035 642.59459578 -0.12025452 638.79199219 C-0.12013371 636.04209497 -0.12152372 633.29219898 -0.12284368 630.54230213 C-0.12491533 624.55876679 -0.12327721 618.57524141 -0.11920547 612.59170723 C-0.11316779 603.69442581 -0.11286992 594.79715066 -0.11374746 585.89986757 C-0.11506113 570.93286676 -0.11172085 555.96587037 -0.10573006 540.99887085 C-0.09981345 526.17922951 -0.09596419 511.35959002 -0.09487724 496.53994751 C-0.0948085 495.61857682 -0.09473976 494.69720613 -0.09466894 493.74791511 C-0.09433061 489.06875691 -0.09402922 484.38959872 -0.09374207 479.71044052 C-0.09164154 446.56623644 -0.08490387 413.42203476 -0.07543945 380.27783203 C-0.0662554 348.07828789 -0.05918851 315.87874441 -0.05493164 283.67919922 C-0.054661 281.65445626 -0.05439029 279.6297133 -0.05411953 277.60497034 C-0.05193076 261.15313911 -0.04988818 244.70130787 -0.04788104 228.24947663 C-0.03849343 152.16631547 -0.01842306 76.08316059 0 0 Z " fill="#161716" transform="translate(186,201)"/>
<path d="M0 0 C1.23158313 -0.00307895 1.23158313 -0.00307895 2.48804674 -0.0062201 C5.23906293 -0.01187416 7.9900288 -0.01043482 10.74104977 -0.00901413 C12.73351742 -0.01159868 14.72598455 -0.01461209 16.71845096 -0.01801753 C22.19397124 -0.02608023 27.6694784 -0.0278767 33.14500391 -0.028615 C39.0504562 -0.03046682 44.9559017 -0.03801482 50.86135006 -0.04475021 C64.44796662 -0.05903688 78.03458216 -0.06485944 91.62120467 -0.06944216 C98.33849746 -0.07177978 105.05578941 -0.07538262 111.77308154 -0.07913754 C134.7773216 -0.09197168 157.78156119 -0.10269091 180.78580475 -0.10614014 C182.22929579 -0.10636177 183.67278683 -0.10658355 185.11627787 -0.10680549 C186.56320888 -0.10702613 188.01013988 -0.10724661 189.45707089 -0.10746694 C192.35974952 -0.10790948 195.26242815 -0.1083566 198.16510677 -0.10880661 C198.88479981 -0.108916 199.60449284 -0.10902539 200.34599475 -0.1091381 C223.67624659 -0.11276783 247.00646734 -0.12868543 270.33670727 -0.15199697 C295.01596233 -0.17661126 319.69519962 -0.19031372 344.37446731 -0.19150805 C347.08536526 -0.1916795 349.7962632 -0.19189493 352.50716114 -0.19214249 C353.50837425 -0.19222614 353.50837425 -0.19222614 354.52981389 -0.19231148 C364.59251334 -0.19338946 374.65518393 -0.20268519 384.71787357 -0.21632767 C396.16950276 -0.23173739 407.62107866 -0.23684394 419.07271624 -0.22858956 C424.91338298 -0.22468618 430.75394242 -0.22559758 436.59459591 -0.23964691 C441.94715171 -0.25240418 447.29951979 -0.25117216 452.6520754 -0.2390562 C454.58279068 -0.23710238 456.51351934 -0.24016297 458.44421584 -0.24890056 C472.44436471 -0.3082206 485.8542031 0.19413035 498.3689642 7.25642776 C499.08213802 7.64604691 499.79531185 8.03566605 500.53009701 8.43709183 C506.64690134 11.89948629 511.7094009 16.10284476 516.6189642 21.13142776 C517.5058392 21.93580276 518.3927142 22.74017776 519.3064642 23.56892776 C547.31425811 54.6045913 537.6189642 99.39939936 537.6189642 138.13142776 C336.9789642 138.13142776 136.3389642 138.13142776 -70.3810358 138.13142776 C-70.3810358 53.31308664 -70.3810358 53.31308664 -62.8810358 38.94392776 C-62.54773258 38.29303177 -62.21442936 37.64213577 -61.87102604 36.97151566 C-57.89366969 29.64264511 -52.4347245 23.79584555 -46.3810358 18.13142776 C-45.65271549 17.44564651 -44.92439518 16.75986526 -44.17400455 16.05330276 C-31.8244312 5.56915254 -16.02672889 -0.03760559 0 0 Z " fill="#151716" transform="translate(256.38103580474854,48.86857223510742)"/>
<path d="M0 0 C1.55568813 -0.00407699 3.11137335 -0.00942512 4.66705322 -0.01593018 C8.8489228 -0.02947582 13.03056755 -0.02435855 17.21244049 -0.01479292 C21.61542815 -0.0071295 26.0183982 -0.0142603 30.42138672 -0.01895142 C37.81155813 -0.02438969 45.20163922 -0.01726826 52.59179688 -0.00292969 C61.10221789 0.0133931 69.61242318 0.00810322 78.12283897 -0.0084089 C85.46597307 -0.02207901 92.80904271 -0.02391658 100.15218544 -0.0160929 C104.52204543 -0.01144659 108.89180445 -0.01070675 113.26165771 -0.02070236 C117.37243356 -0.02945074 121.48293476 -0.02320863 125.59368134 -0.00601959 C127.09071144 -0.00209633 128.58776518 -0.00311612 130.08478546 -0.00980759 C142.80196256 -0.06135462 155.29104573 1.07303137 166.5703125 7.38818359 C167.28050537 7.77844727 167.99069824 8.16871094 168.72241211 8.57080078 C184.32725369 17.5059588 194.31167583 31.34220141 199.9453125 48.38818359 C200.82100859 52.75980604 201.0747955 56.90777647 201.08575439 61.36219788 C201.09021108 62.37905903 201.09021108 62.37905903 201.0947578 63.41646284 C201.10339044 65.6753597 201.10494843 67.93420322 201.10644531 70.19311523 C201.11107745 71.81820792 201.11610265 73.44329953 201.12149048 75.06838989 C201.13458102 79.4757913 201.14105326 83.88317749 201.14550114 88.29059529 C201.14843815 91.04894605 201.1525442 93.80729272 201.15700531 96.5656414 C201.17067336 105.209537 201.18034259 113.85342316 201.1842072 122.49732882 C201.18868203 132.44949771 201.20620611 142.40152885 201.2352078 152.35365587 C201.25688655 160.06262395 201.26691483 167.77155345 201.26824832 175.48055166 C201.2692922 180.07687685 201.27511041 184.67307243 201.29306793 189.26936531 C201.30965539 193.59914616 201.31165285 197.92870148 201.30292892 202.25850296 C201.30216414 203.83819754 201.30642653 205.41790477 201.31638718 206.99756813 C201.44421339 228.55253357 195.97650366 244.843686 181.0703125 260.70068359 C166.31574404 274.78192849 149.37013193 277.69329663 129.77807617 277.67871094 C128.16224358 277.6847054 126.54641383 277.69151304 124.93058777 277.69906616 C120.56679436 277.71663874 116.20307952 277.72141779 111.83925414 277.72269773 C109.10633716 277.72412472 106.37343981 277.72840461 103.64052773 277.73369217 C94.08773162 277.75216263 84.53499111 277.76036642 74.98217773 277.75878906 C66.10711241 277.75758807 57.23229042 277.7786898 48.35728663 277.81027639 C40.71192295 277.83650755 33.06663843 277.84715352 25.42123014 277.84587824 C20.86629076 277.84537068 16.31156796 277.85093981 11.75667381 277.87223434 C7.4694536 277.89173289 3.18265404 277.89166271 -1.10458183 277.87720108 C-2.66815436 277.87512629 -4.23175406 277.87973353 -5.79528046 277.891922 C-25.98880654 278.03901028 -41.64244065 271.3166218 -56.2421875 257.57568359 C-60.38372438 253.31064163 -63.30032792 248.63379974 -66.0546875 243.38818359 C-66.62509766 242.30923828 -66.62509766 242.30923828 -67.20703125 241.20849609 C-72.7987008 229.68754677 -73.49979081 217.60198989 -73.45874023 205.01977539 C-73.46445703 203.41821826 -73.47142629 201.8166652 -73.47953796 200.21511841 C-73.4973421 195.90290823 -73.49632498 191.59090296 -73.49059558 187.27866721 C-73.48748449 183.66087053 -73.49361751 180.04311212 -73.49963433 176.42532092 C-73.51363674 167.88043812 -73.5121547 159.33565537 -73.50073242 150.79077148 C-73.48926133 142.01623202 -73.5033197 133.24199858 -73.5301289 124.46749943 C-73.55238227 116.8967522 -73.55890152 109.32610033 -73.55305248 101.75532275 C-73.54970393 97.25008833 -73.55195617 92.74504985 -73.56930351 88.23984337 C-73.58492482 83.99851746 -73.58065157 79.75763989 -73.56199837 75.51633072 C-73.55835373 73.97337356 -73.561298 72.43038204 -73.57188416 70.88745689 C-73.69659171 51.18374919 -68.78377936 34.12009607 -55.0546875 19.38818359 C-39.17076758 4.0580612 -21.40752666 -0.09568861 0 0 Z " fill="#FCFCFC" transform="translate(290.0546875,231.61181640625)"/>
<path d="M0 0 C0.63615234 1.25103516 0.63615234 1.25103516 1.28515625 2.52734375 C4.95375833 9.56622202 8.81985672 15.9546971 14 22 C14.68964844 22.83402344 15.37929688 23.66804688 16.08984375 24.52734375 C29.0908197 39.72180598 47.51732668 48.52986772 67 52 C93.92264718 53.82675893 117.37701783 48.12118273 138.328125 30.484375 C145.66417007 23.66314011 151.14560384 15.70545207 156 7 C156.79116178 5.62470943 157.582768 4.24967435 158.375 2.875 C158.91125 1.92625 159.4475 0.9775 160 0 C165.3887655 2.86061716 169.81992855 6.14425423 174.375 10.1875 C175.03274414 10.76701416 175.69048828 11.34652832 176.36816406 11.94360352 C203.27899448 35.81686236 203.27899448 35.81686236 204.2746582 45.73632812 C204.3031068 49.32457393 204.32167274 52.91162397 204.3125 56.5 C204.32861328 57.72976563 204.34472656 58.95953125 204.36132812 60.2265625 C204.36950564 75.63299996 199.96726555 88.62256363 189.23828125 99.9375 C176.35095507 111.8127325 160.51493181 114.77525139 143.6105957 114.63110352 C142.0431335 114.63625924 140.47567713 114.64355284 138.90823364 114.65278625 C134.70367267 114.67109399 130.49975652 114.65849623 126.29522347 114.63869596 C121.86642142 114.62214409 117.43765496 114.63114468 113.00883484 114.63621521 C105.57927306 114.64071647 98.14996468 114.6249857 90.72045898 114.59692383 C82.16219378 114.56484539 73.60438431 114.56490789 65.04608661 114.5821386 C56.76789727 114.59806306 48.48987312 114.59123449 40.2116909 114.57420158 C36.70841188 114.56737503 33.20526705 114.56831776 29.70199013 114.57574654 C25.57057316 114.5834712 21.43966816 114.57108445 17.30833817 114.54389763 C15.80283438 114.53707827 14.29728216 114.53684547 12.79178047 114.54411316 C-2.72759609 114.61033709 -15.94247441 110.99928876 -28 101 C-33.46946225 95.51495523 -38.36444163 89.34761727 -41 82 C-41.29648438 81.1853125 -41.59296875 80.370625 -41.8984375 79.53125 C-44.18471582 71.72853866 -44.43737938 63.8369007 -44.625 55.75 C-44.67237305 54.63705566 -44.71974609 53.52411133 -44.76855469 52.37744141 C-44.82091788 44.03299234 -42.68698869 39.95696378 -37 34 C-35.9950971 32.79790265 -34.99716709 31.58992609 -34.0078125 30.375 C-26.13337719 21.09681428 -18.11324337 12.52348434 -8.5625 4.9375 C-7.63848389 4.20237183 -7.63848389 4.20237183 -6.69580078 3.45239258 C-2.25055924 0 -2.25055924 0 0 0 Z " fill="#161817" transform="translate(274,382)"/>
<path d="M0 0 C14.96855164 12.93764262 26.08268102 30.70069817 27.78564453 50.75244141 C28.72757309 72.75116259 23.68700479 93.4612757 8.5625 110.125 C7.95921875 110.80820312 7.3559375 111.49140625 6.734375 112.1953125 C1.66941922 117.61028555 -4.03947737 121.42983479 -10.4375 125.125 C-11.09363281 125.51558594 -11.74976563 125.90617188 -12.42578125 126.30859375 C-18.66049628 129.7396896 -25.59449793 131.32997606 -32.4375 133.125 C-33.38206055 133.38978149 -33.38206055 133.38978149 -34.34570312 133.65991211 C-52.2656021 137.64420337 -71.09499106 132.41355598 -86.4375 123.125 C-89.96300385 120.65303593 -93.22504703 117.98957312 -96.4375 115.125 C-97.14777344 114.49722656 -97.85804688 113.86945313 -98.58984375 113.22265625 C-106.05143988 106.21935394 -111.27546232 97.41782552 -115.4375 88.125 C-115.7984375 87.33351563 -116.159375 86.54203125 -116.53125 85.7265625 C-123.54446768 69.44587861 -122.71776539 47.28865312 -116.22460938 30.94726562 C-107.95611739 11.80457823 -92.27897419 -3.79646403 -73 -11.6875 C-48.05433976 -20.60924202 -20.97343644 -15.98900865 0 0 Z " fill="#151716" transform="translate(400.4375,287.875)"/>
<path d="M0 0 C0.82360234 -0.00205263 1.64720468 -0.00410527 2.49576467 -0.0062201 C5.27946228 -0.01191348 8.06311077 -0.01042998 10.8468132 -0.00901413 C12.85319188 -0.01159643 14.85957004 -0.0146092 16.86594748 -0.01801753 C22.39822415 -0.0261067 27.93048786 -0.02787817 33.46276975 -0.028615 C39.42201033 -0.03046223 45.38124413 -0.03800787 51.3404808 -0.04475021 C65.05982429 -0.05905693 78.77916682 -0.06486182 92.49851607 -0.06944216 C99.27633633 -0.07177715 106.05415574 -0.07537969 112.83197534 -0.07913754 C136.02771746 -0.09197373 159.22345911 -0.10269296 182.41920471 -0.10614014 C183.87562934 -0.10636177 185.33205397 -0.10658355 186.7884786 -0.10680549 C188.24844542 -0.10702613 189.70841224 -0.10724661 191.16837907 -0.10746694 C194.09738429 -0.10790949 197.02638952 -0.10835661 199.95539474 -0.10880661 C200.68161916 -0.108916 201.40784358 -0.10902539 202.1560748 -0.1091381 C225.70749258 -0.11276927 249.25887958 -0.12869125 272.81028557 -0.15199697 C297.70322294 -0.17658525 322.59614272 -0.19031251 347.48909259 -0.19150805 C350.22099098 -0.19167951 352.95288936 -0.19189494 355.68478775 -0.19214249 C356.35747057 -0.19219826 357.03015339 -0.19225402 357.72322054 -0.19231148 C368.55517309 -0.1934628 379.38709409 -0.2044916 390.21903597 -0.21902954 C401.1038587 -0.23338599 411.988639 -0.23638355 422.87346849 -0.22858956 C428.77197241 -0.22467413 434.67037006 -0.22565617 440.56886101 -0.23964691 C445.96623679 -0.25233224 451.36342584 -0.25123567 456.76080117 -0.2390562 C458.71573739 -0.23708987 460.6706866 -0.24022054 462.62560454 -0.24890056 C465.27934299 -0.2599395 467.93241623 -0.25254278 470.58613586 -0.24050903 C471.72924025 -0.25190182 471.72924025 -0.25190182 472.89543766 -0.26352477 C478.92678706 -0.20433003 483.5694236 1.12440619 488.35725021 5.00642776 C491.83196786 9.38199813 492.49765009 13.442546 492.36115646 18.92049026 C491.69226224 23.59449184 488.92925299 26.33537526 485.54475021 29.38142776 C480.59958703 32.84304199 476.9996051 33.42093834 470.98206997 33.38869667 C470.15900216 33.39220275 469.33593434 33.39570882 468.48792508 33.39932114 C465.71201588 33.40867306 462.93631472 33.40370207 460.16039658 33.3988533 C458.15727848 33.40258765 456.15416184 33.40718831 454.15104753 33.41258395 C448.63241774 33.42485598 443.11384838 33.42454854 437.59520805 33.4221952 C431.64893074 33.42178809 425.70267309 33.43281601 419.75640488 33.44231033 C408.10119967 33.45894433 396.44600961 33.46444684 384.79079434 33.46553509 C375.31964518 33.46645363 365.84850259 33.4705675 356.37735558 33.47693634 C353.65259451 33.47873139 350.92783344 33.48051102 348.20307237 33.4822861 C347.52571659 33.48272819 346.84836082 33.48317029 346.15047911 33.48362578 C327.09342528 33.495937 308.03637373 33.50382663 288.97931576 33.50293922 C288.26058626 33.50290807 287.54185677 33.50287691 286.8013476 33.50284481 C283.15840369 33.50267859 279.51545978 33.50248051 275.87251588 33.50227539 C275.14899494 33.5022355 274.42547401 33.50219561 273.68002819 33.50215451 C272.2168919 33.50207364 270.75375561 33.50199004 269.29061932 33.50190373 C246.5252878 33.50067815 223.76001586 33.51569153 200.99470139 33.54304886 C175.42669593 33.57376144 149.85872962 33.59098185 124.29070455 33.58912241 C121.56500042 33.58897315 118.83929628 33.58887574 116.11359215 33.58881378 C115.44243898 33.58879047 114.77128581 33.58876716 114.07979466 33.58874315 C103.2729943 33.58868157 92.46624559 33.60146051 81.65946059 33.61867831 C70.80051206 33.63562153 59.94164284 33.63727541 49.08268853 33.62445967 C43.19832591 33.61791294 37.31415075 33.61787429 31.42980576 33.63516617 C26.04536997 33.65082656 20.66127139 33.64810538 15.27684418 33.6305979 C13.32664874 33.62751246 11.37642857 33.6312181 9.42626228 33.64231806 C6.77874896 33.65639175 4.13242622 33.64589045 1.48495388 33.6292057 C0.72477448 33.63914206 -0.03540492 33.64907842 -0.81862006 33.65931588 C-6.27171634 33.58647763 -9.44273846 32.21543906 -13.95524979 29.13142776 C-18.68932328 23.89903075 -19.52675545 20.30627945 -19.50993729 13.32674026 C-18.56617422 7.8901333 -15.1576161 4.51421212 -10.95524979 1.13142776 C-7.25924014 -0.10057545 -3.84861593 -0.00882773 0 0 Z " fill="#F9F9F9" transform="translate(249.95524978637695,817.8685722351074)"/>
<path d="M0 0 C0.8221489 -0.00235223 1.6442978 -0.00470446 2.49136031 -0.00712797 C5.27614342 -0.01384226 8.06088015 -0.01335902 10.8456707 -0.01294994 C12.85047377 -0.01624706 14.85527618 -0.01997231 16.86007774 -0.02409142 C22.39268157 -0.03413693 27.92527455 -0.03783231 33.45788622 -0.04048073 C39.41580132 -0.04437628 45.37370776 -0.05395515 51.33161736 -0.0626936 C65.05124064 -0.08154431 78.77086547 -0.09171756 92.49049815 -0.10015428 C99.26841276 -0.10435874 106.04632648 -0.10958102 112.82424034 -0.11483881 C136.01985895 -0.13273108 159.21547781 -0.14772737 182.41110229 -0.155159 C183.86781335 -0.15563376 185.3245244 -0.15610964 186.78123545 -0.15658666 C187.50364412 -0.15682303 188.22605278 -0.15705941 188.97035262 -0.15730295 C192.63052335 -0.15850417 196.29069407 -0.15971961 199.95086479 -0.16094494 C200.67724134 -0.16118509 201.40361788 -0.16142524 202.15200584 -0.16167267 C225.70312682 -0.16956568 249.25419743 -0.19299647 272.80529642 -0.22550088 C297.6969244 -0.2597928 322.58852291 -0.27950959 347.4801749 -0.28280324 C350.21238765 -0.28322078 352.94460039 -0.28370035 355.67681313 -0.28422642 C356.68595597 -0.28441121 356.68595597 -0.28441121 357.71548555 -0.28459973 C368.54637808 -0.28693265 379.37721218 -0.30259788 390.20808387 -0.32306826 C401.09417376 -0.34331663 411.98019005 -0.34847465 422.86629505 -0.33929763 C428.76494809 -0.33474207 434.66341123 -0.33671212 440.56203842 -0.35605907 C445.96078645 -0.37361383 451.35920498 -0.37275556 456.75795613 -0.35716178 C458.71226931 -0.35477399 460.66660484 -0.35916954 462.62088372 -0.37099043 C465.27636918 -0.38605926 467.93067958 -0.37647179 470.58613586 -0.36076355 C471.34586429 -0.37098576 472.10559272 -0.38120796 472.88834321 -0.39173993 C479.58718965 -0.30518503 484.9035749 1.809076 489.60809135 6.63422108 C492.44125536 11.16728349 492.89953338 15.82629112 492.17059135 21.13422108 C489.70784351 25.96499569 485.73591945 30.80477656 480.4850567 32.76272559 C477.04267464 33.31526331 473.61569876 33.27370081 470.13914585 33.26564884 C468.90960925 33.26872779 468.90960925 33.26872779 467.65523353 33.27186894 C464.89086258 33.27755235 462.12654124 33.27608004 459.36216545 33.27466297 C457.36729812 33.27724583 455.3724313 33.28025877 453.37756521 33.28366637 C447.88175259 33.2917488 442.38595302 33.29352663 436.89013517 33.29426384 C430.96840397 33.29611221 425.04667959 33.30365841 419.12495232 33.31039906 C405.49492778 33.32470019 391.86490425 33.33050983 378.23487377 33.335091 C371.50066754 33.33742653 364.76646217 33.34102912 358.0322566 33.34478638 C334.98399199 33.35762146 311.93572786 33.36834116 288.88745975 33.37178898 C287.44056841 33.37201061 285.99367707 33.3722324 284.54678573 33.37245433 C283.09638754 33.37267497 281.64598934 33.37289545 280.19559115 33.37311578 C277.28580932 33.37355833 274.37602748 33.37400545 271.46624565 33.37445545 C270.74478865 33.37456484 270.02333164 33.37467423 269.2800123 33.37478694 C245.88078292 33.37841849 222.48158449 33.39434244 199.08236696 33.41764582 C174.3477362 33.44223414 149.61312313 33.45596133 124.87847978 33.4571569 C122.16400961 33.45732835 119.44953944 33.45754378 116.73506927 33.45779133 C116.0666824 33.4578471 115.39829553 33.45790287 114.70965452 33.45796032 C104.61417933 33.45904026 94.5187328 33.46835454 84.42326736 33.48197651 C72.94245308 33.49735222 61.46169187 33.50251289 49.98086926 33.49423841 C44.12083818 33.49032307 38.26091408 33.4913046 32.40089607 33.50529575 C27.03871782 33.5179815 21.67672751 33.51688415 16.31454972 33.50470504 C14.3724293 33.50273879 12.4302958 33.50586901 10.48819377 33.5145494 C7.85175314 33.52558921 5.21598198 33.51819101 2.57956028 33.50615788 C1.82258957 33.51375307 1.06561886 33.52134826 0.28570965 33.52917361 C-5.37291902 33.47327976 -10.19724117 32.40048186 -14.57159615 28.63422108 C-18.94927133 22.83757532 -19.44374689 18.22186415 -18.82940865 11.13422108 C-15.45483964 2.69779857 -8.4450437 -0.01619238 0 0 Z " fill="#FAFAFA" transform="translate(249.82940864562988,748.8657789230347)"/>
<path d="M0 0 C0.83127475 -0.00465992 1.6625495 -0.00931984 2.51901439 -0.01412097 C5.31690265 -0.0261141 8.11430918 -0.01665891 10.91220188 -0.00736332 C12.9333962 -0.01153434 14.95458817 -0.01701058 16.97577578 -0.02368313 C22.53971291 -0.03818679 28.10350254 -0.03387767 33.66744792 -0.02651632 C39.66413681 -0.02179911 45.66079311 -0.03428163 51.65747166 -0.04453373 C62.72947009 -0.06075936 73.80142973 -0.06316116 84.87343511 -0.05822874 C95.1019453 -0.05367425 105.33043794 -0.05426738 115.55894756 -0.06006908 C116.93017708 -0.06082594 118.30140659 -0.06158192 119.67263611 -0.06233703 C121.73887169 -0.0634822 123.80510727 -0.06463208 125.87134284 -0.06579627 C145.08522753 -0.07650374 164.29910637 -0.08122398 183.51299286 -0.07332611 C184.237513 -0.07302894 184.96203313 -0.07273176 185.70850842 -0.07242559 C191.59239027 -0.06997657 197.47627204 -0.06736502 203.36015381 -0.06474145 C226.31361188 -0.05463814 249.26699681 -0.06299502 272.22044468 -0.086236 C298.00086718 -0.11229705 323.78124564 -0.12515965 349.56168181 -0.11804825 C352.30953951 -0.11733217 355.05739722 -0.11665779 357.80525494 -0.1160078 C358.48186163 -0.115838 359.15846833 -0.11566819 359.85557826 -0.11549323 C370.07755314 -0.11318844 380.29948718 -0.12117581 390.5214529 -0.13429928 C402.14391615 -0.14919404 413.76630028 -0.1497005 425.38876455 -0.13222837 C431.32161242 -0.12368853 437.25427713 -0.12164147 443.18711567 -0.13687992 C448.61464102 -0.15064821 454.04182494 -0.14606556 459.46933014 -0.12664068 C461.43629897 -0.12285612 463.40329464 -0.12587268 465.37023973 -0.13625234 C468.03796767 -0.14933268 470.7045015 -0.13791935 473.37217712 -0.12025452 C474.14111507 -0.12990503 474.91005302 -0.13955554 475.70229211 -0.14949849 C480.86477662 -0.07900261 483.76268299 1.14245351 487.74900913 4.38031673 C491.72079476 8.78148459 493.16715966 12.16988553 493.10057163 18.18500423 C492.31225667 23.10759325 489.23295956 27.02730311 485.62400913 30.31781673 C481.42834251 32.69536116 477.43820383 32.5256275 472.76531792 32.52012444 C471.52529868 32.52455157 471.52529868 32.52455157 470.26022854 32.52906814 C467.46605863 32.53778999 464.67192997 32.53934258 461.87774754 32.54094601 C459.86383153 32.54567487 457.84991647 32.55082549 455.83600253 32.55636364 C450.28285807 32.57029737 444.72972018 32.57786112 439.17656267 32.58433664 C434.41824875 32.59069975 429.65994566 32.60077092 424.90163849 32.6108973 C409.22322719 32.64424831 393.54480813 32.66578727 377.86637381 32.68409714 C373.78555923 32.68886463 369.70474496 32.69387335 365.62393069 32.69890237 C340.29731389 32.72994699 314.97069446 32.75656708 289.64406395 32.77332115 C283.77564394 32.77725844 277.90722397 32.78127028 272.03880405 32.78534603 C271.30972071 32.7858477 270.58063736 32.78634937 269.82946058 32.78686624 C246.1879917 32.8032863 222.54662628 32.84174579 198.9052083 32.89263314 C174.60450622 32.9448443 150.30385924 32.97763414 126.00309993 32.98489868 C122.57147084 32.98592729 119.13984184 32.98716361 115.70821285 32.98851871 C114.6951403 32.98890577 114.6951403 32.98890577 113.66160164 32.98930065 C102.78888556 32.99399715 91.91630577 33.01893819 81.04364072 33.05127014 C70.11621548 33.08329132 59.1889224 33.09278697 48.26145265 33.0808382 C42.34042268 33.07499894 36.41982052 33.07896492 30.49885464 33.10900784 C25.07966135 33.1362809 19.66120164 33.13593879 14.24199267 33.11349738 C12.28030021 33.11026309 10.3185594 33.11720864 8.35694764 33.13529461 C-9.37461125 33.28888356 -9.37461125 33.28888356 -15.04294091 27.9151693 C-18.63430361 23.35226838 -18.73986837 18.72832422 -18.63380337 13.10687923 C-18.0501174 8.94960569 -16.3356308 6.18315005 -13.25099087 3.38031673 C-8.96257861 0.15642901 -5.18619589 -0.04530497 0 0 Z " fill="#FEFEFE" transform="translate(249.25099086761475,541.619683265686)"/>
<path d="M0 0 C1.24357777 -0.00654048 1.24357777 -0.00654048 2.51227832 -0.0132131 C5.29658987 -0.02418107 8.08040745 -0.01374012 10.86471558 -0.00342751 C12.87852291 -0.00688345 14.89232836 -0.01164759 16.90612984 -0.01760924 C22.44500939 -0.03015749 27.9837343 -0.02393143 33.52261448 -0.01465058 C39.49406048 -0.0078761 45.46547949 -0.01833337 51.43692017 -0.02659035 C62.46046865 -0.03917468 73.48397105 -0.03806258 84.50752133 -0.02985594 C94.69090209 -0.02231192 104.87426473 -0.02033793 115.05764771 -0.02392387 C115.73290175 -0.02415303 116.40815579 -0.02438218 117.10387208 -0.02461828 C119.84488704 -0.02555229 122.585902 -0.02650748 125.32691694 -0.02749758 C151.04441377 -0.03667642 176.76187913 -0.02835127 202.4793711 -0.01220688 C225.33228274 0.00203014 248.18514422 0.00075626 271.03805542 -0.01358986 C296.70824643 -0.02965066 322.37840963 -0.03602548 348.04860497 -0.02675307 C350.78465143 -0.0257909 353.52069791 -0.02485238 356.25674438 -0.02392387 C356.93043828 -0.02368664 357.60413217 -0.02344941 358.29824103 -0.02320499 C368.47570062 -0.01979129 378.65314012 -0.02378578 388.83059692 -0.03136253 C400.401794 -0.03993388 411.97293472 -0.03752031 423.54412508 -0.0215203 C429.45062148 -0.01362295 435.35701596 -0.01057094 441.26351166 -0.02046776 C446.66689263 -0.0293848 452.07007689 -0.02453119 457.47343993 -0.0085351 C459.43162966 -0.0051746 461.38983589 -0.0069097 463.34801507 -0.01416247 C466.00371245 -0.02324675 468.65873052 -0.01396721 471.31439209 0 C472.4625572 -0.01053525 472.4625572 -0.01053525 473.63391757 -0.02128333 C478.38313744 0.02885242 481.62255228 0.86858148 485.65719604 3.37752342 C489.25838435 7.27881076 491.46847357 10.37706521 491.96969604 15.69002342 C491.48874342 21.36526434 489.96275916 25.53593183 485.59469604 29.25252342 C481.12476622 32.48608968 478.16160729 32.52117307 472.79096603 32.50895119 C471.96484119 32.51100382 471.13871635 32.51305645 470.28755742 32.51517129 C467.48926723 32.52087449 464.69102574 32.51937997 461.89273071 32.51796532 C459.8782528 32.52054706 457.8637754 32.52355968 455.84929872 32.52696872 C450.29002895 32.5350645 444.73077207 32.53682972 439.17149711 32.53756618 C433.18499131 32.53941228 427.19849227 32.54695736 421.21199036 32.5537014 C407.42733167 32.56801332 393.64267476 32.5738137 379.85801045 32.57839335 C373.04886534 32.58072774 366.23972107 32.58433022 359.43057661 32.58808872 C336.13063804 32.60092568 312.83069994 32.6116447 289.5307579 32.61509132 C288.06754347 32.61531296 286.60432904 32.61553474 285.14111461 32.61575668 C283.67432611 32.61597732 282.20753762 32.6161978 280.74074912 32.61641812 C277.79802179 32.61686068 274.85529447 32.61730779 271.91256714 32.6177578 C270.81812551 32.61792188 270.81812551 32.61792188 269.70157396 32.61808928 C246.0394798 32.62172051 222.37741627 32.63764226 198.71533385 32.66094816 C173.70938801 32.68553274 148.70345969 32.69926353 123.69750142 32.70045924 C120.95352888 32.7006307 118.20955634 32.70084613 115.4655838 32.70109367 C114.45208923 32.70117733 114.45208923 32.70117733 113.41812002 32.70126267 C102.53477428 32.70241433 91.65145991 32.7134461 80.76812477 32.72798073 C69.83279074 32.74233248 58.8974917 32.74533728 47.96215001 32.73754075 C42.0354234 32.73362357 36.10880257 32.73461578 30.18208885 32.7485981 C24.76005345 32.76127313 19.33820399 32.76019605 13.91616908 32.74800739 C11.95112662 32.74603924 9.98607128 32.74917995 8.02104697 32.75785175 C5.35606692 32.76887102 2.69175161 32.7615083 0.02679062 32.74946022 C-0.74140052 32.75705541 -1.50959167 32.76465061 -2.30106133 32.77247596 C-7.05880254 32.72583834 -10.30245465 31.89443304 -14.34280396 29.37752342 C-19.10201832 24.23242681 -19.75867515 19.98985129 -19.68655396 13.17439842 C-19.1694968 8.96743341 -17.55341024 6.12520508 -14.34280396 3.37752342 C-9.54053918 0.46620954 -5.49483023 -0.05041905 0 0 Z " fill="#FEFEFE" transform="translate(250.34280395507813,610.6224765777588)"/>
<path d="M0 0 C0.82614496 -0.00380567 1.65228993 -0.00761134 2.50346959 -0.01153234 C5.28985258 -0.02189224 8.07603353 -0.01793386 10.86243057 -0.01409245 C12.87308586 -0.01854246 14.8837394 -0.02385573 16.89439034 -0.02996117 C22.43388949 -0.04417996 27.97333264 -0.04580373 33.51284742 -0.04536426 C39.48164125 -0.04700906 45.45041177 -0.06006922 51.41919327 -0.07155704 C63.79720233 -0.0932415 76.17520029 -0.10181599 88.55322493 -0.10659205 C89.22615225 -0.10685322 89.89907958 -0.1071144 90.59239864 -0.10738349 C91.60379636 -0.1077739 91.60379636 -0.1077739 92.63562636 -0.1081722 C100.10431906 -0.11125328 107.57300821 -0.11775761 115.04169846 -0.12438488 C137.59606503 -0.14403412 160.15042778 -0.16043769 182.70480347 -0.16326141 C183.42637346 -0.16335547 184.14794346 -0.16344954 184.89137921 -0.16354645 C187.81564518 -0.16392493 190.73991115 -0.16428893 193.66417712 -0.16464943 C195.86521034 -0.16492115 198.06624355 -0.16519783 200.26727676 -0.16547489 C200.99458238 -0.16556291 201.721888 -0.16565094 202.47123318 -0.16574163 C225.32385867 -0.1686471 248.17639958 -0.19074242 271.02899551 -0.22699833 C296.69626139 -0.26771858 322.36346964 -0.29141994 348.03076959 -0.29172093 C350.76744478 -0.29181775 353.50411995 -0.29198447 356.24079514 -0.29220104 C356.91464718 -0.29224516 357.58849923 -0.29228927 358.28277104 -0.29233472 C369.13030154 -0.29345492 379.97774737 -0.31086876 390.8252506 -0.33402036 C401.72679484 -0.35685574 412.6282191 -0.36066846 423.52977821 -0.34647106 C429.43658304 -0.33928525 435.34309428 -0.34023183 441.24986649 -0.36288166 C446.65600306 -0.38341349 452.06161928 -0.38092527 457.46774986 -0.36000682 C459.42469491 -0.35650084 461.38167707 -0.36146855 463.33857343 -0.37571125 C465.99781188 -0.39382013 468.65520961 -0.38111886 471.31439209 -0.36076355 C472.4555337 -0.37960861 472.4555337 -0.37960861 473.61972868 -0.39883438 C479.40074806 -0.30403409 483.45124844 1.58378721 487.90887833 5.26006222 C491.17754879 9.02550153 492.64182391 13.1706838 492.35809708 18.20928097 C491.22640854 23.37568517 488.37743774 27.07449906 484.32692611 30.34446371 C480.27247447 32.61672613 477.06041683 32.82075817 472.54042625 32.7690134 C471.29268216 32.77863284 471.29268216 32.77863284 470.0197311 32.78844661 C467.22583739 32.80508057 464.43279742 32.79318745 461.63888931 32.78145504 C459.61825459 32.78749492 457.59762444 32.7952723 455.57700241 32.80464017 C450.01915367 32.82525859 444.46156212 32.82082182 438.90369201 32.81227899 C432.9117399 32.80735508 426.91985058 32.82535961 420.9279213 32.84035397 C409.18707907 32.86588166 397.44630896 32.86944284 385.70544948 32.86475344 C376.16426947 32.8610889 366.62311634 32.86460454 357.0819397 32.87320232 C355.71143032 32.87440712 354.34092094 32.87560952 352.97041156 32.87680953 C350.90521225 32.87862403 348.84001294 32.88044136 346.77481365 32.88227423 C327.5720037 32.89913498 308.36920387 32.90780352 289.16638756 32.89946079 C288.44238387 32.89914804 287.71838019 32.89883529 286.972437 32.89851306 C283.30285648 32.89690148 279.63327601 32.89520994 275.96369554 32.89348646 C275.23489872 32.89314428 274.5061019 32.8928021 273.75522033 32.89244956 C272.28141595 32.89175625 270.80761157 32.89105919 269.33380719 32.89035839 C246.40027399 32.87964345 223.46689456 32.89550548 200.53339005 32.9324255 C174.7701441 32.97385241 149.00699343 32.99531345 123.24371231 32.98727453 C120.49695771 32.98648383 117.75020311 32.98576074 115.00344849 32.98507977 C114.32712314 32.9848983 113.65079779 32.98471684 112.95397773 32.98452988 C102.74172156 32.98219739 92.52956155 32.99549852 82.31732941 33.01670361 C70.70370234 33.04079393 59.09024953 33.04338441 47.47661246 33.01912327 C41.54950259 33.00731862 35.62280713 33.00522083 29.69572449 33.02912807 C24.27107259 33.05075473 18.84718336 33.04474944 13.42256783 33.01660471 C11.45895742 33.01128548 9.49528812 33.01612312 7.53173532 33.03207643 C-10.2165053 33.1662803 -10.2165053 33.1662803 -15.88445961 27.79458654 C-19.41644729 23.30292216 -19.69318169 18.60887212 -19.61065292 13.05693722 C-18.71919221 8.25779531 -15.80182085 5.26934875 -12.09112167 2.26006222 C-8.30733517 -0.27389215 -4.38904405 -0.02179796 0 0 Z " fill="#FCFCFC" transform="translate(250.09112167358398,679.7399377822876)"/>
<path d="M0 0 C1.16047218 -0.00551503 1.16047218 -0.00551503 2.34438825 -0.01114148 C4.93901051 -0.02216215 7.53359271 -0.0260194 10.12823486 -0.02983093 C11.9877434 -0.03609676 13.84725068 -0.04274366 15.70675659 -0.04974365 C21.81501394 -0.07077058 27.9232715 -0.08114409 34.03155518 -0.09111023 C36.13512434 -0.09515816 38.23869337 -0.09927509 40.34226227 -0.10346031 C50.22434967 -0.12250819 60.1064296 -0.13674063 69.98853183 -0.14507228 C81.39312151 -0.15484656 92.7975172 -0.18117283 104.20203853 -0.22157317 C113.01915805 -0.25173529 121.83622196 -0.26654122 130.65339208 -0.26985329 C135.91864077 -0.27220347 141.18368211 -0.28116001 146.44887543 -0.30631447 C151.40325736 -0.32960207 156.3572955 -0.33382559 161.31171799 -0.32355309 C163.12733733 -0.3230578 164.94297364 -0.32937607 166.75854111 -0.34310913 C169.24324578 -0.36084801 171.72671927 -0.35371281 174.21142578 -0.34057617 C175.28129923 -0.35703004 175.28129923 -0.35703004 176.37278628 -0.37381631 C182.3274436 -0.29815251 187.53363648 1.54111865 191.92916942 5.59448451 C194.27482011 8.25678827 196.03597506 10.58641478 196.35968018 14.14717102 C196.57624268 15.72498352 196.57624268 15.72498352 196.79718018 17.33467102 C196.19540581 22.5787048 193.96810964 26.315999 190.35968018 30.14717102 C185.6678416 33.01972201 181.70522094 33.57902821 176.32026672 33.53485107 C175.52786998 33.54023661 174.73547323 33.54562215 173.91906446 33.55117089 C171.27288945 33.56543957 168.62721545 33.55834953 165.98101807 33.55122375 C164.08018085 33.55692789 162.17934707 33.56389232 160.27851868 33.57202148 C155.12149424 33.58996305 149.96463986 33.58878263 144.80759358 33.5830791 C140.50086601 33.57998875 136.19417117 33.58607799 131.88744825 33.59211785 C121.72687872 33.6061647 111.56639327 33.60460038 101.40582275 33.59321594 C90.92658945 33.58173386 80.44761204 33.59581162 69.96841246 33.62261242 C60.96781362 33.64476909 51.96729511 33.65140688 42.96667093 33.64553601 C37.59252097 33.64216525 32.21853505 33.64458954 26.84440804 33.66178703 C21.79065855 33.67725352 16.73728819 33.67330377 11.6835537 33.65448189 C9.83043617 33.65079523 7.97729058 33.6539067 6.12419891 33.66436768 C3.59105524 33.67757424 1.0591673 33.66603376 -1.47392273 33.64837646 C-2.20428409 33.65798147 -2.93464545 33.66758648 -3.68713897 33.67748255 C-9.17910607 33.59891329 -12.20599481 32.15539753 -16.64031982 29.14717102 C-20.99504385 24.44865299 -22.00881576 20.67350317 -21.91766357 14.42451477 C-21.32154903 9.52965869 -18.16459088 6.47431351 -14.64031982 3.33467102 C-9.873657 -0.14102062 -5.76407534 -0.00147151 0 0 Z " fill="#FBFBFB" transform="translate(545.6403198242188,333.8528289794922)"/>
<path d="M0 0 C0.79804029 -0.00638882 1.59608058 -0.01277764 2.41830391 -0.01936007 C5.07788553 -0.03455452 7.7359641 -0.0141867 10.39549255 0.00622559 C12.3079528 0.00272274 14.22041013 -0.00293768 16.13285828 -0.0105896 C21.31675966 -0.0248227 26.50012967 -0.00779089 31.68398023 0.01569557 C37.11173623 0.03581897 42.5394705 0.02992429 47.96725464 0.02758789 C57.08063001 0.02764144 66.1937979 0.04738709 75.30711365 0.07946777 C85.8414626 0.11637064 96.37553991 0.12514155 106.90994507 0.11817026 C117.04781864 0.11186422 127.18559912 0.12262074 137.3234539 0.14213562 C141.63631963 0.15030756 145.94913776 0.15301955 150.26201057 0.15144348 C155.34037078 0.15056428 160.418473 0.16479059 165.49676514 0.19067001 C167.35996691 0.19782929 169.22319613 0.19991658 171.08640862 0.19655228 C173.63063912 0.19283469 176.17411789 0.20759438 178.71826172 0.22705078 C179.82298627 0.21905889 179.82298627 0.21905889 180.95002848 0.21090555 C186.30972343 0.28157293 190.43459946 1.46792267 194.44017029 5.12145996 C198.31172365 10.09362214 199.21482226 13.33371166 198.79563904 19.62145996 C196.97506902 25.48774113 194.66678548 28.17106457 189.79563904 31.62145996 C186.1644738 32.83184838 182.82893678 32.77941136 179.04779053 32.78881836 C178.25049552 32.79461174 177.45320051 32.80040513 176.63174504 32.80637407 C173.95111208 32.82446014 171.27050019 32.83531301 168.58982849 32.84606934 C166.67135424 32.85724324 164.75288195 32.86875652 162.83441162 32.88058472 C156.52594218 32.91715844 150.21745268 32.94236275 143.90892029 32.96520996 C142.83580967 32.96915583 141.76269905 32.97310169 140.65706992 32.97716713 C130.53741765 33.01358457 120.41775842 33.04503008 110.29806232 33.06627655 C97.35231116 33.09385762 84.40710752 33.14463719 71.46158439 33.22675085 C62.35999342 33.28252865 53.25855108 33.31151058 44.1567952 33.32074976 C38.72031547 33.32700907 33.28447769 33.34514765 27.84818459 33.39213562 C22.73194478 33.4358096 17.61669779 33.44628802 12.50030327 33.43150711 C10.62498938 33.43183572 8.74963278 33.44410861 6.87448883 33.46935654 C-9.05665521 33.6724989 -9.05665521 33.6724989 -14.28890991 29.21923828 C-18.60831387 24.43410762 -19.69251785 20.1977014 -19.51295471 13.82849121 C-18.82607624 8.91600593 -15.81892867 5.91388593 -12.06478977 2.98842621 C-8.18264327 0.28998883 -4.64562087 -0.07920054 0 0 Z " fill="#FDFDFD" transform="translate(543.2043609619141,472.3785400390625)"/>
<path d="M0 0 C0.80449854 -0.00538554 1.60899709 -0.01077108 2.43787438 -0.01631981 C5.13094457 -0.03061601 7.82352439 -0.02349164 10.51661682 -0.01637268 C12.44848526 -0.02207538 14.38035034 -0.02903925 16.31221008 -0.03717041 C21.55806584 -0.05512794 26.80375456 -0.05392855 32.04963183 -0.04822803 C36.42847783 -0.04513995 40.80729156 -0.05122438 45.18613297 -0.05726677 C55.51588529 -0.0713189 65.84555493 -0.06974496 76.17530823 -0.05836487 C86.83347067 -0.04688248 97.49138152 -0.06095987 108.1495108 -0.08776134 C117.29954153 -0.10990935 126.44949324 -0.11655776 135.59954888 -0.11068493 C141.06478369 -0.10731207 146.52985721 -0.10975238 151.9950695 -0.12693596 C157.13416123 -0.14238863 162.27287989 -0.13846806 167.41195679 -0.11963081 C169.29774465 -0.11594031 171.18356006 -0.1190668 173.06932259 -0.1295166 C175.64446536 -0.14269678 178.21836766 -0.13120595 180.79345703 -0.11352539 C181.5390862 -0.1231304 182.28471537 -0.1327354 183.05293936 -0.14263147 C188.15695181 -0.07056579 191.01599264 1.20003851 194.96022034 4.38768005 C198.27686856 8.06288484 199.78452824 10.59562071 200.27272034 15.57518005 C199.88884597 20.25844729 198.67967707 23.56214459 195.96022034 27.38768005 C190.45313197 31.77087284 186.15674738 32.5365604 179.3195343 32.53485107 C178.53378438 32.53852776 177.74803446 32.54220445 176.93847394 32.54599255 C174.29695315 32.55703431 171.65547169 32.56087406 169.01393127 32.56468201 C167.12339147 32.57094626 165.23285289 32.57759303 163.34231567 32.58459473 C158.19962963 32.60200731 153.05695287 32.61255712 147.91424465 32.62080026 C144.70183844 32.62594969 141.48943512 32.63202544 138.27703094 32.63831139 C128.22782019 32.65736389 118.17861678 32.6715951 108.12939143 32.67992336 C96.52612142 32.68969807 84.92304206 32.71602355 73.31983924 32.75642425 C64.35328755 32.78657408 55.38679054 32.80139114 46.42018914 32.80470437 C41.06385611 32.80705605 35.70772675 32.81603208 30.35144806 32.84116554 C25.31172349 32.8644315 20.27233689 32.86868537 15.23257256 32.85840416 C13.38428308 32.85790834 11.53597705 32.8642424 9.68773842 32.87796021 C7.16103458 32.89566226 4.6355459 32.8885818 2.10884094 32.87542725 C1.01606578 32.89188112 1.01606578 32.89188112 -0.09878564 32.90866739 C-5.58837354 32.8398381 -8.6080935 31.3942398 -13.03977966 28.38768005 C-17.32159106 23.76783091 -18.45782451 19.96967836 -18.38743591 13.8056488 C-17.66323754 8.76880845 -14.95866104 4.83726401 -10.94338894 1.8039999 C-7.25404409 0.00441468 -4.01500802 -0.03226591 0 0 Z " fill="#FDFDFD" transform="translate(542.0397796630859,265.61231994628906)"/>
<path d="M0 0 C1.19065225 -0.00445668 1.19065225 -0.00445668 2.40535808 -0.0090034 C5.07996196 -0.01771349 7.75452121 -0.0192006 10.42913818 -0.02069092 C12.3408569 -0.0253175 14.25257468 -0.03034195 16.16429138 -0.03573608 C21.36895493 -0.04887852 26.57360556 -0.05530877 31.77828312 -0.05974674 C35.02836596 -0.06267484 38.27844525 -0.06677917 41.52852631 -0.07125092 C51.69253691 -0.08493146 61.85653942 -0.09459507 72.0205586 -0.09845281 C83.76191456 -0.10293337 95.50315409 -0.12047887 107.24447465 -0.1494534 C116.31375056 -0.17105861 125.38299369 -0.18115649 134.45229506 -0.18249393 C139.87172779 -0.1835429 145.29105116 -0.18947019 150.71045685 -0.20731354 C155.80921974 -0.22377384 160.90779085 -0.22595961 166.00657082 -0.21717453 C167.87784908 -0.21640303 169.74913756 -0.22076173 171.62038994 -0.23063278 C174.17578524 -0.24332185 176.73049819 -0.23749213 179.28588867 -0.22705078 C180.0257823 -0.23510719 180.76567593 -0.24316359 181.52799058 -0.25146413 C186.90419248 -0.20011686 191.02380335 0.97589658 195.04144287 4.64044189 C198.47858356 9.05469615 199.83733919 12.27522477 199.73284912 17.94903564 C199.11196818 21.99920084 197.2896951 25.27176495 194.39691162 28.14044189 C189.01147661 31.54444933 184.46390549 32.72625166 178.154953 32.64837646 C176.96991994 32.65773641 176.96991994 32.65773641 175.76094681 32.66728544 C173.13465227 32.68313944 170.50929571 32.67064157 167.88299561 32.65802002 C165.99171409 32.66344448 164.1004368 32.67056896 162.20916748 32.67926025 C157.08732783 32.69745665 151.96581137 32.69044158 146.84396625 32.67774391 C141.47806618 32.66759867 136.1121933 32.67701369 130.74629211 32.68328857 C121.73728479 32.6905599 112.72840876 32.68099009 103.71942139 32.66192627 C93.30943647 32.64015196 82.89976487 32.6472151 72.48978752 32.66923189 C63.54434068 32.68739263 54.59898807 32.68994109 45.65352875 32.67947721 C40.31407127 32.67324687 34.97476101 32.67239424 29.63531303 32.68562317 C24.61599201 32.69719103 19.59707445 32.68913867 14.57779694 32.66604614 C12.73758425 32.66076436 10.89733751 32.66226373 9.05713844 32.6710968 C6.54159858 32.68205693 4.0273449 32.66828404 1.5118866 32.64837646 C0.78678042 32.65729935 0.06167425 32.66622224 -0.68540484 32.67541552 C-6.15845202 32.59162075 -9.18387841 31.1402509 -13.60308838 28.14044189 C-18.05478707 23.22014334 -18.95936858 20.18837397 -18.88433838 13.67950439 C-18.33325153 8.70441476 -15.59611137 6.01524787 -11.97808838 2.82794189 C-7.91178041 -0.06127693 -4.85330609 -0.00561593 0 0 Z " fill="#FCFCFC" transform="translate(542.6030883789063,403.85955810546875)"/>
<path d="M0 0 C1.23266602 -0.00290039 1.23266602 -0.00290039 2.49023438 -0.00585938 C3.34037109 0.01798828 4.19050781 0.04183594 5.06640625 0.06640625 C5.91267578 0.05544922 6.75894531 0.04449219 7.63085938 0.03320312 C11.6124429 0.07997192 13.87240748 0.18117016 17.37988281 2.25708008 C20.31931446 5.3570126 20.21307332 6.92555513 20.1171875 11.14453125 C20.10107422 12.39492187 20.08496094 13.6453125 20.06835938 14.93359375 C20.00551758 16.88652344 20.00551758 16.88652344 19.94140625 18.87890625 C19.91884766 20.19632813 19.89628906 21.51375 19.87304688 22.87109375 C19.81410219 26.12484029 19.73185678 29.37630296 19.62890625 32.62890625 C20.86979004 32.58963013 20.86979004 32.58963013 22.13574219 32.54956055 C25.88327043 32.44563794 29.63049575 32.38059136 33.37890625 32.31640625 C35.33183594 32.25356445 35.33183594 32.25356445 37.32421875 32.18945312 C38.57460938 32.17333984 39.825 32.15722656 41.11328125 32.140625 C42.26538086 32.11444092 43.41748047 32.08825684 44.60449219 32.0612793 C47.62890625 32.62890625 47.62890625 32.62890625 50.00292969 34.87792969 C51.63130273 37.63296083 52.14111034 38.990578 52.16015625 42.1328125 C52.16789063 43.36741211 52.16789063 43.36741211 52.17578125 44.62695312 C52.1603125 45.47322266 52.14484375 46.31949219 52.12890625 47.19140625 C52.15210938 48.46661133 52.15210938 48.46661133 52.17578125 49.76757812 C52.170625 50.58935547 52.16546875 51.41113281 52.16015625 52.2578125 C52.15564453 53.0010376 52.15113281 53.7442627 52.14648438 54.51000977 C51.39292657 57.59497591 50.16990925 58.7545115 47.62890625 60.62890625 C44.60449219 61.08300781 44.60449219 61.08300781 41.11328125 61.01953125 C39.86289062 61.00664062 38.6125 60.99375 37.32421875 60.98046875 C35.37128906 60.93019531 35.37128906 60.93019531 33.37890625 60.87890625 C32.06148437 60.86085937 30.7440625 60.8428125 29.38671875 60.82421875 C26.13338317 60.77706896 22.88151 60.71126669 19.62890625 60.62890625 C19.64985352 61.45616211 19.67080078 62.28341797 19.69238281 63.13574219 C19.77552244 66.88333995 19.82756156 70.63074374 19.87890625 74.37890625 C19.91242188 75.68085938 19.9459375 76.9828125 19.98046875 78.32421875 C19.99335938 79.57460937 20.00625 80.825 20.01953125 82.11328125 C20.04047852 83.26538086 20.06142578 84.41748047 20.08300781 85.60449219 C19.62890625 88.62890625 19.62890625 88.62890625 17.89355469 91.00292969 C15.33351524 92.84099165 14.11894606 93.14239951 11.00390625 93.16015625 C10.1325 93.1653125 9.26109375 93.17046875 8.36328125 93.17578125 C7.4609375 93.1603125 6.55859375 93.14484375 5.62890625 93.12890625 C4.27539062 93.15210938 4.27539062 93.15210938 2.89453125 93.17578125 C2.023125 93.170625 1.15171875 93.16546875 0.25390625 93.16015625 C-0.53757812 93.15564453 -1.3290625 93.15113281 -2.14453125 93.14648438 C-5.30844083 92.41101417 -6.46363522 91.23837822 -8.37109375 88.62890625 C-8.82519531 85.60449219 -8.82519531 85.60449219 -8.76171875 82.11328125 C-8.74882812 80.86289063 -8.7359375 79.6125 -8.72265625 78.32421875 C-8.68914062 77.02226562 -8.655625 75.7203125 -8.62109375 74.37890625 C-8.60304688 73.06148438 -8.585 71.7440625 -8.56640625 70.38671875 C-8.51925646 67.13338317 -8.45345419 63.88151 -8.37109375 60.62890625 C-9.20358643 60.64985352 -10.0360791 60.67080078 -10.89379883 60.69238281 C-13.98555409 60.76059441 -17.07692572 60.81072349 -20.16918945 60.84863281 C-22.16448389 60.87861906 -24.15942957 60.92944411 -26.15429688 60.98046875 C-27.40791016 60.99335938 -28.66152344 61.00625 -29.953125 61.01953125 C-31.11046143 61.04047852 -32.26779785 61.06142578 -33.46020508 61.08300781 C-36.37109375 60.62890625 -36.37109375 60.62890625 -38.24511719 58.89355469 C-40.21723427 54.92708503 -39.84278229 50.98017435 -39.80859375 46.62890625 C-39.82857422 45.7265625 -39.84855469 44.82421875 -39.86914062 43.89453125 C-39.86849609 43.023125 -39.86785156 42.15171875 -39.8671875 41.25390625 C-39.86904053 40.46242187 -39.87089355 39.6709375 -39.87280273 38.85546875 C-39.15962762 35.69042882 -37.97036052 34.5381331 -35.37109375 32.62890625 C-32.43847656 32.17480469 -32.43847656 32.17480469 -29.07421875 32.23828125 C-27.26630859 32.25761719 -27.26630859 32.25761719 -25.421875 32.27734375 C-24.16761719 32.31085938 -22.91335938 32.344375 -21.62109375 32.37890625 C-20.35136719 32.39695312 -19.08164062 32.415 -17.7734375 32.43359375 C-14.63856298 32.48073472 -11.50520815 32.54652961 -8.37109375 32.62890625 C-8.39204102 31.83718018 -8.41298828 31.0454541 -8.43457031 30.22973633 C-8.51784842 26.63375607 -8.56979266 23.03797889 -8.62109375 19.44140625 C-8.67136719 17.57258789 -8.67136719 17.57258789 -8.72265625 15.66601562 C-8.73554688 14.46396484 -8.7484375 13.26191406 -8.76171875 12.0234375 C-8.78266602 10.91846924 -8.80361328 9.81350098 -8.82519531 8.67504883 C-8.04064153 3.41221144 -5.5051463 -0.00537087 0 0 Z " fill="#FCFCFC" transform="translate(484.37109375,71.37109375)"/>
<path d="M0 0 C1.65 0.66 3.3 1.32 5 2 C1.44589512 5.44586585 -1.92030877 5.41779353 -6.6182251 5.36076355 C-7.38935064 5.36332682 -8.16047618 5.3658901 -8.95496917 5.36853105 C-11.54082967 5.37347546 -14.12610728 5.35696544 -16.71191406 5.34057617 C-18.56469713 5.33973004 -20.41748119 5.34020477 -22.27026367 5.34190369 C-27.30301202 5.34276561 -32.33554654 5.32510792 -37.36824512 5.30418181 C-42.62665032 5.28544787 -47.88506023 5.28366716 -53.14349365 5.28010559 C-63.1023778 5.27077548 -73.06116334 5.24614859 -83.02000403 5.21605712 C-94.35723117 5.18254321 -105.69446298 5.16603467 -117.03172731 5.15097082 C-140.35453958 5.1195999 -163.67726427 5.06682059 -187 5 C-187 4.67 -187 4.34 -187 4 C-125.95 4 -64.9 4 -2 4 C-1.34 2.68 -0.68 1.36 0 0 Z " fill="#E9E9E9" transform="translate(729,362)"/>
<path d="M0 0 C3.34821429 6.96428571 3.34821429 6.96428571 2 11 C0.7625 10.62875 -0.475 10.2575 -1.75 9.875 C-5.13262618 9.01015573 -5.13262618 9.01015573 -8.5 9.875 C-9.2425 10.431875 -9.2425 10.431875 -10 11 C-10 10.34 -10 9.68 -10 9 C-10.66 8.67 -11.32 8.34 -12 8 C-10.37982158 6.66081194 -8.75370657 5.3288031 -7.125 4 C-6.22007812 3.2575 -5.31515625 2.515 -4.3828125 1.75 C-2 0 -2 0 0 0 Z " fill="#1E1F1F" transform="translate(274,382)"/>
<path d="M0 0 C0.33 0.99 0.66 1.98 1 3 C-0.28240725 5.56481449 -1.55444325 7.57158005 -3.625 9.5625 C-5.29741037 11.31092902 -5.47505598 12.67524792 -6 15 C-6.66 15.66 -7.32 16.32 -8 17 C-10.33333333 17 -12.66666667 17 -15 17 C-14.25234375 16.27554688 -13.5046875 15.55109375 -12.734375 14.8046875 C-11.7393131 13.82840035 -10.74453663 12.85182223 -9.75 11.875 C-9.25886719 11.400625 -8.76773438 10.92625 -8.26171875 10.4375 C-4.97999929 7.1995368 -2.43920408 3.91434179 0 0 Z " fill="#DADADA" transform="translate(782,898)"/>
<path d="M0 0 C0.33 0 0.66 0 1 0 C4.53898462 9.74955568 4.53898462 9.74955568 2.4375 14.625 C0 17 0 17 -4 18 C-2.68 12.06 -1.36 6.12 0 0 Z " fill="#2D2D2D" transform="translate(490,453)"/>
<path d="M0 0 C2 1 2 1 3.125 3 C4.28434184 6.97488632 4.54978113 10.88472651 4 15 C3.34 15.66 2.68 16.32 2 17 C0.18808118 15.18808118 0.5276487 12.27648701 0.28125 9.8125 C0.18001957 7.9832467 0.18001957 7.9832467 -1 7 C-0.71269945 4.66055264 -0.38063221 2.3260857 0 0 Z " fill="#E0E2E1" transform="translate(738,824)"/>
<path d="M0 0 C3.465 1.98 3.465 1.98 7 4 C2.81538462 8.92307692 2.81538462 8.92307692 -1.3125 9.3125 C-2.6428125 9.1578125 -2.6428125 9.1578125 -4 9 C-2.94124926 5.59687262 -1.99097846 2.98646769 0 0 Z " fill="#232423" transform="translate(434,382)"/>
<path d="M0 0 C0.99 0.66 1.98 1.32 3 2 C3.53189865 7.40763629 3.35406327 10.52791564 0 15 C-0.99 14.67 -1.98 14.34 -3 14 C-2.67 12.02 -2.34 10.04 -2 8 C-1.34 8 -0.68 8 0 8 C0 5.36 0 2.72 0 0 Z " fill="#E6E8E7" transform="translate(739,760)"/>
<path d="M0 0 C0.99 0 1.98 0 3 0 C4.69192787 2.58765439 5.00033706 3.98314689 4.9375 7.125 C4 10 4 10 1.4375 11.375 C0.633125 11.58125 -0.17125 11.7875 -1 12 C-1 3 -1 3 0 0 Z " fill="#1B1C1C" transform="translate(419,316)"/>
<path d="M0 0 C1.0625 1.8125 1.0625 1.8125 2 4 C1.67 4.99 1.34 5.98 1 7 C-0.32 6.67 -1.64 6.34 -3 6 C-3.66 7.65 -4.32 9.3 -5 11 C-6.65 10.67 -8.3 10.34 -10 10 C-6.66666667 6.66666667 -3.33333333 3.33333333 0 0 Z " fill="#202120" transform="translate(474,488)"/>
<path d="M0 0 C0.66 0 1.32 0 2 0 C1.45028435 3.84800954 -0.27037858 5.35309439 -3 8 C-4.23512079 10.13309192 -4.23512079 10.13309192 -5 12 C-5.99 12 -6.98 12 -8 12 C-8.33 10.68 -8.66 9.36 -9 8 C-8.34 8 -7.68 8 -7 8 C-6.731875 7.195625 -6.46375 6.39125 -6.1875 5.5625 C-5.5996875 4.2940625 -5.5996875 4.2940625 -5 3 C-4.01 2.67 -3.02 2.34 -2 2 C-1.34 1.34 -0.68 0.68 0 0 Z " fill="#1D1F1E" transform="translate(530,265)"/>
<path d="M0 0 C1.32 0.66 2.64 1.32 4 2 C4 2.66 4 3.32 4 4 C4.2784375 4.9590625 4.2784375 4.9590625 4.5625 5.9375 C5 8 5 8 4 11 C3.34 11 2.68 11 2 11 C1.731875 10.21625 1.46375 9.4325 1.1875 8.625 C0.15185568 5.71885077 0.15185568 5.71885077 -3 4 C-3 3.34 -3 2.68 -3 2 C-2.01 1.34 -1.02 0.68 0 0 Z " fill="#1C1E1D" transform="translate(739,819)"/>
<path d="M0 0 C3.95092059 -0.07409401 7.90157294 -0.12857406 11.85302734 -0.16479492 C13.85919374 -0.18732251 15.86516526 -0.2254357 17.87109375 -0.26367188 C19.12792969 -0.27333984 20.38476562 -0.28300781 21.6796875 -0.29296875 C22.84226074 -0.3086792 24.00483398 -0.32438965 25.20263672 -0.34057617 C26.1257666 -0.22818604 27.04889648 -0.1157959 28 0 C28.66 0.99 29.32 1.98 30 3 C29.34 3.66 28.68 4.32 28 5 C26.68 4.34 25.36 3.68 24 3 C24 2.34 24 1.68 24 1 C16.08 1 8.16 1 0 1 C0 0.67 0 0.34 0 0 Z " fill="#EFEFEF" transform="translate(504,104)"/>
<path d="M0 0 C0.99 0.33 1.98 0.66 3 1 C3 1.66 3 2.32 3 3 C4.65 2.67 6.3 2.34 8 2 C7.67 3.98 7.34 5.96 7 8 C3.51329166 6.8905928 0.22515763 5.73662334 -3 4 C-3 3.34 -3 2.68 -3 2 C-2.01 1.34 -1.02 0.68 0 0 Z " fill="#1F2020" transform="translate(455,234)"/>
<path d="M0 0 C0.66 0 1.32 0 2 0 C2 0.66 2 1.32 2 2 C3.32 1.67 4.64 1.34 6 1 C2 8.57142857 2 8.57142857 -2 11 C-2.66 10.67 -3.32 10.34 -4 10 C-3.67 8.68 -3.34 7.36 -3 6 C-3 6.66 -3 7.32 -3 8 C-2.34 8 -1.68 8 -1 8 C-0.67 5.36 -0.34 2.72 0 0 Z " fill="#202221" transform="translate(410,387)"/>
<path d="M0 0 C1.0725 0.309375 2.145 0.61875 3.25 0.9375 C6.74839585 1.99203713 6.74839585 1.99203713 9.375 2.4375 C9.91125 2.623125 10.4475 2.80875 11 3 C11.33 3.99 11.66 4.98 12 6 C8.30962722 7.37095624 6.29116165 6.60010967 2.75 5.0625 C1.85796875 4.68222656 0.9659375 4.30195312 0.046875 3.91015625 C-0.62859375 3.60980469 -1.3040625 3.30945313 -2 3 C-1.34 2.67 -0.68 2.34 0 2 C0 1.34 0 0.68 0 0 Z " fill="#212322" transform="translate(227,921)"/>
<path d="M0 0 C3.28788824 3.11016455 5.83735988 6.01618925 8 10 C7.01 11.485 7.01 11.485 6 13 C3.48916886 11.74458443 3.12874554 10.49936512 2 8 C1.34 8 0.68 8 0 8 C0 5.36 0 2.72 0 0 Z " fill="#222222" transform="translate(774,71)"/>
<path d="M0 0 C1.72526042 1.07421875 3.45052083 2.1484375 5.17578125 3.22265625 C4.84578125 4.21265625 4.51578125 5.20265625 4.17578125 6.22265625 C3.51578125 6.22265625 2.85578125 6.22265625 2.17578125 6.22265625 C2.17578125 6.88265625 2.17578125 7.54265625 2.17578125 8.22265625 C3.16578125 8.55265625 4.15578125 8.88265625 5.17578125 9.22265625 C3.19578125 9.55265625 1.21578125 9.88265625 -0.82421875 10.22265625 C-0.49421875 9.23265625 -0.16421875 8.24265625 0.17578125 7.22265625 C0.17578125 6.23265625 0.17578125 5.24265625 0.17578125 4.22265625 C-0.81421875 3.56265625 -1.80421875 2.90265625 -2.82421875 2.22265625 C-3.48421875 1.56265625 -4.14421875 0.90265625 -4.82421875 0.22265625 C-1.82421875 -0.77734375 -1.82421875 -0.77734375 0 0 Z " fill="#1D1E1E" transform="translate(761.82421875,60.77734375)"/>
<path d="M0 0 C0.66 0 1.32 0 2 0 C3.40912096 2.81824192 3.11183553 5.17251282 3.09765625 8.3203125 C3.09443359 9.57714844 3.09121094 10.83398438 3.08789062 12.12890625 C3.07951172 13.44761719 3.07113281 14.76632812 3.0625 16.125 C3.05748489 17.46484211 3.05292201 18.804686 3.04882812 20.14453125 C3.03701086 23.42973206 3.02053617 26.71484397 3 30 C2.67 30 2.34 30 2 30 C1.67 21.09 1.34 12.18 1 3 C0.34 2.67 -0.32 2.34 -1 2 C-0.67 1.34 -0.34 0.68 0 0 Z " fill="#2A2C2B" transform="translate(475,423)"/>
<path d="M0 0 C4.82675589 2.41337795 7.69984002 5.86062408 11 10 C9.68 10 8.36 10 7 10 C5.20283023 8.0274966 3.60871138 6.10741191 2 4 C1.01709032 2.98319689 0.02665213 1.97261781 -1 1 C-0.67 0.67 -0.34 0.34 0 0 Z " fill="#E6E6E6" transform="translate(466,246)"/>
<path d="M0 0 C1.98 0 3.96 0 6 0 C6.12375 1.134375 6.2475 2.26875 6.375 3.4375 C6.684375 5.2009375 6.684375 5.2009375 7 7 C7.66 7.33 8.32 7.66 9 8 C9.33 7.34 9.66 6.68 10 6 C10.66 6.66 11.32 7.32 12 8 C10.35 8.66 8.7 9.32 7 10 C3.60582235 6.87378374 1.3937282 4.43458973 0 0 Z " fill="#1E1F1E" transform="translate(206,906)"/>
<path d="M0 0 C3.59634744 3.49359465 6.83451967 7.11098131 10 11 C8.68 11 7.36 11 6 11 C3.75 8.5 3.75 8.5 2 6 C1.34 6.66 0.68 7.32 0 8 C-0.79953138 4.71303767 -1.09658936 3.28976808 0 0 Z " fill="#E8E8E8" transform="translate(294,392)"/>
<path d="M0 0 C2.97 1.98 2.97 1.98 6 4 C5.01 4.495 5.01 4.495 4 5 C4.26676204 6.98491642 4.26676204 6.98491642 5 9 C5.99 9.33 6.98 9.66 8 10 C5.69 10.33 3.38 10.66 1 11 C1.33 8.69 1.66 6.38 2 4 C1.34 4 0.68 4 0 4 C0 2.68 0 1.36 0 0 Z " fill="#1D1E1E" transform="translate(233,844)"/>
<path d="M0 0 C2 1 2 1 2 1 Z M-1 1 C-0.67 1.66 -0.34 2.32 0 3 C-0.66 3 -1.32 3 -2 3 C-2 3.66 -2 4.32 -2 5 C-4.31 6.32 -6.62 7.64 -9 9 C-9.33 7.68 -9.66 6.36 -10 5 C-7.03 3.68 -4.06 2.36 -1 1 Z " fill="#1D1F1E" transform="translate(244,745)"/>
<path d="M0 0 C0 2.64779693 -0.17195931 4.51587793 -1 7 C-1.99 7.495 -1.99 7.495 -3 8 C-4.0194119 8.98020375 -5.02246356 9.97803008 -6 11 C-6.99 10.34 -7.98 9.68 -9 9 C-6.03 6.03 -3.06 3.06 0 0 Z " fill="#262827" transform="translate(258,393)"/>
<path d="M0 0 C2.72869407 0.03287583 5.2966618 0.56397771 8 1 C3.25 5.875 3.25 5.875 1 7 C0.01 6.34 -0.98 5.68 -2 5 C-1.34 5 -0.68 5 0 5 C0 4.34 0 3.68 0 3 C-0.66 2.67 -1.32 2.34 -2 2 C-1.34 1.34 -0.68 0.68 0 0 Z " fill="#212121" transform="translate(455,480)"/>
<path d="M0 0 C3.36591866 1.44253657 5.51047079 3.33264727 8 6 C7.67 6.99 7.34 7.98 7 9 C4.03 6.69 1.06 4.38 -2 2 C-1.34 1.34 -0.68 0.68 0 0 Z " fill="#E2E2E2" transform="translate(298,412)"/>
<path d="M0 0 C-0.57344937 2.86724686 -0.8614515 3.8614515 -3 6 C-3.66 5.67 -4.32 5.34 -5 5 C-5.33 6.32 -5.66 7.64 -6 9 C-6.99 9 -7.98 9 -9 9 C-4 0 -4 0 0 0 Z " fill="#E8E8E8" transform="translate(241,819)"/>
<path d="M0 0 C0.99 0.33 1.98 0.66 3 1 C0.91560918 4.12658623 0.1536966 4.4231517 -3 6 C-3.99 7.485 -3.99 7.485 -5 9 C-5.99 9 -6.98 9 -8 9 C-6.40758592 4.70048197 -3.64459275 2.60328053 0 0 Z " fill="#E7E8E8" transform="translate(240,681)"/>
<path d="M0 0 C0.99 0.33 1.98 0.66 3 1 C2.4225 1.226875 1.845 1.45375 1.25 1.6875 C-1.55338976 3.32281069 -3.00442154 5.47226728 -5 8 C-5.66 8 -6.32 8 -7 8 C-7 9.65 -7 11.3 -7 13 C-7.66 11.68 -8.32 10.36 -9 9 C-7.87895467 7.68412059 -6.75303035 6.37239647 -5.625 5.0625 C-4.99851562 4.33160156 -4.37203125 3.60070312 -3.7265625 2.84765625 C-2 1 -2 1 0 0 Z " fill="#E6E7E7" transform="translate(534,335)"/>
<path d="M0 0 C0.33 0 0.66 0 1 0 C1 1.65 1 3.3 1 5 C1.66 5 2.32 5 3 5 C3.33 6.98 3.66 8.96 4 11 C3.01 11.495 3.01 11.495 2 12 C1.27232997 10.76115681 0.56845185 9.50831659 -0.125 8.25 C-0.51945313 7.55390625 -0.91390625 6.8578125 -1.3203125 6.140625 C-2 4 -2 4 -1.1171875 1.734375 C-0.74851562 1.16203125 -0.37984375 0.5896875 0 0 Z " fill="#1F2120" transform="translate(739,680)"/>
<path d="M0 0 C0.53625 0.37125 1.0725 0.7425 1.625 1.125 C-3.25577452 3.56538726 -5.90167068 4.59345421 -11.375 3.125 C-4.30720339 -1.58686441 -4.30720339 -1.58686441 0 0 Z " fill="#2C2D2C" transform="translate(387.375,429.875)"/>
<path d="M0 0 C3.37830553 1.44784523 5.64961028 3.16332276 8 6 C8.75 8.75 8.75 8.75 9 11 C8.01 11.495 8.01 11.495 7 12 C6.01993141 10.37554381 5.04097364 8.75041739 4.0625 7.125 C3.51722656 6.22007813 2.97195313 5.31515625 2.41015625 4.3828125 C1.56101983 2.94798364 0.74562276 1.49124552 0 0 Z " fill="#E6E6E6" transform="translate(779,77)"/>
<path d="M0 0 C4.99275057 1.27721526 7.57611908 3.17330957 11 7 C10.01 7.495 10.01 7.495 9 8 C6.6171875 6.78515625 6.6171875 6.78515625 3.875 5.0625 C2.96492187 4.49660156 2.05484375 3.93070313 1.1171875 3.34765625 C0.41851563 2.90292969 -0.28015625 2.45820312 -1 2 C-0.67 1.34 -0.34 0.68 0 0 Z " fill="#E7E7E7" transform="translate(757,56)"/>
<path d="M0 0 C0.66 0 1.32 0 2 0 C2 0.66 2 1.32 2 2 C3.32 1.67 4.64 1.34 6 1 C6.33 1.66 6.66 2.32 7 3 C7.98020375 4.0194119 8.97803008 5.02246356 10 6 C9.67 6.66 9.34 7.32 9 8 C4.58848129 6.65203595 2.61191481 4.77276583 0 1 C0 0.67 0 0.34 0 0 Z " fill="#E1E3E2" transform="translate(232,703)"/>
<path d="M0 0 C0.33 1.32 0.66 2.64 1 4 C0.01 4.33 -0.98 4.66 -2 5 C-3.38576923 6.62332967 -4.72641268 8.28724465 -6 10 C-6.66 8.68 -7.32 7.36 -8 6 C-5.36 4.02 -2.72 2.04 0 0 Z " fill="#EBECEC" transform="translate(403,403)"/>
<path d="M0 0 C0.99 0.66 1.98 1.32 3 2 C2.67 3.65 2.34 5.3 2 7 C1.01 7 0.02 7 -1 7 C-1.66 6.01 -2.32 5.02 -3 4 C-2.01 2.68 -1.02 1.36 0 0 Z " fill="#1D1F1E" transform="translate(293,304)"/>
<path d="M0 0 C0.99 0.33 1.98 0.66 3 1 C2.375 3.4375 2.375 3.4375 1 6 C-2.125 6.8125 -2.125 6.8125 -5 7 C-3.35 4.69 -1.7 2.38 0 0 Z " fill="#1D1D1D" transform="translate(299,296)"/>
<path d="M0 0 C0.99 0.33 1.98 0.66 3 1 C2.34 1 1.68 1 1 1 C1 1.66 1 2.32 1 3 C1.66 3.33 2.32 3.66 3 4 C1.35 5.65 -0.3 7.3 -2 9 C-2 8.34 -2 7.68 -2 7 C-2.66 7 -3.32 7 -4 7 C-3.67 6.01 -3.34 5.02 -3 4 C-2.34 4 -1.68 4 -1 4 C-0.67 2.68 -0.34 1.36 0 0 Z " fill="#212221" transform="translate(229,252)"/>
<path d="M0 0 C0.66 0.33 1.32 0.66 2 1 C1.67 5.29 1.34 9.58 1 14 C0.67 14 0.34 14 0 14 C-0.38873828 12.04434742 -0.76060833 10.08533496 -1.125 8.125 C-1.33382812 7.03445313 -1.54265625 5.94390625 -1.7578125 4.8203125 C-1.83773437 3.88960937 -1.91765625 2.95890625 -2 2 C-1.34 1.34 -0.68 0.68 0 0 Z " fill="#313131" transform="translate(230,755)"/>
<path d="M0 0 C2 2 2 2 2.125 4.625 C2.08375 5.40875 2.0425 6.1925 2 7 C1.34 7 0.68 7 0 7 C-0.33 7.66 -0.66 8.32 -1 9 C-1.99 8.01 -2.98 7.02 -4 6 C-2.68 4.02 -1.36 2.04 0 0 Z " fill="#262827" transform="translate(740,702)"/>
<path d="M0 0 C0.66 0.33 1.32 0.66 2 1 C2.19294408 5.82360189 1.75747614 9.49646738 0 14 C-0.66 13.67 -1.32 13.34 -2 13 C-2 12.01 -2 11.02 -2 10 C-1.34 10 -0.68 10 0 10 C0 6.7 0 3.4 0 0 Z " fill="#DEE0DF" transform="translate(740,622)"/>
<path d="M0 0 C2.75 0.25 2.75 0.25 5 1 C5 1.66 5 2.32 5 3 C4.34 3.66 3.68 4.32 3 5 C-0.625 4.625 -0.625 4.625 -4 4 C-2.3125 1.9375 -2.3125 1.9375 0 0 Z " fill="#292B2A" transform="translate(266,489)"/>
<path d="M0 0 C2.27183419 2.46115371 2.9736202 3.73620199 3.3125 7.125 C3 10 3 10 1 12 C0.03929566 9.11788698 -0.10581883 7.30149956 -0.0625 4.3125 C-0.05347656 3.50425781 -0.04445313 2.69601562 -0.03515625 1.86328125 C-0.02355469 1.24839844 -0.01195312 0.63351562 0 0 Z " fill="#E8EAE9" transform="translate(524,277)"/>
<path d="M0 0 C0.66 0.99 1.32 1.98 2 3 C0.75 4.5 0.75 4.5 -1 6 C-3.33333333 6 -5.66666667 6 -8 6 C-5.63379989 3.38472619 -3.057952 1.73559438 0 0 Z " fill="#EAEAEA" transform="translate(775,909)"/>
<path d="M0 0 C-0.66 1.32 -1.32 2.64 -2 4 C-3.65 4 -5.3 4 -7 4 C-7 3.34 -7 2.68 -7 2 C-7.99 1.67 -8.98 1.34 -10 1 C-6.59437148 0.22157062 -3.49234244 -0.09978121 0 0 Z " fill="#1C1E1D" transform="translate(276,491)"/>
<path d="M0 0 C0.66 0.33 1.32 0.66 2 1 C1.67 2.98 1.34 4.96 1 7 C-0.32 7.33 -1.64 7.66 -3 8 C-1.125 1.125 -1.125 1.125 0 0 Z " fill="#232323" transform="translate(489,463)"/>
<path d="M0 0 C4.31392226 0.4793247 6.16569547 1.7457985 9 5 C8.01 5.33 7.02 5.66 6 6 C6 5.34 6 4.68 6 4 C5.195625 3.71125 4.39125 3.4225 3.5625 3.125 C1 2 1 2 0 0 Z M2 4 C2.66 4 3.32 4 4 4 C3.67 4.66 3.34 5.32 3 6 C2.67 5.34 2.34 4.68 2 4 Z " fill="#1F2120" transform="translate(295,415)"/>
<path d="M0 0 C1.67542976 0.28604898 3.34385343 0.61781233 5 1 C5 2.32 5 3.64 5 5 C5.66 5.33 6.32 5.66 7 6 C4 6 4 6 1.3125 3.5 C0.549375 2.675 -0.21375 1.85 -1 1 C-0.67 0.67 -0.34 0.34 0 0 Z " fill="#1C1C1C" transform="translate(305,401)"/>
<path d="M0 0 C0.33 1.32 0.66 2.64 1 4 C-0.32 4.99 -1.64 5.98 -3 7 C-3.66 6.34 -4.32 5.68 -5 5 C-4 2 -4 2 -1.9375 0.8125 C-1.298125 0.544375 -0.65875 0.27625 0 0 Z " fill="#F1F1F1" transform="translate(254,393)"/>
<path d="M0 0 C1.74834267 2.622514 2.51529754 3.99484478 3 7 C2.67 7.66 2.34 8.32 2 9 C0.68 9 -0.64 9 -2 9 C-1.34 6.03 -0.68 3.06 0 0 Z " fill="#E4E4E4" transform="translate(426,363)"/>
<path d="M0 0 C0.33 0 0.66 0 1 0 C1.33 1.65 1.66 3.3 2 5 C2.66 5 3.32 5 4 5 C4 6.98 4 8.96 4 11 C3.01 11.33 2.02 11.66 1 12 C0.03929566 9.11788698 -0.10581883 7.30149956 -0.0625 4.3125 C-0.05347656 3.50425781 -0.04445313 2.69601562 -0.03515625 1.86328125 C-0.02355469 1.24839844 -0.01195312 0.63351562 0 0 Z " fill="#E7E9E8" transform="translate(524,346)"/>
<path d="M0 0 C3 0 3 0 6 1 C2.535 3.97 2.535 3.97 -1 7 C-1 3 -1 3 0 0 Z " fill="#E7E8E8" transform="translate(206,65)"/>
<path d="M0 0 C2.36841312 1.57894208 4.06745228 2.9754262 6 5 C5.01 6.485 5.01 6.485 4 8 C0.21284635 5.55667506 0.21284635 5.55667506 -0.8125 2.875 C-0.874375 2.25625 -0.93625 1.6375 -1 1 C-0.67 0.67 -0.34 0.34 0 0 Z " fill="#1D1D1D" transform="translate(249,480)"/>
<path d="M0 0 C2 3 2 3 2 7 C0.68 7.33 -0.64 7.66 -2 8 C-2 4.23312136 -1.76462683 3.08809695 0 0 Z " fill="#1F1F1F" transform="translate(485,472)"/>
<path d="M0 0 C0.99 0 1.98 0 3 0 C3.33 1.98 3.66 3.96 4 6 C3.01 6.33 2.02 6.66 1 7 C0.34 5.02 -0.32 3.04 -1 1 C-0.67 0.67 -0.34 0.34 0 0 Z " fill="#212322" transform="translate(243,474)"/>
<path d="M0 0 C0.99 0.33 1.98 0.66 3 1 C3.875 2.875 3.875 2.875 4 5 C2.5625 6.75 2.5625 6.75 1 8 C0.26919734 6.02253397 -0.39421747 4.01927511 -1 2 C-0.67 1.34 -0.34 0.68 0 0 Z " fill="#222222" transform="translate(236,464)"/>
<path d="M0 0 C-1.0975223 2.99324263 -1.67682892 3.84610901 -4.625 5.25 C-5.40875 5.4975 -6.1925 5.745 -7 6 C-7.33 5.01 -7.66 4.02 -8 3 C-2.25 0 -2.25 0 0 0 Z " fill="#E8E9E8" transform="translate(405,417)"/>
<path d="M0 0 C1.98 0.66 3.96 1.32 6 2 C5.67 2.99 5.34 3.98 5 5 C2.4375 6.1875 2.4375 6.1875 0 7 C-0.66 6.01 -1.32 5.02 -2 4 C-1.01 3.67 -0.02 3.34 1 3 C0.67 2.01 0.34 1.02 0 0 Z " fill="#1C1C1C" transform="translate(530,400)"/>
<path d="M0 0 C0.99 0 1.98 0 3 0 C3.33 1.32 3.66 2.64 4 4 C3.01 4.33 2.02 4.66 1 5 C1 5.99 1 6.98 1 8 C0.34 7.67 -0.32 7.34 -1 7 C-1.75 4.5625 -1.75 4.5625 -2 2 C-1.34 1.34 -0.68 0.68 0 0 Z " fill="#1F2120" transform="translate(522,355)"/>
<path d="M0 0 C1.670625 0.061875 1.670625 0.061875 3.375 0.125 C3.375 1.115 3.375 2.105 3.375 3.125 C1.6875 4.3125 1.6875 4.3125 -0.625 5.125 C-3.375 3.75 -3.375 3.75 -5.625 2.125 C-3.625 0.125 -3.625 0.125 0 0 Z " fill="#1F2120" transform="translate(731.625,330.875)"/>
<path d="M0 0 C1.2065625 0.0309375 1.2065625 0.0309375 2.4375 0.0625 C2.4375 1.0525 2.4375 2.0425 2.4375 3.0625 C3.0975 3.0625 3.7575 3.0625 4.4375 3.0625 C4.1075 4.0525 3.7775 5.0425 3.4375 6.0625 C-0.21566671 4.81273244 -1.34315836 4.39151247 -3.5625 1.0625 C-2.5625 0.0625 -2.5625 0.0625 0 0 Z " fill="#E9E9E9" transform="translate(531.5625,290.9375)"/>
<path d="M0 0 C0.66 0.33 1.32 0.66 2 1 C0.47793991 3.62901288 -0.84365964 5.84365964 -3 8 C-3.66 7.67 -4.32 7.34 -5 7 C-5 5.68 -5 4.36 -5 3 C-2.625 1.1875 -2.625 1.1875 0 0 Z " fill="#252626" transform="translate(321,279)"/>
<path d="M0 0 C0.66 0.33 1.32 0.66 2 1 C1.505 1.45375 1.01 1.9075 0.5 2.375 C-1.22609337 3.87635519 -1.22609337 3.87635519 -1 6 C-2.98 6.33 -4.96 6.66 -7 7 C-2.25 1.125 -2.25 1.125 0 0 Z " fill="#E8E9E8" transform="translate(240,750)"/>
<path d="M0 0 C0 0.66 0 1.32 0 2 C-3.72965139 4.03435531 -5.66905042 5 -10 5 C-10 4.01 -10 3.02 -10 2 C-8.7090864 1.66376204 -7.41723903 1.33110751 -6.125 1 C-5.40570313 0.814375 -4.68640625 0.62875 -3.9453125 0.4375 C-2 0 -2 0 0 0 Z " fill="#262626" transform="translate(450,505)"/>
<path d="M0 0 C1.32 1.32 2.64 2.64 4 4 C3.01 4.99 2.02 5.98 1 7 C0.01 6.01 -0.98 5.02 -2 4 C-1.34 2.68 -0.68 1.36 0 0 Z " fill="#1F2120" transform="translate(476,160)"/>
<path d="M0 0 C0.99 0 1.98 0 3 0 C2.67 2.64 2.34 5.28 2 8 C1.01 8.33 0.02 8.66 -1 9 C-2.25541557 5.23375329 -1.37061958 3.62811066 0 0 Z " fill="#EDEEEE" transform="translate(476,458)"/>
<path d="M0 0 C-1.65 1.65 -3.3 3.3 -5 5 C-5.33 4.01 -5.66 3.02 -6 2 C-6.66 1.67 -7.32 1.34 -8 1 C-3.375 -1.125 -3.375 -1.125 0 0 Z " fill="#E6E7E7" transform="translate(244,408)"/>
<path d="M0 0 C0.66 0.33 1.32 0.66 2 1 C1.6875 2.875 1.6875 2.875 1 5 C0.01 5.66 -0.98 6.32 -2 7 C-2.66 6.01 -3.32 5.02 -4 4 C-3.01 3.67 -2.02 3.34 -1 3 C-0.67 2.01 -0.34 1.02 0 0 Z " fill="#EFEFEF" transform="translate(301,289)"/>
<path d="M0 0 C0.66 0.99 1.32 1.98 2 3 C1.01 4.32 0.02 5.64 -1 7 C-1.99 5.68 -2.98 4.36 -4 3 C-2 1 -2 1 0 0 Z " fill="#F0F1F1" transform="translate(197,77)"/>
<path d="M0 0 C1.32 0.66 2.64 1.32 4 2 C4 2.66 4 3.32 4 4 C4.99 4.33 5.98 4.66 7 5 C6.01 5.33 5.02 5.66 4 6 C0.8125 4.0625 0.8125 4.0625 -2 2 C-1.34 1.34 -0.68 0.68 0 0 Z " fill="#212121" transform="translate(218,916)"/>
<path d="M0 0 C0.433125 0.9590625 0.433125 0.9590625 0.875 1.9375 C1.82823451 4.15206079 1.82823451 4.15206079 4 5 C3.67 5.99 3.34 6.98 3 8 C1.0625 7.25 1.0625 7.25 -1 6 C-1.875 4 -1.875 4 -2 2 C-1.34 1.34 -0.68 0.68 0 0 Z " fill="#F1F1F1" transform="translate(237,841)"/>
<path d="M0 0 C2.97 0.495 2.97 0.495 6 1 C6.33 2.65 6.66 4.3 7 6 C3.73539027 4.19587357 2.11070205 3.16605307 0 0 Z " fill="#EAECEB" transform="translate(233,774)"/>
<path d="M0 0 C1.32 0.66 2.64 1.32 4 2 C2.02 4.97 2.02 4.97 0 8 C-0.66 7.01 -1.32 6.02 -2 5 C-1.125 2.3125 -1.125 2.3125 0 0 Z " fill="#E6E8E7" transform="translate(245,400)"/>
<path d="M0 0 C1.65 1.32 3.3 2.64 5 4 C3.02 4.66 1.04 5.32 -1 6 C-0.67 4.02 -0.34 2.04 0 0 Z " fill="#1E1F1E" transform="translate(527,361)"/>
<path d="M0 0 C1.32 0.99 2.64 1.98 4 3 C4.66 2.67 5.32 2.34 6 2 C6.33 2.99 6.66 3.98 7 5 C6.01 5.99 5.02 6.98 4 8 C3.34 7.67 2.68 7.34 2 7 C1.26924352 4.6859378 0.59861742 2.35171131 0 0 Z " fill="#1D1F1E" transform="translate(520,337)"/>
<path d="M0 0 C3.69418201 1.231394 5.35109746 3.20791354 8 6 C7.67 6.99 7.34 7.98 7 9 C4.03595495 6.19195732 1.55500981 3.81684226 0 0 Z " fill="#ECECEC" transform="translate(407,293)"/>
<path d="M0 0 C0.66 0.99 1.32 1.98 2 3 C1.67 3.66 1.34 4.32 1 5 C1.99 5 2.98 5 4 5 C3.67 5.66 3.34 6.32 3 7 C2.01 6.67 1.02 6.34 0 6 C-0.38218767 4.34385343 -0.71395102 2.67542976 -1 1 C-0.67 0.67 -0.34 0.34 0 0 Z M-3 4 C-1.515 4.99 -1.515 4.99 0 6 C-0.33 6.66 -0.66 7.32 -1 8 C-1.66 6.68 -2.32 5.36 -3 4 Z " fill="#1F2120" transform="translate(445,128)"/>
<path d="M0 0 C0.99 0.33 1.98 0.66 3 1 C2.67 1.33 2.34 1.66 2 2 C2.99 3.485 2.99 3.485 4 5 C3.01 5.66 2.02 6.32 1 7 C0.01 5.35 -0.98 3.7 -2 2 C-1.34 1.34 -0.68 0.68 0 0 Z " fill="#1D1D1D" transform="translate(204,73)"/>
<path d="M0 0 C1.9375 0.8125 1.9375 0.8125 4 2 C4.33 2.99 4.66 3.98 5 5 C4.38125 4.814375 3.7625 4.62875 3.125 4.4375 C0.95839822 3.76313824 0.95839822 3.76313824 -1 5 C-0.67 3.35 -0.34 1.7 0 0 Z " fill="#EBEDEC" transform="translate(499,73)"/>
<path d="M0 0 C3.465 1.485 3.465 1.485 7 3 C5.3125 4.125 5.3125 4.125 3 5 C0.25 4.125 0.25 4.125 -2 3 C-1.34 2.67 -0.68 2.34 0 2 C0 1.34 0 0.68 0 0 Z " fill="#282A29" transform="translate(227,921)"/>
<path d="M0 0 C1.65 0.99 3.3 1.98 5 3 C2.8614515 5.1385485 1.86724686 5.42655063 -1 6 C-1.33 5.01 -1.66 4.02 -2 3 C-1.34 3 -0.68 3 0 3 C0 2.01 0 1.02 0 0 Z " fill="#EDEDED" transform="translate(211,914)"/>
<path d="M0 0 C0.99 0.99 1.98 1.98 3 3 C2.67 3.99 2.34 4.98 2 6 C0.68 6 -0.64 6 -2 6 C-1.34 4.02 -0.68 2.04 0 0 Z " fill="#272928" transform="translate(741,562)"/>
<path d="M0 0 C6.15234375 0.5859375 6.15234375 0.5859375 8 1 C8.33 1.66 8.66 2.32 9 3 C7.3125 3.6875 7.3125 3.6875 5 4 C2.25 2.625 2.25 2.625 0 1 C0 0.67 0 0.34 0 0 Z " fill="#2A2B2B" transform="translate(318,412)"/>
<path d="M0 0 C0.33 0.99 0.66 1.98 1 3 C-1.475 4.485 -1.475 4.485 -4 6 C-4.33 4.35 -4.66 2.7 -5 1 C-3 0 -3 0 0 0 Z " fill="#EAEAEA" transform="translate(413,409)"/>
<path d="M0 0 C2.475 0.99 2.475 0.99 5 2 C3 4 3 4 0.375 4.125 C-0.40875 4.08375 -1.1925 4.0425 -2 4 C-1.34 2.68 -0.68 1.36 0 0 Z " fill="#F3F3F3" transform="translate(729,362)"/>
<path d="M0 0 C2.4375 0.375 2.4375 0.375 5 1 C5.33 1.66 5.66 2.32 6 3 C5.34 3.66 4.68 4.32 4 5 C2.68 4.34 1.36 3.68 0 3 C0 2.01 0 1.02 0 0 Z " fill="#E4E6E5" transform="translate(528,104)"/>
<path d="M0 0 C0.66 0.66 1.32 1.32 2 2 C1.625 5.125 1.625 5.125 1 8 C0.34 8 -0.32 8 -1 8 C-1.125 2.25 -1.125 2.25 0 0 Z " fill="#212121" transform="translate(790,872)"/>
<path d="M0 0 C0.33 0 0.66 0 1 0 C1.33 3.63 1.66 7.26 2 11 C-0.475 10.01 -0.475 10.01 -3 9 C-2.67 8.34 -2.34 7.68 -2 7 C-1.34 7 -0.68 7 0 7 C0 4.69 0 2.38 0 0 Z " fill="#3E3E3E" transform="translate(230,831)"/>
<path d="M0 0 C0.75 1.75 0.75 1.75 1 4 C-0.9375 6.25 -0.9375 6.25 -3 8 C-3.75 6.25 -3.75 6.25 -4 4 C-2.0625 1.75 -2.0625 1.75 0 0 Z " fill="#F1F1F1" transform="translate(479,478)"/>
<path d="M0 0 C1.65 0.99 3.3 1.98 5 3 C4.34 4.65 3.68 6.3 3 8 C2.67 6.68 2.34 5.36 2 4 C1.34 4 0.68 4 0 4 C0 2.68 0 1.36 0 0 Z " fill="#1D1F1E" transform="translate(468,415)"/>
<path d="M0 0 C0.99 0.33 1.98 0.66 3 1 C4.1875 3.5625 4.1875 3.5625 5 6 C4.01 6.495 4.01 6.495 3 7 C2.34 6.67 1.68 6.34 1 6 C0.375 2.9375 0.375 2.9375 0 0 Z " fill="#EEF0EF" transform="translate(481,265)"/>
<path d="M0 0 C0.99 0.66 1.98 1.32 3 2 C3 3.32 3 4.64 3 6 C1.02 5.34 -0.96 4.68 -3 4 C-3 3.34 -3 2.68 -3 2 C-2.01 1.34 -1.02 0.68 0 0 Z " fill="#2C2E2D" transform="translate(455,234)"/>
<path d="M0 0 C-0.639375 0.28875 -1.27875 0.5775 -1.9375 0.875 C-4.15206079 1.82823451 -4.15206079 1.82823451 -5 4 C-6.98 3.34 -8.96 2.68 -11 2 C-7.00042393 -0.06874624 -4.43559483 -1.37656391 0 0 Z " fill="#CECECE" transform="translate(271,234)"/>
<path d="M0 0 C-0.33 1.98 -0.66 3.96 -1 6 C-2.32 5.34 -3.64 4.68 -5 4 C-5 3.34 -5 2.68 -5 2 C-2 0 -2 0 0 0 Z " fill="#262827" transform="translate(741,819)"/>
<path d="M0 0 C1.98 0.495 1.98 0.495 4 1 C3.67 1.99 3.34 2.98 3 4 C0.9375 4.6875 0.9375 4.6875 -1 5 C-0.67 3.35 -0.34 1.7 0 0 Z " fill="#E7E7E7" transform="translate(731,776)"/>
<path d="M0 0 C0.33 0.66 0.66 1.32 1 2 C0.34 2 -0.32 2 -1 2 C-1 2.99 -1 3.98 -1 5 C-3.5 6.6875 -3.5 6.6875 -6 8 C-4.73058503 4.08597051 -3.48832306 2.20927127 0 0 Z " fill="#D6D8D7" transform="translate(238,613)"/>
<path d="M0 0 C1.98 0 3.96 0 6 0 C6 0.66 6 1.32 6 2 C3.69 2.33 1.38 2.66 -1 3 C-0.67 2.01 -0.34 1.02 0 0 Z " fill="#F6F6F6" transform="translate(436,505)"/>
<path d="M0 0 C2.4375 1.1875 2.4375 1.1875 5 3 C5.8125 5.6875 5.8125 5.6875 6 8 C5.34 8 4.68 8 4 8 C2.21694476 5.36107824 1.00940379 3.02821137 0 0 Z " fill="#E6E7E6" transform="translate(237,474)"/>
<path d="M0 0 C1.32 0.33 2.64 0.66 4 1 C3.67 2.65 3.34 4.3 3 6 C1.02 5.34 -0.96 4.68 -3 4 C-2.01 3.67 -1.02 3.34 0 3 C0 2.01 0 1.02 0 0 Z " fill="#1B1D1C" transform="translate(532,434)"/>
<path d="M0 0 C0.99 0.66 1.98 1.32 3 2 C-0.465 3.485 -0.465 3.485 -4 5 C-4.33 4.01 -4.66 3.02 -5 2 C-2.6875 0.875 -2.6875 0.875 0 0 Z " fill="#E8E8E8" transform="translate(391,424)"/>
<path d="M0 0 C0.97110486 3.02121511 1.13617383 5.00463263 0 8 C-0.99 8.495 -0.99 8.495 -2 9 C-1.125 2.25 -1.125 2.25 0 0 Z " fill="#E1E3E2" transform="translate(526,411)"/>
<path d="M0 0 C-0.99 0.33 -1.98 0.66 -3 1 C-3.33 1.66 -3.66 2.32 -4 3 C-7.0625 3.625 -7.0625 3.625 -10 4 C-4.75 -1.425 -4.75 -1.425 0 0 Z " fill="#D8D8D8" transform="translate(539,405)"/>
<path d="M0 0 C0.66 0.66 1.32 1.32 2 2 C1.34 2 0.68 2 0 2 C-0.33 3.32 -0.66 4.64 -1 6 C-2.32 5.67 -3.64 5.34 -5 5 C-3.35 3.35 -1.7 1.7 0 0 Z " fill="#282A29" transform="translate(422,402)"/>
<path d="M0 0 C0.99 0 1.98 0 3 0 C2.67 1.98 2.34 3.96 2 6 C1.01 6.33 0.02 6.66 -1 7 C-0.67 4.69 -0.34 2.38 0 0 Z " fill="#232524" transform="translate(421,320)"/>
<path d="M0 0 C0.99 0.33 1.98 0.66 3 1 C1.71034824 2.37562854 0.37310707 3.70766393 -1 5 C-1.66 5 -2.32 5 -3 5 C-3 4.01 -3 3.02 -3 2 C-2.01 1.34 -1.02 0.68 0 0 Z " fill="#1E1E1E" transform="translate(222,58)"/>
</svg>
