<?xml version="1.0" encoding="UTF-8"?>
<svg version="1.1" xmlns="http://www.w3.org/2000/svg" width="626" height="626">
<path d="M0 0 C206.58 0 413.16 0 626 0 C626 206.58 626 413.16 626 626 C419.42 626 212.84 626 0 626 C0 419.42 0 212.84 0 0 Z " fill="#FDFDFD" transform="translate(0,0)"/>
<path d="M0 0 C111.87 0 223.74 0 339 0 C339.12099405 94.37535681 339.12099405 94.37535681 339.14648438 133.78125 C339.15235789 142.80078142 339.1584193 151.82031267 339.16479492 160.83984375 C339.16598179 162.53549241 339.16598179 162.53549241 339.16719264 164.2653966 C339.18023626 182.5091497 339.20388536 200.7528744 339.23145839 218.99661067 C339.25952493 237.72323235 339.27617891 256.44983916 339.28226548 275.17648101 C339.28637932 286.72938201 339.29936702 298.28220275 339.3237494 309.83507904 C339.33962199 317.76011644 339.3443969 325.68511242 339.34050413 333.61016455 C339.33858497 338.1807076 339.34150203 342.75111052 339.35761642 347.32162857 C339.37228108 351.51168816 339.37291003 355.7015142 339.36269668 359.89158484 C339.36143552 361.40188729 339.36518527 362.91220467 339.37464955 364.42247799 C339.48780263 383.60517425 334.37294053 398.91383597 321 413 C309.75119456 423.59670077 295.14779015 429.49085735 279.78033447 429.38768005 C278.80161558 429.39306559 277.82289669 429.39845113 276.81451964 429.40399987 C273.56143684 429.41821481 270.30876468 429.41119159 267.05566406 429.40405273 C264.71239904 429.40975976 262.36913679 429.4167253 260.02587891 429.42485046 C253.67858581 429.44276249 247.33143113 429.44161682 240.98412037 429.43590808 C235.00372686 429.43242046 229.02335028 429.44038644 223.04296204 429.44726873 C210.4715728 429.46097538 197.90024591 429.45556963 185.32885811 429.44408352 C173.85433867 429.43415899 162.37998067 429.44708151 150.90548614 429.47101771 C139.09645562 429.49546426 127.28750011 429.50500261 115.47844481 429.49836498 C108.85945167 429.4948843 102.24056659 429.49736724 95.62158966 429.51461601 C89.39326027 429.53013877 83.16523768 429.52607026 76.93692017 429.50731087 C74.65941169 429.50363941 72.38188021 429.506691 70.10439301 429.51719666 C49.54383169 429.60474995 32.66477269 426.86052315 17.02734375 412.15625 C3.48089208 397.74846325 -0.48151765 380.46178698 -0.36076355 361.24456787 C-0.36207418 359.67915988 -0.36470534 358.11375253 -0.36853105 356.54834867 C-0.37519734 352.2769818 -0.36329694 348.00584323 -0.34819686 343.73450541 C-0.33518469 339.11708671 -0.33962961 334.49967982 -0.34190369 329.88224792 C-0.34347316 321.89225998 -0.33409814 313.9023458 -0.31719017 305.9123764 C-0.29276039 294.36037734 -0.28499083 282.80841377 -0.2812262 271.25639167 C-0.27466795 252.51189066 -0.2547238 233.76742892 -0.22631836 215.02294922 C-0.19876156 196.81950066 -0.17757033 178.61606284 -0.16479492 160.41259766 C-0.16399093 159.27821499 -0.16318694 158.14383231 -0.16235858 156.97507441 C-0.15611994 148.10283807 -0.1502493 139.23060149 -0.14449489 130.35836482 C-0.11621785 86.9055405 -0.05585726 43.45281453 0 0 Z " fill="#141414" transform="translate(172,118)"/>
<path d="M0 0 C2.49043488 1.95838743 4.91532622 3.97442004 7.328125 6.02734375 C8.02679688 6.59195313 8.72546875 7.1565625 9.4453125 7.73828125 C27.77022266 22.92585271 39.634118 47.58475656 42.328125 71.02734375 C43.77546643 100.19490586 38.04972753 127.63353935 18.328125 150.02734375 C17.65265625 150.84589844 16.9771875 151.66445313 16.28125 152.5078125 C3.15460455 167.95797001 -15.89133747 179.49100714 -35.671875 184.02734375 C-36.53554688 184.2490625 -37.39921875 184.47078125 -38.2890625 184.69921875 C-59.33236052 189.21285369 -82.407495 186.48870364 -101.671875 177.02734375 C-103.29029297 176.2384375 -103.29029297 176.2384375 -104.94140625 175.43359375 C-112.24476407 171.69264213 -118.46765223 167.37285057 -124.671875 162.02734375 C-125.33445312 161.50914062 -125.99703125 160.9909375 -126.6796875 160.45703125 C-144.81116959 145.84907605 -157.81621268 120.77165794 -160.45703125 97.74609375 C-162.37101766 64.616729 -155.01788291 37.32629896 -132.671875 12.02734375 C-98.09214898 -24.27882968 -40.52269687 -29.91807298 0 0 Z " fill="#FAFAFA" transform="translate(400.671875,150.97265625)"/>
<path d="M0 0 C1.45666274 -0.00573832 1.45666274 -0.00573832 2.94275302 -0.01159257 C6.17589595 -0.02185828 9.40885916 -0.01794265 12.64201355 -0.01396179 C14.96867028 -0.01831184 17.29532558 -0.02349597 19.62197876 -0.02944946 C25.92785174 -0.04281973 32.23366472 -0.04342027 38.53954911 -0.04088616 C44.47782684 -0.03967936 50.41609455 -0.04589929 56.35436925 -0.05131962 C68.83602483 -0.0621817 81.31765337 -0.06003912 93.79931047 -0.05393478 C105.19761833 -0.0487681 116.59584066 -0.06001684 127.9941316 -0.07903299 C139.71949122 -0.09844365 151.44481044 -0.10666166 163.17018622 -0.10290974 C169.74440636 -0.10109956 176.31854819 -0.10370661 182.89275551 -0.11762428 C189.07751582 -0.13022794 195.26210539 -0.12823436 201.44686317 -0.11521339 C203.71069904 -0.11285354 205.97454702 -0.11556101 208.23836899 -0.12383652 C229.07599784 -0.19448908 246.74383791 2.21495864 262.42008972 17.38179016 C278.32153866 35.38389134 278.96305847 51.48448959 278.96305847 76.26069641 C167.09305847 76.26069641 55.22305847 76.26069641 -60.03694153 76.26069641 C-60.03694153 51.64603733 -59.67738675 34.53088473 -42.49787903 16.65376282 C-30.5133902 5.22604001 -16.33540659 -0.06923923 0 0 Z " fill="#131313" transform="translate(232.0369415283203,31.739303588867188)"/>
<path d="M0 0 C0.66 0.33 1.32 0.66 2 1 C1.68190279 1.89344028 1.68190279 1.89344028 1.35737938 2.80492985 C-1.42356309 11.57035947 -1.4236142 20.02400132 -1.38768005 29.10421753 C-1.39185811 30.8286162 -1.3973382 32.55301213 -1.40399987 34.277403 C-1.4184113 38.9933653 -1.41422323 43.7091522 -1.40683305 48.42512393 C-1.40209302 53.51999458 -1.41461862 58.61482774 -1.42485046 63.70968628 C-1.4420274 73.68218676 -1.44288076 83.65462419 -1.43763756 93.62713562 C-1.43359258 101.73460616 -1.43504332 109.84205809 -1.44038582 117.94952774 C-1.44150845 119.68181356 -1.44150845 119.68181356 -1.44265376 121.44909505 C-1.44418528 123.79534967 -1.44572362 126.14160429 -1.44726873 128.48785891 C-1.46098977 150.47975754 -1.45555885 172.47162058 -1.44408352 194.4635184 C-1.43415153 214.57143593 -1.44709196 234.67926145 -1.47101771 254.78716479 C-1.49541519 275.4476021 -1.50501498 296.10799657 -1.49836498 316.768448 C-1.49487422 328.36226968 -1.49709547 339.95602061 -1.51461601 351.54983139 C-1.52934606 361.41929524 -1.52996286 371.28863849 -1.5125451 381.15809999 C-1.50403943 386.19062468 -1.50187509 391.222934 -1.51719666 396.25544739 C-1.53106642 400.86831706 -1.52625118 405.48078732 -1.50695742 410.09363402 C-1.50320413 411.75637767 -1.5060999 413.41915348 -1.51656907 415.0818684 C-1.64257287 436.63801739 5.85743695 454.45837127 20.9296875 469.98828125 C33.1511332 481.42370036 48.25077604 487.14073641 64.75056458 487.15821838 C66.23317694 487.16562535 66.23317694 487.16562535 67.74574107 487.17318195 C71.06071697 487.18855114 74.3756735 487.19691605 77.69067383 487.20532227 C80.06576711 487.21490124 82.4408587 487.22491133 84.81594849 487.23532104 C90.59783949 487.25956444 96.37973328 487.27930766 102.16164754 487.29707379 C108.89010709 487.31799065 115.61854142 487.34444556 122.3469797 487.37124526 C134.34580921 487.41889034 146.34465034 487.46216287 158.34350586 487.50268555 C169.99846297 487.54205617 181.65340977 487.58348615 193.30834961 487.62768555 C194.38617808 487.63177196 194.38617808 487.63177196 195.48578087 487.63594092 C199.090589 487.64962065 202.69539697 487.66334088 206.30020487 487.67708123 C236.20011511 487.79099756 266.10004747 487.89774475 296 488 C292.22054627 491.93497849 288.70824476 494.47093233 283.75 496.6875 C283.13253906 496.98205078 282.51507813 497.27660156 281.87890625 497.58007812 C273.73373308 501.31678128 265.77949099 502.29804666 256.88713074 502.26742554 C255.90785514 502.27195665 254.92857954 502.27648776 253.91962892 502.28115618 C250.65885417 502.29375276 247.39824746 502.29218288 244.13745117 502.29052734 C241.79108975 502.29651551 239.44473029 502.30332172 237.09837341 502.31088257 C230.73878875 502.32851938 224.37925793 502.33323695 218.01965117 502.33451414 C213.37490711 502.33617662 208.73017495 502.34197977 204.0854351 502.3481871 C191.58646708 502.36478057 179.08752749 502.37227356 166.58854886 502.37084763 C165.87991123 502.37076772 165.17127361 502.3706878 164.44116211 502.37060547 C163.7316518 502.37052371 163.0221415 502.37044195 162.29113088 502.37035771 C150.79580294 502.36954501 139.30060609 502.38868255 127.80531605 502.4168822 C115.9805141 502.44565961 104.15577599 502.45941987 92.33093816 502.45769465 C85.70080738 502.45703248 79.07079744 502.46284208 72.44069481 502.48405075 C66.20336949 502.50345922 59.9663339 502.50353945 53.72899818 502.48901749 C51.44580791 502.48693163 49.16259936 502.49161686 46.87944031 502.5037384 C24.73357415 502.61365658 24.73357415 502.61365658 15 498 C13.55560688 497.33252023 13.55560688 497.33252023 12.08203411 496.65155602 C-3.35985119 489.19752792 -13.12438577 475.77833483 -19 460 C-20.49778087 454.70204335 -21.250626 450.12666219 -21.25447559 444.58354568 C-21.25928531 443.52661223 -21.25928531 443.52661223 -21.26419219 442.44832659 C-21.27245957 440.09935744 -21.26657946 437.75064545 -21.26069641 435.40167236 C-21.26371859 433.69565118 -21.26760841 431.98963136 -21.27228898 430.28361392 C-21.28256928 425.60458112 -21.28038705 420.92562494 -21.27610838 416.24658585 C-21.27364119 411.19667993 -21.2826553 406.14679247 -21.29014587 401.09689331 C-21.30289557 391.20654463 -21.30468618 381.3162231 -21.30234561 371.42586759 C-21.30056241 363.38553981 -21.30231213 355.34522028 -21.30657005 347.30489349 C-21.30716524 346.16044253 -21.30776043 345.01599158 -21.30837366 343.83686028 C-21.30958541 341.51186333 -21.31079955 339.18686638 -21.31201603 336.86186942 C-21.32289284 315.05696368 -21.32072855 293.25207339 -21.31463119 271.44716677 C-21.30946323 251.50652853 -21.32071403 231.56593915 -21.33972941 211.62531057 C-21.35910983 191.14464998 -21.36736336 170.66401251 -21.36360615 150.1833427 C-21.36169425 138.68732899 -21.36418053 127.19135687 -21.37832069 115.69535065 C-21.39023813 105.90741748 -21.39163536 96.11955148 -21.37953053 86.33161739 C-21.37364412 81.33977466 -21.37253586 76.34805477 -21.38453293 71.35622025 C-21.39539931 66.78158747 -21.39227932 62.20717999 -21.37827124 57.63255772 C-21.37562638 55.98252707 -21.37798419 54.33247873 -21.38600711 52.68246546 C-21.47762061 32.42604897 -16.19921939 16.41174935 -1.7578125 1.71875 C-1.17773438 1.1515625 -0.59765625 0.584375 0 0 Z " fill="#181818" transform="translate(136,92)"/>
<path d="M0 0 C1.44498548 2.88997097 0.4458429 4.47237698 -0.41369057 7.56035709 C-2.38422075 15.75934605 -2.41853912 23.6698599 -2.38095093 32.0342865 C-2.38441389 33.72669973 -2.38918272 35.4191107 -2.39513266 37.11151701 C-2.40758473 41.72982442 -2.40149882 46.34794438 -2.39217401 50.96625221 C-2.38535992 55.95953405 -2.39587644 60.95278464 -2.40411377 65.94606018 C-2.41742848 75.71542431 -2.41458336 85.48471915 -2.40587585 95.25408595 C-2.39909041 103.19702562 -2.3981863 111.13994591 -2.4014473 119.08288765 C-2.401907 120.21498227 -2.40236669 121.34707689 -2.40284032 122.5134774 C-2.40379954 124.81358723 -2.40477218 127.11369705 -2.4057581 129.41380686 C-2.41430547 150.96414445 -2.40448831 172.5144437 -2.388357 194.064775 C-2.37495624 212.53888938 -2.3772812 231.01294719 -2.39111328 249.48706055 C-2.40718376 270.96070444 -2.41347964 292.43431475 -2.40427649 313.90796381 C-2.40332088 316.1997414 -2.40237777 318.49151899 -2.4014473 320.78329659 C-2.40098447 321.91077698 -2.40052164 323.03825738 -2.40004479 324.19990386 C-2.39745917 332.12887721 -2.4018167 340.0578292 -2.40888596 347.98679924 C-2.41731754 357.65598217 -2.41498605 367.32509207 -2.39904372 376.99426668 C-2.39118305 381.92360588 -2.38803167 386.85282353 -2.39799118 391.78216171 C-2.40698451 396.30180991 -2.40192944 400.82122481 -2.38605852 405.34085209 C-2.38273023 406.96855953 -2.38436036 408.59628702 -2.39168589 410.22398137 C-2.484725 432.63010254 3.40859865 451.12454402 18.56640625 467.828125 C36.00297693 484.77096268 56.25475802 487.60326002 79.52880859 487.54589844 C81.88553038 487.55464573 84.24224624 487.56513552 86.59895325 487.57722473 C92.95953933 487.60496339 99.31993045 487.60849209 105.68056822 487.60750484 C111.66563554 487.61032576 117.65062721 487.63147603 123.6356519 487.65247145 C135.47974829 487.69343025 147.32381033 487.71683416 159.16796875 487.72900391 C170.66442153 487.74085442 182.1608098 487.76109344 193.65722656 487.79248047 C194.36744038 487.79441657 195.07765419 487.79635267 195.80938964 487.79834744 C199.37279417 487.80811289 202.93619823 487.81804184 206.49960208 487.82805204 C235.99969817 487.91071177 265.49980889 487.96450402 295 488 C291.25372216 491.89294777 287.7757017 494.46497103 282.875 496.6875 C281.97394531 497.12932617 281.97394531 497.12932617 281.0546875 497.58007812 C272.4712883 501.5588413 263.23606145 502.30074764 253.88786316 502.26742554 C252.93279115 502.27195665 251.97771915 502.27648776 250.99370557 502.28115618 C247.82672636 502.29371088 244.65992109 502.29218563 241.49291992 502.29052734 C239.20862103 502.29651811 236.92432415 502.30332491 234.64002991 502.31088257 C228.45810934 502.32849232 222.27624421 502.33323578 216.09430099 502.33451414 C212.22649486 502.33593896 208.35870269 502.3402148 204.49090004 502.34550858 C191.67781589 502.36303884 178.86477626 502.3723509 166.05168184 502.37084763 C165.36262244 502.37076772 164.67356304 502.3706878 163.96362305 502.37060547 C163.27371205 502.37052371 162.58380106 502.37044195 161.87298367 502.37035771 C150.6959922 502.36954506 139.51913556 502.3886834 128.34218308 502.4168822 C116.83596616 502.44568026 105.32983231 502.45905332 93.82357675 502.45769465 C87.37560593 502.45718608 80.9277879 502.46281173 74.47984886 502.48405075 C68.41320967 502.50348996 62.34686815 502.5035186 56.28021812 502.48901749 C54.06236839 502.48693547 51.84449974 502.49159377 49.62668228 502.5037384 C27.91475329 502.61486893 10.08287115 498.82077992 -6 483 C-16.14970212 471.10806555 -22.10730275 456.61418226 -22.13701439 440.92169476 C-22.13966622 440.22931999 -22.14231804 439.53694523 -22.14505023 438.82358941 C-22.15270776 436.50426124 -22.15330104 434.18498631 -22.15390015 431.86564636 C-22.15791712 430.18553943 -22.16235574 428.50543346 -22.1671797 426.82532865 C-22.17912507 422.20846218 -22.18478894 417.59160615 -22.18936086 412.97472727 C-22.19532476 407.99490401 -22.20693271 403.01509318 -22.21765137 398.03527832 C-22.24215849 386.00793303 -22.25680065 373.98058362 -22.26971143 361.95322105 C-22.27342479 358.55459812 -22.27739791 355.15597559 -22.2814641 351.75735307 C-22.30670357 330.64060101 -22.32875104 309.52384828 -22.34119225 288.40708447 C-22.34412182 283.51723923 -22.3470835 278.62739401 -22.35009766 273.73754883 C-22.35084371 272.52223967 -22.35158976 271.30693052 -22.35235842 270.05479381 C-22.36500481 250.37927581 -22.39821922 230.70384832 -22.43989949 211.02837261 C-22.48236601 190.81556816 -22.50589278 170.60280999 -22.51111281 150.38996106 C-22.51452171 139.04629618 -22.52621536 127.70277272 -22.55921555 116.35915184 C-22.58728213 106.69572349 -22.59818643 97.03246556 -22.58702008 87.36899962 C-22.58185025 82.44329249 -22.58461083 77.51794188 -22.60948563 72.59228706 C-22.63212106 68.07208798 -22.6311285 63.55249855 -22.61228175 59.03228775 C-22.60950162 57.40767163 -22.61496805 55.78301289 -22.63009469 54.15846481 C-22.79230453 35.58353745 -18.12575257 18.3729787 -5.35546875 4.3359375 C-3.69189065 2.69633027 -1.95518868 1.2783926 0 0 Z " fill="#141414" transform="translate(165,69)"/>
<path d="M0 0 C1.2265625 1.87109375 1.2265625 1.87109375 2.625 4.4375 C10.04220478 17.09143009 20.13399866 25.4185686 34.41015625 29.33984375 C50.28117292 32.25845291 64.52791299 28.96755253 78 20 C84.78626663 14.54275959 89.13750082 7.72499835 93 0 C105.93207753 4.83822481 115.72122078 14.52698883 123 26 C123.44730469 26.64195312 123.89460937 27.28390625 124.35546875 27.9453125 C126.32486788 30.94310094 127.01492121 32.71749185 126.82421875 36.328125 C123.67870061 50.34133377 108.13800424 64.07223129 96.4375 71.5 C94.31054618 72.70074112 92.16471181 73.86874645 90 75 C88.97519531 75.55171875 87.95039063 76.1034375 86.89453125 76.671875 C66.02058883 87.14774176 39.31312071 88.88988057 17.04101562 81.73632812 C-2.79181382 74.5813265 -19.86285594 60.90008948 -31 43 C-31.57621094 42.20464844 -32.15242188 41.40929687 -32.74609375 40.58984375 C-34.39105467 37.19230764 -34.03920733 35.5958413 -33 32 C-28.051048 21.5149322 -13.45432892 0 0 0 Z " fill="#141414" transform="translate(295,241)"/>
<path d="M0 0 C10.65561097 6.71375489 17.12108586 15.44538671 20.4375 27.64453125 C21.76556025 40.04905425 21.03057843 52.51377588 13.625 62.95703125 C12.58258896 64.20328009 11.52017203 65.43309482 10.4375 66.64453125 C9.94765625 67.24910156 9.4578125 67.85367188 8.953125 68.4765625 C3.03295486 75.2026964 -6.63207985 80.04771992 -15.61791992 80.8215332 C-34.32207811 81.34849961 -34.32207811 81.34849961 -41.5625 76.64453125 C-42.58150391 76.08378906 -42.58150391 76.08378906 -43.62109375 75.51171875 C-54.64153661 69.220275 -60.6091481 59.50458696 -64.5625 47.64453125 C-64.81601361 44.41991497 -64.79382244 41.19058309 -64.8125 37.95703125 C-64.833125 37.08369141 -64.85375 36.21035156 -64.875 35.31054688 C-64.94232755 24.04159792 -59.98421515 14.16065707 -52.375 5.89453125 C-38.02308128 -7.56635926 -17.08538621 -9.03754423 0 0 Z " fill="#141414" transform="translate(363.5625,182.35546875)"/>
<path d="M0 0 C1.22846257 -0.00551503 1.22846257 -0.00551503 2.48174256 -0.01114148 C5.24159336 -0.02220455 8.00140656 -0.02602658 10.76127625 -0.02983093 C12.73373027 -0.03609355 14.70618311 -0.04274017 16.67863464 -0.04974365 C22.04851128 -0.06717097 27.41837899 -0.07770992 32.78827691 -0.08594918 C36.14086771 -0.09109517 39.49345571 -0.09717105 42.84604454 -0.10346031 C53.32881071 -0.12251635 63.8115698 -0.13674718 74.29434997 -0.14507228 C86.40760095 -0.15485029 98.52066946 -0.18118285 110.63385612 -0.22157317 C119.98846352 -0.25169835 129.34301851 -0.26653769 138.6976735 -0.26985329 C144.28869759 -0.2722077 149.87952684 -0.28121897 155.47049904 -0.30631447 C160.7293472 -0.32953753 165.98787143 -0.33385165 171.24675751 -0.32355309 C173.17812615 -0.32305622 175.10951042 -0.32942071 177.04083061 -0.34310913 C179.67556091 -0.36073988 182.30911759 -0.35376578 184.94384766 -0.34057617 C185.70999982 -0.35154542 186.47615198 -0.36251466 187.26552087 -0.37381631 C192.18053748 -0.31432109 194.72027064 0.6283062 198.16239929 4.14717102 C199.71264393 7.2476603 199.45231945 9.7261132 199.16239929 13.14717102 C197.36677524 15.90046123 196.10985007 17.67344563 193.16239929 19.14717102 C190.54131965 19.25152614 187.94642467 19.29496743 185.32479858 19.29434204 C184.50582354 19.29801873 183.68684849 19.30169542 182.84305602 19.30548352 C180.08320522 19.31654659 177.32339203 19.32036862 174.56352234 19.32417297 C172.59106831 19.33043559 170.61861547 19.33708221 168.64616394 19.34408569 C163.27628731 19.36151302 157.90641959 19.37205196 152.53652167 19.38029122 C149.18393088 19.38543721 145.83134287 19.39151309 142.47875404 19.39780235 C131.99598788 19.41685839 121.51322878 19.43108922 111.03044862 19.43941432 C98.91719764 19.44919233 86.80412912 19.4755249 74.69094247 19.51591522 C65.33633506 19.54604039 55.98178007 19.56087974 46.62712508 19.56419533 C41.03610099 19.56654974 35.44527174 19.57556101 29.85429955 19.60065651 C24.59545139 19.62387957 19.33692715 19.62819369 14.07804108 19.61789513 C12.14667244 19.61739827 10.21528817 19.62376275 8.28396797 19.63745117 C5.64923767 19.65508192 3.015681 19.64810783 0.38095093 19.63491821 C-0.38520123 19.64588746 -1.15135339 19.6568567 -1.94072229 19.66815835 C-6.8557389 19.60866313 -9.39547206 18.66603584 -12.83760071 15.14717102 C-14.38784535 12.04668174 -14.12752086 9.56822884 -13.83760071 6.14717102 C-9.88112692 0.08057787 -6.82713367 -0.00162862 0 0 Z " fill="#F9F9F9" transform="translate(248.8376007080078,417.8528289794922)"/>
<path d="M0 0 C0.82970542 -0.00779995 1.65941085 -0.01559991 2.51425886 -0.02363622 C5.29287666 -0.04357093 8.07012707 -0.02778627 10.84875488 -0.01205444 C12.8413625 -0.01882991 14.83396386 -0.02773264 16.82655334 -0.03860474 C22.23773339 -0.0614129 27.64843718 -0.05255531 33.05962563 -0.03670931 C38.7201021 -0.02405828 44.38053756 -0.03578821 50.04101562 -0.04364014 C59.547153 -0.052739 69.0530962 -0.04074248 78.5592041 -0.01693726 C89.55259178 0.01027435 100.54551583 0.00146036 111.53889227 -0.02606928 C120.97427768 -0.04875251 130.40952345 -0.05196424 139.84492731 -0.03887594 C145.48173276 -0.03107715 151.11832022 -0.03005173 156.75511169 -0.04655838 C162.05434327 -0.06099231 167.35297659 -0.05100074 172.65214348 -0.0220871 C174.59800663 -0.01547057 176.54392005 -0.01738359 178.48976326 -0.02840042 C181.14432923 -0.04204521 183.79697289 -0.02495408 186.45141602 0 C187.22330371 -0.01115361 187.99519141 -0.02230722 188.79046965 -0.03379881 C192.80325265 0.03948066 194.54102701 0.48529506 197.70134735 3.04569435 C200.2241867 6.27248885 200.46402587 7.76163231 200.22570801 11.70132446 C199.37734054 14.98212053 197.31387861 16.6013556 194.72570801 18.63491821 C191.63194486 20.18179979 188.36650645 19.78290826 184.97076416 19.78208923 C183.7556106 19.78760427 183.7556106 19.78760427 182.51590848 19.79323071 C179.78603066 19.80429348 177.05619086 19.80811577 174.32629395 19.81192017 C172.37516661 19.81818286 170.42404047 19.82482949 168.47291565 19.83183289 C163.16082132 19.84926067 157.84873599 19.85979949 152.53662014 19.86803842 C149.21953359 19.8731848 145.90244986 19.87926069 142.5853653 19.88554955 C132.21205396 19.90460658 121.83874978 19.91883663 111.4654243 19.92716151 C99.48179356 19.93693683 87.4983474 19.96326195 75.51478171 20.00366241 C66.25867165 20.03379935 57.00261457 20.04862809 47.74645638 20.05194253 C42.21520322 20.05429578 36.68414711 20.06329201 31.15294647 20.0884037 C25.9490862 20.11164701 20.74555327 20.11593267 15.54165459 20.10564232 C13.63166911 20.10514594 11.72166773 20.11149643 9.81173134 20.12519836 C7.20362258 20.14286198 4.59669556 20.13583871 1.98858643 20.12266541 C1.233129 20.13363465 0.47767158 20.1446039 -0.30067849 20.15590554 C-5.41471113 20.09356369 -8.34037079 18.87114495 -12.27429199 15.63491821 C-13.85327253 12.47695715 -14.0935737 9.02821186 -13.27429199 5.63491821 C-9.36167497 0.59593446 -6.09464954 -0.08806635 0 0 Z " fill="#F7F7F7" transform="translate(248.2742919921875,346.3650817871094)"/>
<path d="M0 0 C1.22846257 -0.00551503 1.22846257 -0.00551503 2.48174256 -0.01114148 C5.24159336 -0.02220455 8.00140656 -0.02602658 10.76127625 -0.02983093 C12.73373027 -0.03609355 14.70618311 -0.04274017 16.67863464 -0.04974365 C22.04851128 -0.06717097 27.41837899 -0.07770992 32.78827691 -0.08594918 C36.14086771 -0.09109517 39.49345571 -0.09717105 42.84604454 -0.10346031 C53.32881071 -0.12251635 63.8115698 -0.13674718 74.29434997 -0.14507228 C86.40760095 -0.15485029 98.52066946 -0.18118285 110.63385612 -0.22157317 C119.98846352 -0.25169835 129.34301851 -0.26653769 138.6976735 -0.26985329 C144.28869759 -0.2722077 149.87952684 -0.28121897 155.47049904 -0.30631447 C160.7293472 -0.32953753 165.98787143 -0.33385165 171.24675751 -0.32355309 C173.17812615 -0.32305622 175.10951042 -0.32942071 177.04083061 -0.34310913 C179.67556091 -0.36073988 182.30911759 -0.35376578 184.94384766 -0.34057617 C185.70999982 -0.35154542 186.47615198 -0.36251466 187.26552087 -0.37381631 C192.18053748 -0.31432109 194.72027064 0.6283062 198.16239929 4.14717102 C199.73175523 7.2858829 199.51441032 9.68572924 199.16239929 13.14717102 C196.72489929 16.02217102 196.72489929 16.02217102 194.16239929 18.14717102 C193.83239929 18.47717102 193.50239929 18.80717102 193.16239929 19.14717102 C190.5814104 19.25382271 188.02685919 19.29495562 185.4450531 19.29434204 C184.62693248 19.29801873 183.80881186 19.30169542 182.96589971 19.30548352 C180.20294285 19.31656569 177.44002354 19.32037185 174.67704773 19.32417297 C172.7047412 19.33043423 170.73243586 19.33708072 168.76013184 19.34408569 C163.38606389 19.36152755 158.01200487 19.37205621 152.63791561 19.38029122 C149.28315258 19.38543483 145.92839235 19.39151085 142.57363129 19.39780235 C132.08552234 19.41686365 121.59742047 19.43109255 111.10929751 19.43941432 C98.98754644 19.44918998 86.86597783 19.47551424 74.74429107 19.51591522 C65.38545757 19.54604114 56.02667648 19.56087987 46.66779542 19.56419533 C41.07340303 19.56654995 35.47920534 19.57556368 29.88486481 19.60065651 C24.6219261 19.62388045 19.35931106 19.62819333 14.09633446 19.61789513 C12.16335412 19.61739826 10.23035816 19.62376285 8.29742622 19.63745117 C5.66045322 19.65508195 3.02465284 19.64810775 0.38768005 19.63491821 C-0.37915423 19.64588746 -1.14598851 19.6568567 -1.93606019 19.66815835 C-6.8528696 19.60869316 -9.39436988 18.6678853 -12.83760071 15.14717102 C-14.38784535 12.04668174 -14.12752086 9.56822884 -13.83760071 6.14717102 C-9.88112692 0.08057787 -6.82713367 -0.00162862 0 0 Z " fill="#F6F6F6" transform="translate(248.8376007080078,488.8528289794922)"/>
<path d="M0 0 C1.15677615 0.00027654 1.15677615 0.00027654 2.33692151 0.00055867 C3.15025302 -0.00311801 3.96358452 -0.0067947 4.80156243 -0.0105828 C7.54836581 -0.02166497 10.29513142 -0.02547114 13.04195386 -0.02927226 C15.00278579 -0.03553357 16.96361652 -0.04218006 18.92444593 -0.04918498 C24.26759024 -0.06662751 29.61072558 -0.07715589 34.95389134 -0.08539051 C38.28990109 -0.09053446 41.62590802 -0.0966105 44.96191579 -0.10290164 C55.39289564 -0.12196398 65.82386837 -0.1361921 76.25486231 -0.14451361 C88.30755326 -0.15428662 100.36006059 -0.18060352 112.41268682 -0.2210145 C121.71973171 -0.25115187 131.0267239 -0.26598028 140.33381665 -0.26929462 C145.89638337 -0.27164812 151.45875416 -0.2806473 157.02126867 -0.30575579 C162.25548383 -0.32899939 167.48937356 -0.33328463 172.72362691 -0.32299441 C174.64489938 -0.32249801 176.56618765 -0.32884901 178.48741132 -0.34255046 C181.11089804 -0.36021311 183.73320983 -0.35319119 186.3566969 -0.3400175 C187.11672739 -0.35098674 187.87675789 -0.36195599 188.6598196 -0.37325764 C193.78665183 -0.31112168 196.72114186 0.90036759 200.66426831 4.14772969 C202.25070814 7.32060934 202.6322632 10.76887961 201.66426831 14.14772969 C197.79099835 18.14238029 195.39541068 19.71053873 189.62612176 19.82110882 C188.86103785 19.81063733 188.09595394 19.80016584 187.30768567 19.78937703 C186.06797123 19.80213531 186.06797123 19.80213531 184.80321205 19.81515133 C182.04153497 19.83738729 179.28120964 19.82399485 176.51949292 19.81057149 C174.53658823 19.81898603 172.55369153 19.82951174 170.57080823 19.84198934 C165.19069228 19.86904881 159.81103982 19.86433409 154.43088585 19.85228878 C149.94003706 19.84516016 145.44927414 19.85365471 140.95843208 19.86219418 C130.36640243 19.88214863 119.77459848 19.87657335 109.18257886 19.8545168 C98.25102938 19.83214022 87.32007003 19.84976718 76.38857627 19.88756609 C67.00412026 19.91877744 57.61984716 19.92672314 48.23534572 19.91561234 C42.62980493 19.9091187 37.02460493 19.91115948 31.41910344 19.93493634 C26.15015237 19.95614794 20.88203618 19.94826316 15.61313802 19.91784269 C13.67855778 19.91150181 11.74391307 19.91540845 9.8093794 19.9302538 C7.16991236 19.94886873 4.53319592 19.9305922 1.89386731 19.90290242 C0.74289537 19.9240021 0.74289537 19.9240021 -0.43132854 19.94552803 C-3.30379314 19.88471317 -5.62915258 19.7060329 -7.93140513 17.88690895 C-10.35179116 15.14352623 -11.32613914 13.20240722 -11.96073169 9.58522969 C-11.18259218 5.3054624 -9.63243188 3.88157863 -6.33573169 1.14772969 C-4.59309801 -0.59490398 -2.32343906 0.01490356 0 0 Z " fill="#F9F9F9" transform="translate(246.3357316851616,381.8522703051567)"/>
<path d="M0 0 C0.82970542 -0.00779995 1.65941085 -0.01559991 2.51425886 -0.02363622 C5.29287666 -0.04357093 8.07012707 -0.02778627 10.84875488 -0.01205444 C12.8413625 -0.01882991 14.83396386 -0.02773264 16.82655334 -0.03860474 C22.23773339 -0.0614129 27.64843718 -0.05255531 33.05962563 -0.03670931 C38.7201021 -0.02405828 44.38053756 -0.03578821 50.04101562 -0.04364014 C59.547153 -0.052739 69.0530962 -0.04074248 78.5592041 -0.01693726 C89.55259178 0.01027435 100.54551583 0.00146036 111.53889227 -0.02606928 C120.97427768 -0.04875251 130.40952345 -0.05196424 139.84492731 -0.03887594 C145.48173276 -0.03107715 151.11832022 -0.03005173 156.75511169 -0.04655838 C162.05434327 -0.06099231 167.35297659 -0.05100074 172.65214348 -0.0220871 C174.59800663 -0.01547057 176.54392005 -0.01738359 178.48976326 -0.02840042 C181.14432923 -0.04204521 183.79697289 -0.02495408 186.45141602 0 C187.22330371 -0.01115361 187.99519141 -0.02230722 188.79046965 -0.03379881 C192.80325265 0.03948066 194.54102701 0.48529506 197.70134735 3.04569435 C199.66335663 5.55516875 200.41343351 6.52373322 200.35070801 9.63491821 C200.36359863 10.27429321 200.37648926 10.91366821 200.38977051 11.57241821 C199.30789417 14.93259882 197.44651447 16.43060024 194.72570801 18.63491821 C191.77317405 19.12748153 189.39893392 19.31242742 186.45141602 19.26983643 C185.62171059 19.27763638 184.79200517 19.28543633 183.93715715 19.29347265 C181.15853936 19.31340736 178.38128895 19.2976227 175.60266113 19.28189087 C173.61005351 19.28866634 171.61745215 19.29756907 169.62486267 19.30844116 C164.21368262 19.33124932 158.80297884 19.32239173 153.39179039 19.30654573 C147.73131391 19.2938947 142.07087845 19.30562464 136.41040039 19.31347656 C126.90426302 19.32257542 117.39831981 19.3105789 107.89221191 19.28677368 C96.89882424 19.25956208 85.90590019 19.26837606 74.91252375 19.29590571 C65.47713833 19.31858893 56.04189257 19.32180067 46.6064887 19.30871236 C40.96968326 19.30091357 35.3330958 19.29988816 29.69630432 19.31639481 C24.39707274 19.33082873 19.09843942 19.32083717 13.79927254 19.29192352 C11.85340939 19.285307 9.90749597 19.28722002 7.96165276 19.29823685 C5.30708678 19.31188164 2.65444313 19.2947905 0 19.26983643 C-0.7718877 19.28099003 -1.5437754 19.29214364 -2.33905363 19.30363524 C-6.35183664 19.23035577 -8.089611 18.78454136 -11.24993134 16.22414207 C-13.21194062 13.71466767 -13.9620175 12.7461032 -13.89929199 9.63491821 C-13.91218262 8.99554321 -13.92507324 8.35616821 -13.93835449 7.69741821 C-11.73279331 0.84720467 -6.38076222 -0.09220062 0 0 Z " fill="#FDFDFD" transform="translate(248.2742919921875,453.3650817871094)"/>
<path d="M0 0 C0.69416016 -0.01224609 1.38832031 -0.02449219 2.10351562 -0.03710938 C3.92470901 -0.04239842 5.7453692 0.06580793 7.5625 0.1875 C9.5625 2.1875 9.5625 2.1875 9.7578125 5.0078125 C9.73460937 6.09835938 9.71140625 7.18890625 9.6875 8.3125 C9.66945313 9.40820312 9.65140625 10.50390625 9.6328125 11.6328125 C9.60960937 12.47585937 9.58640625 13.31890625 9.5625 14.1875 C10.31015625 14.14109375 11.0578125 14.0946875 11.828125 14.046875 C12.81296875 14.01078125 13.7978125 13.9746875 14.8125 13.9375 C15.78703125 13.89109375 16.7615625 13.8446875 17.765625 13.796875 C20.5625 14.1875 20.5625 14.1875 22.89453125 15.82421875 C25.0094822 18.82081202 25.0676741 20.60913347 25 24.25 C24.99871094 25.29285156 24.99742187 26.33570313 24.99609375 27.41015625 C24.5625 30.1875 24.5625 30.1875 23.421875 32.046875 C20.70600979 33.71290996 18.52722352 33.47668463 15.375 33.375 C14.28832031 33.34792969 13.20164062 33.32085937 12.08203125 33.29296875 C10.83486328 33.24076172 10.83486328 33.24076172 9.5625 33.1875 C9.61470703 34.43466797 9.61470703 34.43466797 9.66796875 35.70703125 C9.69503906 36.79371094 9.72210938 37.88039062 9.75 39 C9.80220703 40.61841797 9.80220703 40.61841797 9.85546875 42.26953125 C9.5625 45.1875 9.5625 45.1875 8.45703125 47.05078125 C5.64678342 48.73692995 3.31219601 48.58445741 0.0625 48.5625 C-1.65453125 48.57410156 -1.65453125 48.57410156 -3.40625 48.5859375 C-6.4375 48.1875 -6.4375 48.1875 -8.33203125 47.05078125 C-9.94717069 44.32844376 -9.72608822 42.13373473 -9.625 39 C-9.59792969 37.91332031 -9.57085937 36.82664063 -9.54296875 35.70703125 C-9.50816406 34.87558594 -9.47335937 34.04414062 -9.4375 33.1875 C-10.70207031 33.22230469 -10.70207031 33.22230469 -11.9921875 33.2578125 C-13.63574219 33.28488281 -13.63574219 33.28488281 -15.3125 33.3125 C-16.40304687 33.33570313 -17.49359375 33.35890625 -18.6171875 33.3828125 C-21.4375 33.1875 -21.4375 33.1875 -23.4375 31.1875 C-23.703125 28 -23.703125 28 -23.6875 24.1875 C-23.69265625 22.929375 -23.6978125 21.67125 -23.703125 20.375 C-23.4375 17.1875 -23.4375 17.1875 -21.4375 15.1875 C-18.3984375 14.9921875 -18.3984375 14.9921875 -14.8125 15.0625 C-13.02972656 15.08957031 -13.02972656 15.08957031 -11.2109375 15.1171875 C-10.29570312 15.14039063 -9.38046875 15.16359375 -8.4375 15.1875 C-8.44910156 14.18847656 -8.46070313 13.18945312 -8.47265625 12.16015625 C-8.48167969 10.86980469 -8.49070312 9.57945313 -8.5 8.25 C-8.51160156 6.96222656 -8.52320313 5.67445312 -8.53515625 4.34765625 C-8.3558491 -1.45472316 -4.79360983 0.00442623 0 0 Z " fill="#F8F8F8" transform="translate(341.4375,45.8125)"/>
<path d="M0 0 C5.36528888 8.04793332 1.37174099 19.33473414 1 29 C-110.21 29 -221.42 29 -336 29 C-336 22.07 -336 15.14 -336 8 C-335.67 8 -335.34 8 -335 8 C-335 14.6 -335 21.2 -335 28 C-224.45 28 -113.9 28 0 28 C-0.33 19.09 -0.66 10.18 -1 1 C-0.67 0.67 -0.34 0.34 0 0 Z " fill="#272727" transform="translate(509,78)"/>
<path d="M0 0 C0.66 0.33 1.32 0.66 2 1 C1.34 2.98 0.68 4.96 0 7 C-0.66 7 -1.32 7 -2 7 C-2.33 8.32 -2.66 9.64 -3 11 C-3 10.34 -3 9.68 -3 9 C-4.32 9.33 -5.64 9.66 -7 10 C-6.42424336 6.64749299 -5.40693737 5.06181371 -2.9375 2.75 C-2.38964844 2.22921875 -1.84179688 1.7084375 -1.27734375 1.171875 C-0.64505859 0.59179688 -0.64505859 0.59179688 0 0 Z " fill="#242424" transform="translate(136,92)"/>
<path d="M0 0 C0.33 0 0.66 0 1 0 C1.20852314 6.40629424 1.1583195 11.92972642 -1 18 C-3.83022097 14.00439392 -2.76210446 10.57262677 -2 6 C-1.67 6 -1.34 6 -1 6 C-0.67 4.02 -0.34 2.04 0 0 Z " fill="#222222" transform="translate(444,240)"/>
<path d="M0 0 C3.39192363 0.59283621 5.2107757 1.76743189 7.75 4.0625 C8.67039062 4.88427734 8.67039062 4.88427734 9.609375 5.72265625 C10.29773438 6.35494141 10.29773438 6.35494141 11 7 C10.67 7.99 10.34 8.98 10 10 C6.66666667 6.66666667 3.33333333 3.33333333 0 0 Z " fill="#282828" transform="translate(400,250)"/>
<path d="M0 0 C1.79068573 2.6860286 2.66055791 4.6626589 3.625 7.6875 C3.88539063 8.49574219 4.14578125 9.30398438 4.4140625 10.13671875 C4.60742188 10.75160156 4.80078125 11.36648438 5 12 C2 11 2 11 0.25 8.25 C-1.06883276 4.82103483 -1.10867421 3.42681118 0 0 Z " fill="#242424" transform="translate(137,532)"/>
<path d="M0 0 C2.64025891 3.12030598 4.06609915 6.00969635 5 10 C4.01 11.485 4.01 11.485 3 13 C2.30093058 11.40084119 1.61610532 9.79544955 0.9375 8.1875 C0.55464844 7.29417969 0.17179687 6.40085937 -0.22265625 5.48046875 C-1 3 -1 3 0 0 Z " fill="#2A2A2A" transform="translate(503,62)"/>
<path d="M0 0 C3.26008643 3.16952847 6.22237877 6.39937989 9 10 C6 10 6 10 4.39453125 8.57421875 C3.61142578 7.64029297 3.61142578 7.64029297 2.8125 6.6875 C2.01779297 5.76517578 2.01779297 5.76517578 1.20703125 4.82421875 C0 3 0 3 0 0 Z " fill="#292929" transform="translate(128,569)"/>
<path d="M0 0 C4.75 0.875 4.75 0.875 7 2 C8.32 2 9.64 2 11 2 C11 2.99 11 3.98 11 5 C6.545 4.01 6.545 4.01 2 3 C2 2.34 2 1.68 2 1 C1.34 0.67 0.68 0.34 0 0 Z " fill="#272727" transform="translate(155,589)"/>
<path d="M0 0 C0.33 0 0.66 0 1 0 C1.33 6.27 1.66 12.54 2 19 C1.67 18.34 1.34 17.68 1 17 C0.34 17 -0.32 17 -1 17 C-0.67 11.39 -0.34 5.78 0 0 Z " fill="#272727" transform="translate(300,213)"/>
<path d="M0 0 C1.15224028 0.92961422 2.29659176 1.8690125 3.4375 2.8125 C4.07558594 3.33457031 4.71367187 3.85664062 5.37109375 4.39453125 C7 6 7 6 8 9 C7.01 9 6.02 9 5 9 C0 3.76744186 0 3.76744186 0 0 Z " fill="#313131" transform="translate(186,523)"/>
<path d="M0 0 C0.66 1.32 1.32 2.64 2 4 C1.06434658 6.64564072 -0.45014515 8.62963376 -2 11 C-2.66 10.34 -3.32 9.68 -4 9 C-2.68 6.03 -1.36 3.06 0 0 Z " fill="#212121" transform="translate(435,273)"/>
<path d="M0 0 C0.66 0 1.32 0 2 0 C3.32 2.64 4.64 5.28 6 8 C5.01 8 4.02 8 3 8 C2.34 6.35 1.68 4.7 1 3 C0.34 3 -0.32 3 -1 3 C-0.67 2.01 -0.34 1.02 0 0 Z " fill="#1C1C1C" transform="translate(293,241)"/>
<path d="M0 0 C0.66 0.33 1.32 0.66 2 1 C1.71125 1.53625 1.4225 2.0725 1.125 2.625 C-0.16711808 5.35280484 -1.08558592 8.12612718 -2 11 C-3.25 9.4375 -3.25 9.4375 -4 7 C-2.93237266 4.42998985 -1.53455057 2.3469597 0 0 Z " fill="#222222" transform="translate(124,106)"/>
<path d="M0 0 C1.15957207 3.47871621 0.77456651 4.34219645 -0.4375 7.6875 C-0.86869141 8.89986328 -0.86869141 8.89986328 -1.30859375 10.13671875 C-1.53675781 10.75160156 -1.76492187 11.36648437 -2 12 C-3.1171875 10.265625 -3.1171875 10.265625 -4 8 C-3.3203125 5.859375 -3.3203125 5.859375 -2.125 3.75 C-1.73570312 3.04359375 -1.34640625 2.3371875 -0.9453125 1.609375 C-0.63335937 1.07828125 -0.32140625 0.5471875 0 0 Z " fill="#272727" transform="translate(151,85)"/>
<path d="M0 0 C3.77545388 1.09068668 6.47043472 1.9083091 9 5 C8.01 5.495 8.01 5.495 7 6 C4.5249829 4.88568235 2.32116581 3.41849022 0 2 C0 1.34 0 0.68 0 0 Z " fill="#222222" transform="translate(201,537)"/>
<path d="M0 0 C3.45925163 1.2491742 6.14693203 2.67527795 9 5 C4.66905042 5 2.72965139 4.03435531 -1 2 C-0.67 1.34 -0.34 0.68 0 0 Z " fill="#1E1E1E" transform="translate(295,312)"/>
<path d="M0 0 C2.49505962 2.49505962 2.35948376 3.67328888 2.625 7.125 C2.69976562 8.03507813 2.77453125 8.94515625 2.8515625 9.8828125 C2.92503906 10.93082031 2.92503906 10.93082031 3 12 C2.67 10.68 2.34 9.36 2 8 C1.34 8 0.68 8 0 8 C-0.98120464 4.94736336 -0.98120464 3.05263664 0 0 Z " fill="#1C1C1C" transform="translate(440,202)"/>
<path d="M0 0 C0.99 0.33 1.98 0.66 3 1 C2.25 7.75 2.25 7.75 0 10 C0 6.7 0 3.4 0 0 Z " fill="#1B1B1B" transform="translate(419,273)"/>
<path d="M0 0 C2 1 2 1 2.6328125 2.84765625 C2.79523438 3.57855469 2.95765625 4.30945313 3.125 5.0625 C3.29257813 5.79597656 3.46015625 6.52945312 3.6328125 7.28515625 C3.75398437 7.85105469 3.87515625 8.41695313 4 9 C3.01 8.67 2.02 8.34 1 8 C-0.35439668 5.29120665 -0.06501451 2.99066732 0 0 Z " fill="#2A2A2A" transform="translate(243,263)"/>
<path d="M0 0 C4.21912747 0.4794463 6.79663178 1.16625119 10 4 C7 5 7 5 5.17578125 4.22265625 C3.45052083 3.1484375 1.72526042 2.07421875 0 1 C0 0.67 0 0.34 0 0 Z " fill="#222222" transform="translate(289,324)"/>
<path d="M0 0 C2.08954032 4.17908064 2.16552619 4.80410573 1 9 C0.01 9 -0.98 9 -2 9 C-1.34 6.03 -0.68 3.06 0 0 Z " fill="#2E2E2E" transform="translate(301,203)"/>
<path d="M0 0 C3.875 4.75 3.875 4.75 5 7 C3.125 6.8125 3.125 6.8125 1 6 C-0.25 3.4375 -0.25 3.4375 -1 1 C-0.67 0.67 -0.34 0.34 0 0 Z " fill="#272727" transform="translate(171,521)"/>
</svg>
